<svg xmlns="http://www.w3.org/2000/svg" width="247" height="247" viewBox="0 0 247 247"><defs><clipPath id="k1j2a"><path fill="#fff" d="M0 123.5C0 55.293 55.293 0 123.5 0S247 55.293 247 123.5 191.707 247 123.5 247 0 191.707 0 123.5z"/></clipPath><clipPath id="k1j2c"><path fill="#fff" d="M120.427 161.153a4.663 4.663 0 1 1 9.184-1.619 4.663 4.663 0 0 1-9.184 1.62z"/></clipPath><clipPath id="k1j2d"><path fill="#fff" d="M347.513 230.624a4.472 4.472 0 1 1 5.629 6.95 4.472 4.472 0 0 1-5.629-6.95z"/></clipPath><clipPath id="k1j2b"><path d="M0 123.5C0 55.293 55.293 0 123.5 0S247 55.293 247 123.5 191.707 247 123.5 247 0 191.707 0 123.5z"/></clipPath></defs><g><g opacity="-1"><path fill="#3a3e47" d="M0 123.5C0 55.293 55.293 0 123.5 0S247 55.293 247 123.5 191.707 247 123.5 247 0 191.707 0 123.5z"/><path fill="none" stroke="#616871" stroke-miterlimit="20" stroke-width="32" d="M0 123.5C0 55.293 55.293 0 123.5 0S247 55.293 247 123.5 191.707 247 123.5 247 0 191.707 0 123.5z" clip-path="url(&quot;#k1j2a&quot;)"/></g><g opacity="-1"><g><path fill="#f2f2f2" d="M0 123.5C0 55.293 55.293 0 123.5 0S247 55.293 247 123.5 191.707 247 123.5 247 0 191.707 0 123.5z"/></g><g clip-path="url(#k1j2b)" opacity="-.5"><g opacity=".5"><path fill="#2c2f36" d="M19.528 236.13c-54.98-91.318 12.284-131.29 84.788-144.785 72.505-13.495 61.65-75.343 108.749-54.97 47.099 20.375 239.882 171.104 28.37 122.46C29.926 110.191 74.508 327.448 19.529 236.13z"/></g><g opacity=".5"><path fill="#2c2f36" d="M125.604 45.658c33.098-29.047 9.129-57.637-34.367-51.661-43.495 5.976-50.881 42.2-32.535 66.149 18.347 23.949 33.804 14.558 66.902-14.488z"/></g><g opacity=".5"><path fill="#2c2f36" d="M165.416 253.699c33.098-29.047 9.128-57.637-34.367-51.661-43.495 5.976-50.881 42.2-32.535 66.149 18.347 23.949 33.804 14.558 66.902-14.488z"/></g></g><g clip-path="url(#k1j2b)"><g opacity="-1"><g><path fill="#975dc1" d="M179.977 51.052c4.393 7.03 12.078 14.15 28.514 3.88 16.197-10.12 38.599-43.288 29.505-50.723-9.094-7.435-18.745 8.165-31.797 16.094-13.051 7.93-36.782 13.85-26.222 30.749z"/></g><g><path fill="#53c48c" d="M223.303 6.458c5.766-7.527 12.736-2.579 17.238-9.033 1.632-.245 2.72 1.116 3.377 2.092-7.521 6.492 1.493 8.307-6.174 20.111-1.265-2.913-.011-4.87-1.283-5.142-2.336.295-1.384 2.763-3.985 4.708-.555-3.004.99-5.119-.073-5.934-1.062-.816-2.903 1.796-4.931 1.433 1.68-2.135 2.955-3.724 1.831-4.961s-3.219.706-5.807.571c1.508-2.123 5.066-2.79 4.384-4.282-.682-1.493-4.577.437-4.577.437z"/></g></g><g opacity="-1"><g><path fill="#975dc1" d="M60.895 83.354c-7.55-1.744-16.182-6.369-12.107-24.02C52.804 41.939 75.301 12.046 84.64 17.82c9.34 5.775-1.511 19.052-4.548 33-3.036 13.948-1.046 36.723-19.196 32.533z"/></g><g><path fill="#53c48c" d="M87.123 31.49c4.898-7.386-1.597-12.04 2.738-17.983-.28-1.517-1.815-2.065-2.877-2.349-3.449 8.624-7.796 1.21-15.896 11.577 2.96.232 4.309-1.472 4.936-.43.45 2.154-2.021 2.063-2.948 4.954 2.823-.424 4.222-2.432 5.266-1.741 1.045.69-.704 3.112.234 4.794 1.376-2.135 2.392-3.745 3.828-3.128 1.435.617.355 3.06 1.262 5.306 1.417-1.979.923-5.326 2.45-5.177 1.527.148 1.007 4.178 1.007 4.178z"/></g></g><g opacity="-1"><g><path fill="#b48c6a" d="M152.095 18.607c4.293-7.05 8.86-9.63 8.065-11.313-.795-1.682-6.373-7.112-10.625-5.889-4.252 1.223-3.677 8.137-4.716 12.509-1.038 4.372 7.276 4.693 7.276 4.693z"/></g><g><path fill="#dda16e" d="M141.672 24.962c8.954 4.756 19.091.894 17.575-3.042-1.517-3.937-17.454-14.019-23.051-12.778-5.597 1.241-3.478 11.065 5.476 15.82z"/></g><g><path fill="#f4c389" d="M151.18 24.423c2.611-.643 2.584-2.318.003-2.306"/></g><g><path fill="#f4c389" d="M139.838 16.554c.335-2.667-3.006-1.967-2.295.31"/></g><g><path fill="#f4c389" d="M146.602 18.352c1.84-1.96-1.274-3.358-2.038-1.098"/></g></g><g opacity="-1"><g><path fill="#b48c6a" d="M151.84 203.45c6.76 8.153 7.983 14.771 10.356 14.51 2.373-.262 11.29-4.76 11.582-10.43.292-5.669-8.334-7.86-13.205-10.946-4.87-3.086-8.733 6.866-8.733 6.866z"/></g><g><path fill="#dda16e" d="M148.484 188.151c-9.509 8.876-9.058 22.787-3.65 22.591 5.41-.195 24.298-15.318 25.13-22.626.832-7.308-11.97-8.841-21.48.035z"/></g><g><path fill="#f4c389" d="M145.167 199.911c-.31 3.436 1.733 4.103 2.796.966"/></g><g><path fill="#f4c389" d="M159.45 189.438c3.097 1.52 3.643-2.825.583-2.914"/></g><g><path fill="#f4c389" d="M154.444 196.893c1.61 3.051 4.607-.143 2.184-2.014"/></g></g><g opacity="-1"><g><path fill="#b48c6a" d="M117.535 62.428c6.76 8.153 7.982 14.771 10.355 14.51 2.373-.262 11.29-4.76 11.583-10.43.292-5.668-8.335-7.86-13.205-10.945-4.87-3.086-8.733 6.865-8.733 6.865z"/></g><g><path fill="#dda16e" d="M114.179 47.13c-9.51 8.875-9.059 22.787-3.65 22.59 5.409-.195 24.297-15.318 25.13-22.626.832-7.308-11.97-8.84-21.48.035z"/></g><g><path fill="#f4c389" d="M110.861 58.89c-.31 3.435 1.734 4.102 2.797.965"/></g><g><path fill="#f4c389" d="M125.145 48.416c3.097 1.52 3.643-2.824.583-2.914"/></g><g><path fill="#f4c389" d="M120.138 55.872c1.611 3.05 4.607-.144 2.184-2.015"/></g></g><g opacity="-1"><g><path fill="#b48c6a" d="M61.516 149.574c1.734 8.4.092 13.596 1.888 14.312 1.797.715 9.883.889 12.247-3.054 2.365-3.942-2.97-8.789-5.28-12.847-2.309-4.058-8.855 1.589-8.855 1.589z"/></g><g><path fill="#dda16e" d="M64.933 137.359c-10.174 2.731-15.14 12.85-11.198 14.766 3.942 1.916 23.197-1.716 26.57-6.625 3.374-4.91-5.198-10.873-15.372-8.141z"/></g><g><path fill="#f4c389" d="M58.09 144.506c-1.528 2.34-.32 3.593 1.632 1.754"/></g><g><path fill="#f4c389" d="M72.286 142.448c1.635 2.265 3.678-.635 1.524-1.862"/></g><g><path fill="#f4c389" d="M65.87 145.875c-.007 2.794 3.35 1.65 2.328-.61"/></g></g><g opacity="-1"><g><path fill="#f04a4a" d="M125.416 178.18c-26.277 4.121-16.66-23.31-21.037-48.134-4.377-24.824-23.211-38.413-13.276-48.528 9.934-10.116 47.19 24.192 56.413 40.922 9.223 16.73 4.177 51.62-22.1 55.74z"/><path fill="none" stroke="#f0e7de" stroke-miterlimit="20" stroke-width="6" d="M125.416 178.18c-26.277 4.121-16.66-23.31-21.037-48.134-4.377-24.824-23.211-38.413-13.276-48.528 9.934-10.116 47.19 24.192 56.413 40.922 9.223 16.73 4.177 51.62-22.1 55.74z"/></g><g><path fill="none" stroke="#f0e7de" stroke-miterlimit="20" stroke-width="4" d="M105.131 135.555c10.654-7.137 10.54-15.587 13.504-25.394 2.964-9.808 10.965-9.032 10.965-9.032v0"/></g><g><path fill="none" stroke="#f0e7de" stroke-miterlimit="20" stroke-width="4" d="M106.033 147.004c16.304-2.629 31.833.171 42.352 12.318"/></g><g><path fill="none" stroke="#f0e7de" stroke-miterlimit="20" stroke-width="4" d="M113.856 126.365c9.738 3.85 15.193 21.433 15.193 21.433"/></g><g><path fill="none" stroke="#f0e7de" stroke-miterlimit="20" stroke-width="12" d="M120.427 161.153a4.663 4.663 0 1 1 9.184-1.619 4.663 4.663 0 0 1-9.184 1.62z" clip-path="url(&quot;#k1j2c&quot;)"/></g></g><g opacity="-1"><g><path fill="#f04a4a" d="M335.552 242.725c-15.672-20.124 11.805-24.81 30.59-40.023 18.786-15.212 21.427-37.326 34.53-33.696 13.103 3.63 1.648 50.826-8.095 66.34-9.744 15.513-41.353 27.502-57.025 7.379z"/><path fill="none" stroke="#f0e7de" stroke-miterlimit="20" stroke-width="6" d="M335.552 242.725c-15.672-20.124 11.805-24.81 30.59-40.023 18.786-15.212 21.427-37.326 34.53-33.696 13.103 3.63 1.648 50.826-8.095 66.34-9.744 15.513-41.353 27.502-57.025 7.379z"/></g><g><path fill="none" stroke="#f0e7de" stroke-miterlimit="20" stroke-width="4" d="M361.872 205.895c10.938 5.617 17.974 1.593 27.577-.48 9.603-2.074 12.673 4.997 12.673 4.997v0"/></g><g><path fill="none" stroke="#f0e7de" stroke-miterlimit="20" stroke-width="4" d="M352.689 211.974c9.785 12.452 14.655 26.778 9.359 41.248"/></g><g><path fill="none" stroke="#f0e7de" stroke-miterlimit="20" stroke-width="4" d="M373.636 208.94c1.298 9.957-10.912 22.706-10.912 22.706"/></g><g><path fill="none" stroke="#f0e7de" stroke-miterlimit="20" stroke-width="12" d="M347.513 230.624a4.472 4.472 0 1 1 5.629 6.95 4.472 4.472 0 0 1-5.629-6.95z" clip-path="url(&quot;#k1j2d&quot;)"/></g></g><g opacity="-1"><g><path fill="#f04a4a" d="M197.225 160.47c-4.13 5.765-5.056 15.3 2.049 21.322 7.105 6.022 17.313 1.609 21.109-3.934 3.796-5.543 5.276-15.209-2.494-20.626-7.77-5.418-16.534-2.528-20.664 3.237z"/></g><g><path fill="#53c48c" d="M199.348 162.035c-1.412 3.923-.173 6.392-.888 6.87-.605.404-2.332-1.898-2.157-5.792a13.235 13.235 0 0 0-2.095 2.546c-.636.983-.959 1.652-1.414 1.665-.891.024.263-5.025 3.203-7.91-1.22-1.047-2.304-2.1-2.983-2.98-.05-1.233 1.371-3.097 2.442-2.442 1.043 1.155 2.02 2.237 2.91 3.234 2.234-3.523 7.48-4.198 7.606-3.716.052.201-.513.55-1.297 1.118-.827.6-1.898 1.442-2.748 2.614 4.14-.713 6.802.906 6.439 1.57-.429.78-3.158-.335-7.153 1.67 1.8 2.134 2.747 3.498 2.408 3.837-.29.29-2.144-.763-4.273-2.284z"/></g></g><g opacity="-1"><g><path fill="#f04a4a" d="M361.287 163.09c-6.104-3.612-15.684-3.705-21.063 3.898-5.38 7.603-.094 17.387 5.759 20.686 5.853 3.299 15.61 3.93 20.33-4.282 4.72-8.212 1.077-16.691-5.026-20.303z"/></g><g><path fill="#53c48c" d="M359.912 165.34c-4.03-1.065-6.382.385-6.922-.286-.454-.567 1.689-2.488 5.583-2.653a13.235 13.235 0 0 0-2.72-1.865c-1.034-.549-1.729-.811-1.78-1.264-.103-.886 5.028-.176 8.158 2.502.937-1.307 1.892-2.479 2.708-3.232 1.225-.157 3.205 1.096 2.647 2.22-1.06 1.14-2.053 2.207-2.969 3.18 3.705 1.92 4.835 7.087 4.365 7.254-.196.07-.592-.463-1.227-1.195-.669-.771-1.602-1.765-2.843-2.51 1.071 4.063-.31 6.856-1.003 6.552-.815-.36.058-3.175-2.287-6.98-1.97 1.98-3.245 3.04-3.613 2.733-.313-.264.573-2.203 1.903-4.456z"/></g></g><g opacity="-1"><g><path fill="#f04a4a" d="M341.579 58.28c-4.13 5.766-5.057 15.302 2.048 21.324 7.105 6.021 17.313 1.608 21.11-3.935 3.795-5.543 5.275-15.208-2.494-20.626-7.77-5.417-16.535-2.528-20.664 3.238z"/></g><g><path fill="#53c48c" d="M343.701 59.847c-1.412 3.922-.172 6.391-.888 6.87-.605.403-2.332-1.899-2.157-5.793a13.235 13.235 0 0 0-2.094 2.546c-.637.984-.96 1.653-1.414 1.665-.892.025.263-5.025 3.203-7.91-1.221-1.046-2.304-2.1-2.984-2.98-.05-1.233 1.372-3.096 2.442-2.442 1.043 1.156 2.02 2.238 2.91 3.234 2.234-3.523 7.48-4.198 7.606-3.715.053.2-.513.55-1.297 1.118-.827.599-1.898 1.442-2.748 2.613 4.14-.713 6.803.907 6.439 1.57-.428.78-3.157-.334-7.152 1.67 1.8 2.134 2.746 3.498 2.407 3.837-.29.29-2.144-.762-4.273-2.283z"/></g></g><g opacity="-1"><g><path fill="#f04a4a" d="M219.83 83.429c-7.21-3.456-17.976-2.619-23.27 6.447-5.294 9.066 1.603 19.534 8.5 22.664 6.896 3.129 17.915 2.88 22.408-6.806 4.493-9.686-.43-18.85-7.639-22.305z"/></g><g><path fill="#53c48c" d="M218.506 86.092c-4.63-.8-7.129 1.06-7.8.358-.566-.592 1.651-2.96 6.008-3.527-1.223-.915-2.34-1.45-3.236-1.828-1.216-.514-2.022-.74-2.125-1.243-.202-.985 5.63-.692 9.407 2.007.924-1.56 1.881-2.969 2.724-3.895 1.36-.296 3.706.916 3.19 2.233-1.079 1.384-2.089 2.68-3.02 3.863 4.348 1.79 6.124 7.482 5.613 7.717-.213.097-.71-.463-1.495-1.222-.827-.8-1.973-1.825-3.44-2.539 1.603 4.457.326 7.73-.482 7.455-.95-.322-.246-3.57-3.254-7.613-2.017 2.416-3.346 3.734-3.788 3.424-.378-.265.427-2.53 1.698-5.19z"/></g></g><g opacity="-1"><g><path fill="#f04a4a" d="M25.02 147.578c-6.227-3.396-15.804-3.154-20.915 4.632-5.11 7.786.514 17.38 6.478 20.472 5.964 3.093 15.738 3.384 20.168-4.988s.494-16.72-5.732-20.116z"/></g><g><path fill="#53c48c" d="M23.724 149.876c-4.065-.923-6.365.608-6.927-.045-.474-.55 1.6-2.545 5.486-2.846a13.236 13.236 0 0 0-2.782-1.769c-1.054-.512-1.757-.75-1.825-1.2-.133-.882 5.02-.352 8.24 2.215.892-1.34 1.805-2.543 2.595-3.325 1.219-.199 3.241.984 2.722 2.127-1.02 1.176-1.974 2.277-2.855 3.282 3.77 1.788 5.078 6.913 4.615 7.097-.193.076-.608-.443-1.268-1.152-.695-.747-1.663-1.708-2.929-2.409 1.212 4.023-.07 6.863-.773 6.583-.827-.33-.053-3.175-2.53-6.896-1.899 2.047-3.137 3.152-3.515 2.857-.323-.252.496-2.22 1.746-4.519z"/></g></g><g opacity="-1"><g><path fill="#ffcb57" d="M323.786 192.303l3.687-3.68s-6.506-20.007-35.52-22.545c-29.015-2.539-42.878 19.688-42.878 19.688l-9.15 6.456 3.186 6.523 8.87-7.129s13.957-8.644 38.284-6.248c24.327 2.397 33.52 6.935 33.52 6.935z"/></g><g><path fill="#3a3e47" d="M328.54 191.494l-2.293 2.12-4.206-1.83 5.053-4.553z"/></g></g><g opacity="-1"><g><path fill="#ffcb57" d="M37.952 134.269l5.18.55s11.454-17.647-4.832-41.793C22.013 68.88-3.985 72.095-3.985 72.095l-10.775-3.049-3.065 6.582 11.122 2.406s15.502 5.407 28.949 25.82c13.447 20.414 15.706 30.415 15.706 30.415z"/></g><g><path fill="#3a3e47" d="M41.573 137.455l-3.092-.448-1.223-4.421 6.718 1.062z"/></g></g><g opacity="-1"><g><path fill="#ffcb57" d="M122.99 215.812l-5.13.9s-6.147 20.12 16.164 38.841c22.31 18.722 46.416 8.466 46.416 8.466l11.198-.04 1.132-7.171-11.355.752s-16.391-.924-34.944-16.84c-18.553-15.917-23.481-24.908-23.481-24.908z"/></g><g><path fill="#3a3e47" d="M118.631 213.748l3.095-.422 2.395 3.913-6.75.83z"/></g></g><g opacity="-1"><g><path fill="#53c48c" d="M178.237 164.507c8.77-70.944-32.274-116.552-35.71-115.449-3.437 1.104 36.393 24.933 32.438 115.449 1.608 4.075 3.272 0 3.272 0z"/><path fill="none" stroke="#53c48c" stroke-miterlimit="20" d="M178.237 164.507c8.77-70.944-32.274-116.552-35.71-115.449-3.437 1.104 36.393 24.933 32.438 115.449 1.608 4.075 3.272 0 3.272 0z"/></g><g><path fill="#53c48c" d="M171.74 165.406c13.984-69.318-5.724-117.405-7.97-116.576-2.246.829 19.354 27.34 5.959 116.33.495 4.14 2.012.246 2.012.246z"/><path fill="none" stroke="#53c48c" stroke-miterlimit="20" d="M171.74 165.406c13.984-69.318-5.724-117.405-7.97-116.576-2.246.829 19.354 27.34 5.959 116.33.495 4.14 2.012.246 2.012.246z"/></g><g><path fill="#53c48c" d="M175.144 166.313c4.649-44.9-21.272-73.26-23.388-72.527-2.116.734 22.813 15.353 21.361 72.562 1.041 2.556 2.027-.035 2.027-.035z"/><path fill="none" stroke="#53c48c" stroke-miterlimit="20" d="M175.144 166.313c4.649-44.9-21.272-73.26-23.388-72.527-2.116.734 22.813 15.353 21.361 72.562 1.041 2.556 2.027-.035 2.027-.035v0z"/></g><g><path fill="#53c48c" d="M169.607 164.155c17.356-52.632 11.154-87.891 8.407-87.014-2.746.878 9.317 8.555-10.99 86.924 1.144 3.636 2.583.09 2.583.09z"/><path fill="none" stroke="#53c48c" stroke-miterlimit="20" d="M169.607 164.155c17.356-52.632 11.154-87.891 8.407-87.014-2.746.878 9.317 8.555-10.99 86.924 1.144 3.636 2.583.09 2.583.09v0z"/></g></g><g opacity="-1"><g><path fill="#53c48c" d="M405.921 278.131c-68.343 20.955-120.385-11.545-119.896-15.12.49-3.576 30.874 31.51 119.328 11.898 4.292.875.568 3.222.568 3.222z"/><path fill="none" stroke="#53c48c" stroke-miterlimit="20" d="M405.921 278.131c-68.343 20.955-120.385-11.545-119.896-15.12.49-3.576 30.874 31.51 119.328 11.898 4.292.875.568 3.222.568 3.222z"/></g><g><path fill="#53c48c" d="M405.679 271.577c-65.837 25.808-116.616 14.75-116.19 12.394.426-2.356 30.287 14.312 115.597-14.332 4.164-.232.593 1.938.593 1.938z"/><path fill="none" stroke="#53c48c" stroke-miterlimit="20" d="M405.679 271.577c-65.837 25.808-116.616 14.75-116.19 12.394.426-2.356 30.287 14.312 115.597-14.332 4.164-.232.593 1.938.593 1.938z"/></g><g><path fill="#53c48c" d="M409.05 273.91c-42.703 14.63-76.168-4.247-75.929-6.473.24-2.227 20.092 18.774 75.508 4.49 2.725.44.421 1.983.421 1.983z"/><path fill="none" stroke="#53c48c" stroke-miterlimit="20" d="M409.05 273.91c-42.703 14.63-76.168-4.247-75.929-6.473.24-2.227 20.092 18.774 75.508 4.49 2.725.44.421 1.983.421 1.983v0z"/></g><g><path fill="#53c48c" d="M404.076 269.693c-48.818 26.232-84.62 26.247-84.232 23.39.387-2.858 10.043 7.69 83.695-25.918 3.779.495.537 2.528.537 2.528z"/><path fill="none" stroke="#53c48c" stroke-miterlimit="20" d="M404.076 269.693c-48.818 26.232-84.62 26.247-84.232 23.39.387-2.858 10.043 7.69 83.695-25.918 3.779.495.537 2.528.537 2.528v0z"/></g></g><g opacity="-1"><g><path fill="#53c48c" d="M-10.3 191.404c71.206-6.288 115.353 36.322 114.13 39.718-1.222 3.395-23.646-37.242-114.245-36.448-4.016-1.75.114-3.27.114-3.27z"/><path fill="none" stroke="#53c48c" stroke-miterlimit="20" d="M-10.3 191.404c71.206-6.288 115.353 36.322 114.13 39.718-1.222 3.395-23.646-37.242-114.245-36.448-4.016-1.75.114-3.27.114-3.27v0z"/></g><g><path fill="#53c48c" d="M-11.427 197.865c69.765-11.556 117.134 9.819 116.228 12.034-.907 2.216-26.65-20.296-116.051-10.015-4.121-.64-.177-2.02-.177-2.02z"/><path fill="none" stroke="#53c48c" stroke-miterlimit="20" d="M-11.427 197.865c69.765-11.556 117.134 9.819 116.228 12.034-.907 2.216-26.65-20.296-116.051-10.015-4.121-.64-.177-2.02-.177-2.02z"/></g><g><path fill="#53c48c" d="M-14.24 194.882c44.813-5.432 73.621 19.99 72.924 22.118-.697 2.129-15.749-22.541-72.923-20.092-2.575-.995 0-2.026 0-2.026z"/><path fill="none" stroke="#53c48c" stroke-miterlimit="20" d="M-14.24 194.882c44.813-5.432 73.621 19.99 72.924 22.118-.697 2.129-15.749-22.541-72.923-20.092-2.575-.995 0-2.026 0-2.026z"/></g><g><path fill="#53c48c" d="M-10.25 200.04c53.205-15.508 88.227-8.08 87.254-5.365-.973 2.715-8.225-9.61-87.255 7.95-3.593-1.27 0-2.584 0-2.584z"/><path fill="none" stroke="#53c48c" stroke-miterlimit="20" d="M-10.25 200.04c53.205-15.508 88.227-8.08 87.254-5.365-.973 2.715-8.225-9.61-87.255 7.95-3.593-1.27 0-2.584 0-2.584z"/></g></g></g></g></g></svg>