<svg xmlns="http://www.w3.org/2000/svg" width="32" height="24" viewBox="0 0 32 24"><g><g><path fill="#F07532" d="M14.333 16.041a.667.667 0 0 1-1-.577V8.536a.667.667 0 0 1 1-.577l6 3.464a.667.667 0 0 1 0 1.154zM26.667 4.667h-5.334V2h5.334zM13.333 2h5.334v2.667h-5.334zm-2.666 2.667H5.333V2h5.334zm10.666 14.666h5.334V22h-5.334zM18.667 22h-5.334v-2.667h5.334zM5.333 19.333h5.334V22H5.333zM2.667 0C1.424 0 .38.85.084 2h2.583v2.667H0v14.666h2.667V22H.084c.296 1.15 1.34 2 2.583 2h26.666c1.243 0 2.287-.85 2.583-2h-2.583v-2.667H32V4.667h-2.667V2h2.583c-.296-1.15-1.34-2-2.583-2z"/></g></g></svg>