<svg xmlns="http://www.w3.org/2000/svg" width="30" height="40" viewBox="0 0 30 40"><g><g><path fill="#3a3e47" d="M20.366 37.656V16.953h6.835v20.703zM2.8 16.953H7.5v6.495a3.807 3.807 0 0 0 3.802 3.802 3.808 3.808 0 0 0 3.792-3.505c.452.19.949.295 1.47.295.516 0 1.01-.104 1.458-.29v13.906H2.8zm19.895-14.61v3.394H7.306V2.344zm1.09 6.834l2.752 5.432H21.03zM21.71 8.08l-3.307 6.528H3.464l3.308-6.528zm-3.689 12.157a1.46 1.46 0 0 1-1.458 1.459 1.46 1.46 0 0 1-1.459-1.459v-.993h-2.344v4.203a1.46 1.46 0 0 1-1.459 1.459 1.46 1.46 0 0 1-1.458-1.46v-6.494h8.178zm7.016-13.771V0H4.962v6.467L.456 15.363V40h29.088V15.363z"/></g></g></svg>