<svg xmlns="http://www.w3.org/2000/svg" width="40" height="40" viewBox="0 0 40 40"><g><g><g><path fill="#3a3e47" d="M26.06 33.628c-.138 0-.276-.003-.414-.008a13.857 13.857 0 0 0 2.233-7.56c0-3.8-1.558-9.276-3.877-13.626-1.285-2.41-2.705-4.337-4.202-5.736 2.013-2.8 4.215-4.354 6.26-4.354 2.653 0 5.567 2.611 7.994 7.165 2.155 4.04 3.602 9.073 3.602 12.523 0 6.394-5.202 11.596-11.596 11.596zm-12.12 4.028c-6.394 0-11.596-5.202-11.596-11.596 0-3.45 1.447-8.482 3.602-12.523 2.427-4.553 5.341-7.165 7.994-7.165 2.652 0 5.566 2.612 7.994 7.165 2.154 4.04 3.602 9.074 3.602 12.523 0 6.394-5.202 11.596-11.596 11.596zm22.183-29.25C33.233 2.986 29.659 0 26.06 0c-2.826 0-5.637 1.844-8.113 5.261-1.31-.812-2.657-1.233-4.007-1.233-3.599 0-7.172 2.986-10.063 8.407C1.558 16.785 0 22.26 0 26.06 0 33.747 6.253 40 13.94 40c3.898 0 7.427-1.61 9.96-4.197.704.11 1.425.169 2.16.169 7.687 0 13.94-6.253 13.94-13.94 0-3.8-1.558-9.276-3.877-13.626z"/></g><g><path fill="#3a3e47" d="M13.94 32.463a6.392 6.392 0 0 1-6.385-6.385 6.391 6.391 0 0 1 6.385-6.384 6.391 6.391 0 0 1 6.384 6.384 6.392 6.392 0 0 1-6.384 6.385zm0-15.113c-4.813 0-8.728 3.916-8.728 8.728 0 4.813 3.915 8.728 8.728 8.728 4.812 0 8.728-3.915 8.728-8.728 0-4.812-3.916-8.728-8.728-8.728z"/></g><g><path fill="#3a3e47" d="M10.417 23.178h2.343v2.343h-2.343z"/></g></g></g></svg>