<svg xmlns="http://www.w3.org/2000/svg" width="40" height="40" viewBox="0 0 40 40"><g><g><g><path fill="#3a3e47" d="M20 40C4.706 40 0 36.47 0 31.765c0-4.706 4.706-17.647 20-17.647s20 12.94 20 17.647C40 36.47 35.294 40 20 40zM5.276 35.523c2.606 1.24 7.178 2.124 14.724 2.124s12.118-.883 14.724-2.124c1.267-.604 1.97-1.245 2.36-1.816.38-.553.563-1.18.563-1.942 0-1.788-.975-5.683-3.742-9.11C31.23 19.343 26.885 16.47 20 16.47c-6.884 0-11.23 2.872-13.905 6.184-2.768 3.427-3.742 7.322-3.742 9.11 0 .763.183 1.389.562 1.942.392.571 1.094 1.212 2.361 1.816z"/></g><g><path fill="#3a3e47" d="M25.882 29.412h2.353v-1.659a6.704 6.704 0 0 1 5.505-6.595l-.421-2.316a9.057 9.057 0 0 0-7.437 8.911zm-7.644-1.103l2.348-.147-.09-1.427a8.977 8.977 0 0 1 6.32-9.14l-.691-2.249a11.33 11.33 0 0 0-7.977 11.536zm.08-13.877C12.533 16.474 9.4 22.73 11.23 28.586l2.246-.702a9.05 9.05 0 0 1 5.626-11.233l.701-.247-.783-2.22-.701.248z"/></g><g><path fill="#3a3e47" d="M17.872 2.585l1.1-1.98 2.056 1.143-1.1 1.98a1.195 1.195 0 0 0 .555 1.67 3.548 3.548 0 0 1 1.645 4.958l-1.1 1.98-2.056-1.143 1.1-1.98a1.195 1.195 0 0 0-.555-1.67 3.548 3.548 0 0 1-1.645-4.958z"/></g><g><path fill="#3a3e47" d="M27.283 3.761l1.1-1.98 2.057 1.143-1.1 1.98a1.195 1.195 0 0 0 .555 1.67 3.548 3.548 0 0 1 1.645 4.959l-1.1 1.98-2.057-1.143 1.1-1.98a1.195 1.195 0 0 0-.554-1.67 3.548 3.548 0 0 1-1.646-4.959z"/></g><g><path fill="#3a3e47" d="M8.46 3.761l1.1-1.98 2.057 1.143-1.1 1.98a1.195 1.195 0 0 0 .554 1.67 3.548 3.548 0 0 1 1.646 4.959l-1.1 1.98L9.56 12.37l1.1-1.98a1.195 1.195 0 0 0-.555-1.67A3.548 3.548 0 0 1 8.46 3.76z"/></g></g></g></svg>