<svg xmlns="http://www.w3.org/2000/svg" width="38" height="32" viewBox="0 0 38 32"><g><g clip-path="url(#clip-4725b7d6-8bef-442a-867b-485520834207)"><path fill="#3a3e47" d="M13.162 13.52c.392.366.758.766 1.091 1.195l.4.516-.633.553a9.663 9.663 0 0 1-7.302 2.334l-2.716-.268a4.519 4.519 0 0 1-3.529-2.344l-.051-.095a3.014 3.014 0 0 1 .459-3.506 4.305 4.305 0 0 1 3.553-1.328l2.83.28a10.104 10.104 0 0 1 5.898 2.663zm-10.672.77l.052.095a2.166 2.166 0 0 0 1.691 1.123l2.717.268a7.31 7.31 0 0 0 4.23-.863 7.75 7.75 0 0 0-4.146-1.715l-2.831-.28a1.953 1.953 0 0 0-1.612.603.661.661 0 0 0-.1.769z"/></g><g clip-path="url(#clip-4725b7d6-8bef-442a-867b-485520834207)"><path fill="#3a3e47" d="M13.506 19.796l.078.03c.498.202.982.443 1.448.725l.558.338-.394.743a9.663 9.663 0 0 1-5.98 4.795l-2.632.723a4.519 4.519 0 0 1-4.134-.924l-.083-.07a3.014 3.014 0 0 1-.827-3.438 4.306 4.306 0 0 1 2.841-2.513l2.744-.753a10.105 10.105 0 0 1 6.381.344zm-9.61 4.572l.083.07a2.166 2.166 0 0 0 1.982.443l2.632-.723a7.31 7.31 0 0 0 3.64-2.322c-1.439-.476-3-.523-4.486-.115l-2.743.753c-.583.16-1.059.58-1.289 1.14a.661.661 0 0 0 .182.754z"/></g><g clip-path="url(#clip-4725b7d6-8bef-442a-867b-485520834207)"><path fill="#3a3e47" d="M28.817 18.779l.052.065c.334.42.636.87.902 1.344l.319.57-.71.452a9.663 9.663 0 0 1-7.567 1.221l-2.646-.67a4.519 4.519 0 0 1-3.14-2.842l-.037-.102a3.014 3.014 0 0 1 .976-3.399 4.306 4.306 0 0 1 3.71-.784l2.759.698a10.105 10.105 0 0 1 5.382 3.447zm-10.615-.763l.037.102a2.166 2.166 0 0 0 1.505 1.362l2.646.67a7.311 7.311 0 0 0 4.313-.224 7.75 7.75 0 0 0-3.846-2.313l-2.758-.698a1.953 1.953 0 0 0-1.683.356.661.661 0 0 0-.214.745z"/></g><g clip-path="url(#clip-4725b7d6-8bef-442a-867b-485520834207)"><path fill="#3a3e47" d="M27.047 26.274l.064.055c.407.35.789.733 1.14 1.15l.42.498-.61.578a9.663 9.663 0 0 1-7.2 2.63l-2.725-.157a4.52 4.52 0 0 1-3.622-2.198l-.055-.092a3.014 3.014 0 0 1 .316-3.522 4.306 4.306 0 0 1 3.495-1.472l2.84.163c2.198.127 4.278.967 5.937 2.367zM16.48 27.533l.056.093a2.166 2.166 0 0 0 1.735 1.053l2.725.157a7.31 7.31 0 0 0 4.192-1.036 7.75 7.75 0 0 0-4.213-1.544l-2.84-.163a1.953 1.953 0 0 0-1.586.667.661.661 0 0 0-.069.773z"/></g><g clip-path="url(#clip-4725b7d6-8bef-442a-867b-485520834207)"><path fill="#3a3e47" d="M20.578 10.201l.03.079c.191.501.344 1.02.454 1.553l.133.639-.813.217a9.663 9.663 0 0 1-7.583-1.117l-2.321-1.436A4.52 4.52 0 0 1 8.34 6.478l-.005-.108a3.014 3.014 0 0 1 1.955-2.946 4.306 4.306 0 0 1 3.775.37l2.42 1.498a10.105 10.105 0 0 1 4.092 4.91zm-9.891-3.927l.004.108c.03.718.414 1.375 1.025 1.753l2.32 1.436a7.31 7.31 0 0 0 4.18 1.087 7.75 7.75 0 0 0-2.969-3.365l-2.419-1.497a1.953 1.953 0 0 0-1.712-.169c-.268.1-.44.361-.429.647z"/></g><g clip-path="url(#clip-4725b7d6-8bef-442a-867b-485520834207)"><path fill="#3a3e47" d="M28.419 12.88l-.028.08c-.184.504-.41.996-.675 1.47l-.318.57-.756-.367a9.663 9.663 0 0 1-4.999-5.812l-.812-2.606a4.519 4.519 0 0 1 .78-4.163l.068-.085a3.014 3.014 0 0 1 3.407-.945 4.306 4.306 0 0 1 2.61 2.753l.847 2.716a10.105 10.105 0 0 1-.124 6.39zm-4.9-9.446l-.068.085a2.166 2.166 0 0 0-.374 1.996l.813 2.605a7.309 7.309 0 0 0 2.446 3.559 7.752 7.752 0 0 0-.04-4.488l-.847-2.715a1.953 1.953 0 0 0-1.183-1.25.661.661 0 0 0-.748.208z"/></g><g clip-path="url(#clip-4725b7d6-8bef-442a-867b-485520834207)"><path fill="#3a3e47" d="M37.497 22.397a10.106 10.106 0 0 1-.702 1.55l-.319.57-.756-.368a9.663 9.663 0 0 1-4.998-5.812l-.813-2.606a4.519 4.519 0 0 1 .78-4.163l.068-.085a3.014 3.014 0 0 1 3.407-.945 4.306 4.306 0 0 1 2.61 2.753l.847 2.716a10.104 10.104 0 0 1-.124 6.39zm-4.9-9.447l-.068.085a2.166 2.166 0 0 0-.374 1.996l.813 2.605a7.31 7.31 0 0 0 2.446 3.559 7.751 7.751 0 0 0-.04-4.487l-.847-2.716a1.953 1.953 0 0 0-1.183-1.249.661.661 0 0 0-.747.207z"/></g></g></svg>