<svg xmlns="http://www.w3.org/2000/svg" width="40" height="40" viewBox="0 0 40 40"><defs><clipPath id="lq3ba"><path d="M0 40V0h40v40z"/></clipPath></defs><g><g><g><g clip-path="url(#lq3ba)"><path fill="#3a3e47" d="M35.48 18.257a27.347 27.347 0 0 0-1.97-3.276 22.906 22.906 0 0 0 4.04-6.547c.291 3.11.048 6.93-2.07 9.823zm-5.696 4.12a11.102 11.102 0 0 0-3.28 1.85l-2.674-2.674a10.674 10.674 0 0 1 2.768-1.63c1.866-.741 3.653-1.855 5.225-3.247.998 1.484 1.605 2.69 1.925 3.403a12.81 12.81 0 0 1-3.964 2.298zm-6.787 6.787a12.81 12.81 0 0 1-2.297 3.962c-.712-.32-1.919-.927-3.402-1.924 1.396-1.574 2.512-3.364 3.255-5.234.394-.99.947-1.921 1.621-2.756l2.672 2.672a11.107 11.107 0 0 0-1.85 3.28zm-11.613 8.49a9.581 9.581 0 0 1-3.814-.768c2.835-.53 5.646-1.917 8.031-4a27.277 27.277 0 0 0 3.313 1.988c-2.268 1.839-4.964 2.78-7.53 2.78zm-9.015-9.77c.167-2.434 1.135-4.805 2.756-6.8a27.213 27.213 0 0 0 1.988 3.315c-2.083 2.387-3.471 5.2-4 8.036-.596-1.37-.856-2.918-.744-4.55zm8.467-10.881a11.103 11.103 0 0 0 3.28-1.85l2.672 2.672a10.669 10.669 0 0 1-2.757 1.621c-1.87.743-3.66 1.86-5.233 3.255-.998-1.485-1.604-2.692-1.923-3.403a12.813 12.813 0 0 1 3.96-2.295zm9.083-10.75c.712.319 1.92.925 3.405 1.924-1.392 1.571-2.506 3.358-3.248 5.224-.395.996-.951 1.93-1.63 2.768l-2.673-2.673a11.103 11.103 0 0 0 1.85-3.28 12.811 12.811 0 0 1 2.296-3.963zM31.564 2.45a22.908 22.908 0 0 0-6.546 4.039 27.274 27.274 0 0 0-3.276-1.968c2.272-1.664 5.114-2.172 7.736-2.172.718 0 1.418.039 2.086.101zm-1.932 7.917a35.176 35.176 0 0 0-2.698-2.436c2.874-2.413 6.558-4.091 9.417-4.283-.192 2.86-1.87 6.543-4.284 9.417a35.192 35.192 0 0 0-2.435-2.698zm-9.524 7.463c.9-1.069 1.634-2.275 2.146-3.565.668-1.68 1.687-3.29 2.97-4.698.874.695 1.802 1.509 2.75 2.457a32.352 32.352 0 0 1 2.458 2.751c-1.408 1.282-3.02 2.302-4.699 2.969a13.03 13.03 0 0 0-3.565 2.146zm-7.46 9.521a32.358 32.358 0 0 1-2.459-2.751c1.41-1.285 3.024-2.308 4.707-2.976a13.027 13.027 0 0 0 3.554-2.137l2.062 2.061a13.025 13.025 0 0 0-2.137 3.554c-.669 1.683-1.691 3.297-2.976 4.707a32.345 32.345 0 0 1-2.752-2.458zM10.99 29.01c.924.924 1.83 1.73 2.692 2.431-2.547 2.094-5.574 3.292-8.466 3.342.05-2.892 1.248-5.92 3.342-8.466a35.165 35.165 0 0 0 2.432 2.693zM39.946 8.92c-.25-3.764-1.28-6.706-1.324-6.83l-.186-.526-.527-.187C37.786 1.334 34.844.304 31.08.054c-5.115-.34-9.29.949-12.07 3.728-1.613 1.612-2.857 3.565-3.597 5.65a8.907 8.907 0 0 1-5.363 5.362c-2.082.74-4.036 1.983-5.65 3.597C1.82 20.974.268 24.288.032 27.724c-.24 3.496.906 6.699 3.226 9.019C5.374 38.86 8.228 40 11.369 40c.3 0 .602-.01.907-.032 3.435-.235 6.75-1.787 9.333-4.37 1.613-1.614 2.857-3.568 3.597-5.65a8.907 8.907 0 0 1 5.362-5.362c2.082-.74 4.036-1.984 5.65-3.597 2.78-2.78 4.069-6.954 3.728-12.07z"/></g></g></g></g></svg>