<svg xmlns="http://www.w3.org/2000/svg" width="40" height="32" viewBox="0 0 40 32"><defs><clipPath id="rdiea"><path d="M0 36V-4h40v40z"/></clipPath></defs><g><g><g><g clip-path="url(#rdiea)"><path fill="#3a3e47" d="M21.094 15.59V8.012h13.568v.917a4.01 4.01 0 0 1-4.005 4.005h-1.172v1.172c0 .818-.666 1.484-1.484 1.484zm-2.344 1.972h-4.308v-9.55h4.308zm2.002 9.27a3.803 3.803 0 0 1-3.61 2.624h-2.7v-2.624zM4.996 25.786l7.102-3.555v7.182a10.707 10.707 0 0 1-7.102-3.627zM2.91 15.294l9.188 4.193v.123l-8.457 4.233a10.656 10.656 0 0 1-1.297-5.109c0-1.203.199-2.36.566-3.44zm9.188 1.617l-8.195-3.74a10.735 10.735 0 0 1 8.195-5.115zm23.738-4.316H40v-2.343h-3.135c.09-.427.14-.87.14-1.323V7.904A3.912 3.912 0 0 0 40 4.106 3.91 3.91 0 0 0 36.094.2h-7.839v2.344h7.84c.86 0 1.561.7 1.561 1.562 0 .861-.7 1.562-1.562 1.562H13.066C5.86 5.668 0 11.53 0 18.734 0 25.94 5.861 31.8 13.066 31.8h4.075a6.147 6.147 0 0 0 6.14-6.14v-1.172h-8.839v-4.582h6.652v-1.972h2.94l2.65 7.526h9.163v-2.344h-7.503l-1.826-5.182h1.483c.426 0 .837-.07 1.22-.2l.914 2.83h8.295V18.22h-6.589l-.648-2.005c.206-.311.369-.653.477-1.018a6.357 6.357 0 0 0 4.166-2.602z"/></g><g clip-path="url(#rdiea)"><path fill="#3a3e47" d="M24.089 9.942h2.343v2.324H24.09z"/></g></g></g></g></svg>