<svg xmlns="http://www.w3.org/2000/svg" width="39" height="32" viewBox="0 0 39 32"><g><g clip-path="url(#clip-dbbd732e-a604-4a2f-8bc6-3dd8f1996881)"><path fill="#3a3e47" d="M21.27 9.01l-1.874.618A7.507 7.507 0 0 1 9.605 3.48l-.267-2.018L11.034.97a7.859 7.859 0 0 1 9.94 6.259zm-9.334-5.846l.001.008a5.154 5.154 0 0 0 6.678 4.236 5.505 5.505 0 0 0-6.679-4.244z"/></g><g clip-path="url(#clip-dbbd732e-a604-4a2f-8bc6-3dd8f1996881)"><path fill="#3a3e47" d="M21.727 22.601l-.597 1.881a7.507 7.507 0 0 1-10.718 4.336L8.62 27.85l.594-1.662a7.858 7.858 0 0 1 10.896-4.391zm-10.206 4.142zm.008.004a5.154 5.154 0 0 0 7.344-2.932 5.506 5.506 0 0 0-7.352 2.928z"/></g><g clip-path="url(#clip-dbbd732e-a604-4a2f-8bc6-3dd8f1996881)"><path fill="#3a3e47" d="M32.92 15.695l-1.12 1.626a7.508 7.508 0 0 1-11.516 1.026L18.85 16.9l1.053-1.417a7.859 7.859 0 0 1 11.703-1.027zm-10.97.99l.005.006a5.154 5.154 0 0 0 7.88-.666 5.506 5.506 0 0 0-7.886.66z"/></g><g clip-path="url(#clip-dbbd732e-a604-4a2f-8bc6-3dd8f1996881)"><path fill="#3a3e47" d="M37.274 18.914l.73 1.834a7.508 7.508 0 0 1-5.547 10.144l-1.999.388-.593-1.662a7.859 7.859 0 0 1 5.649-10.3zm-5.273 9.67l.008-.002a5.154 5.154 0 0 0 3.826-6.92A5.505 5.505 0 0 0 32 28.584z"/></g><g clip-path="url(#clip-dbbd732e-a604-4a2f-8bc6-3dd8f1996881)"><path fill="#3a3e47" d="M23.493.317l1.945-.333a7.507 7.507 0 0 1 8.772 7.53l-.035 2.036-1.75.236a7.859 7.859 0 0 1-8.903-7.663zm8.365 7.165v-.009a5.154 5.154 0 0 0-5.976-5.178 5.505 5.505 0 0 0 5.976 5.187z"/></g><g clip-path="url(#clip-dbbd732e-a604-4a2f-8bc6-3dd8f1996881)"><path fill="#3a3e47" d="M-.025 11.554l1.652-1.08a7.508 7.508 0 0 1 11.047 3.41l.778 1.882-1.51.913A7.859 7.859 0 0 1 .721 13.2zm10.528 3.238l-.003-.007a5.155 5.155 0 0 0-7.545-2.368 5.506 5.506 0 0 0 7.548 2.375z"/></g></g></svg>