<svg xmlns="http://www.w3.org/2000/svg" width="40" height="38" viewBox="0 0 40 38"><g><g><g><path fill="#3a3e47" d="M31.765 28.819a54.216 54.216 0 0 0 2.353-2.554v5.853a3.53 3.53 0 0 1-3.53 3.53H23.59a54.156 54.156 0 0 0 3.2-2.354h3.8c.649 0 1.176-.527 1.176-1.176zm-23.53 0v3.299c0 .65.527 1.176 1.177 1.176h3.799a54.156 54.156 0 0 0 3.2 2.353h-7a3.53 3.53 0 0 1-3.529-3.53v-5.852a54.173 54.173 0 0 0 2.353 2.554z"/></g><g><path fill="#3a3e47" d="M10.474 5.101zm2.492 11.963l2.303-.48L12.75 4.493l.234-.28a4.602 4.602 0 0 1 4.858-1.463l.982.295v12.602h2.352V3.045l.982-.295a4.602 4.602 0 0 1 4.858 1.462l.234.28-2.52 12.092 2.304.48L29.526 5.1A5.794 5.794 0 0 1 34.118 8.5l.342.771.008.01-4.92 9.349 2.081 1.095 4.484-8.518a7.06 7.06 0 0 1 1.534 4.393c0 1.179-.3 2.281-.878 3.183A51.813 51.813 0 0 1 21.427 34.26L20 35.191l-1.427-.93A51.814 51.814 0 0 1 3.231 18.781c-.578-.902-.878-2.004-.878-3.183a7.06 7.06 0 0 1 1.534-4.393l4.484 8.518 2.082-1.095-4.92-9.35.007-.009.342-.77A5.794 5.794 0 0 1 10.474 5.1zM3.529 8L2.266 9.474A9.412 9.412 0 0 0 0 15.6c0 1.573.401 3.127 1.248 4.451a54.167 54.167 0 0 0 16.04 16.181L20 38l2.712-1.769a54.168 54.168 0 0 0 16.04-16.18C39.599 18.725 40 17.17 40 15.598c0-2.246-.804-4.419-2.266-6.125L36.471 8l-.203-.456a8.146 8.146 0 0 0-7.444-4.838 6.955 6.955 0 0 0-7.342-2.21L20 .942 18.518.497a6.955 6.955 0 0 0-7.342 2.209 8.146 8.146 0 0 0-7.444 4.838z"/></g></g></g></svg>