<svg xmlns="http://www.w3.org/2000/svg" width="40" height="40" viewBox="0 0 40 40"><g><g><g><path fill="#3a3e47" d="M13.259 31.084a3.09 3.09 0 0 1-4.366 0 3.067 3.067 0 0 1-.904-2.183c0-.825.32-1.6.904-2.183a3.078 3.078 0 0 1 2.183-.903c.79 0 1.58.301 2.182.903a3.09 3.09 0 0 1 0 4.366zM5.644 28.9c0 1.45.565 2.815 1.59 3.84a5.415 5.415 0 0 0 3.842 1.59c1.39 0 2.782-.53 3.84-1.59a5.438 5.438 0 0 0 0-7.681c-2.115-2.116-5.563-2.112-7.681 0a5.396 5.396 0 0 0-1.591 3.84zm1.59-3.841l.007-.007a4.098 4.098 0 0 0-.006.007z"/></g><g><path fill="#3a3e47" d="M22.189 22.153a3.066 3.066 0 0 1-2.183.904c-.824 0-1.6-.32-2.183-.904a3.09 3.09 0 0 1 0-4.365 3.077 3.077 0 0 1 2.183-.903c.79 0 1.581.3 2.183.903.583.583.904 1.358.904 2.182 0 .825-.32 1.6-.904 2.183zm-6.024-6.024a5.438 5.438 0 0 0 0 7.682 5.396 5.396 0 0 0 3.841 1.591c1.451 0 2.815-.565 3.841-1.59a5.396 5.396 0 0 0 1.591-3.842c0-1.45-.565-2.815-1.59-3.84a5.438 5.438 0 0 0-7.683 0z"/></g><g><path fill="#3a3e47" d="M26.754 8.857a3.077 3.077 0 0 1 2.182-.902c.79 0 1.582.3 2.183.902a3.09 3.09 0 0 1 0 4.366 3.067 3.067 0 0 1-2.183.904c-.824 0-1.6-.321-2.182-.904a3.067 3.067 0 0 1-.904-2.183c0-.825.32-1.6.904-2.183zm-3.25 2.183c0 1.451.566 2.815 1.592 3.841a5.397 5.397 0 0 0 3.84 1.591c1.451 0 2.816-.565 3.842-1.59a5.438 5.438 0 0 0 0-7.683 5.438 5.438 0 0 0-7.682 0 5.396 5.396 0 0 0-1.591 3.841z"/></g><g><path fill="#3a3e47" d="M36.983 11.485v.01a8.01 8.01 0 0 1-2.35 5.277 8.033 8.033 0 0 1-5.44 2.357l-1.099.035-.035 1.099a8.032 8.032 0 0 1-2.357 5.439 8.034 8.034 0 0 1-5.44 2.357l-1.098.036-.036 1.098a8.034 8.034 0 0 1-2.356 5.44 8.044 8.044 0 0 1-5.316 2.352l-8.962.521.52-8.95.001-.012a8.044 8.044 0 0 1 2.353-5.315 8.033 8.033 0 0 1 5.439-2.357l1.099-.036.035-1.098a8.034 8.034 0 0 1 2.357-5.44 8.034 8.034 0 0 1 5.44-2.357l1.098-.035.035-1.099a8.033 8.033 0 0 1 2.357-5.44 8.045 8.045 0 0 1 5.304-2.351l8.974-.522zM28.411.674a10.386 10.386 0 0 0-6.84 3.036 10.365 10.365 0 0 0-2.957 5.974c-2.256.3-4.347 1.33-5.974 2.956a10.365 10.365 0 0 0-2.956 5.974c-2.256.3-4.348 1.33-5.975 2.956a10.384 10.384 0 0 0-3.036 6.856L0 40l11.574-.673a10.385 10.385 0 0 0 6.856-3.037 10.365 10.365 0 0 0 2.956-5.974c2.256-.3 4.347-1.329 5.974-2.956a10.365 10.365 0 0 0 2.956-5.974c2.256-.3 4.348-1.33 5.974-2.956a10.35 10.35 0 0 0 3.035-6.814L40 0z"/></g></g></g></svg>