<svg xmlns="http://www.w3.org/2000/svg" width="34" height="40" viewBox="0 0 34 40"><g><g><g><path fill="#3a3e47" d="M13.827 37.656H5.043l-1.975-1.975v-2.4h12.734v2.4zm-2.786-13.324c0 .885-.72 1.606-1.606 1.606-.885 0-1.605-.72-1.605-1.606 0-.885.72-1.606 1.605-1.606s1.606.72 1.606 1.606zm-7.973-2.789zm2.7 1.324a3.926 3.926 0 0 0-.282 1.465 3.954 3.954 0 0 0 3.95 3.95 3.954 3.954 0 0 0 3.949-3.95 3.93 3.93 0 0 0-.283-1.465l2.7-1.324v9.395H3.068v-9.395zm1.046-8.806l.708-.305V7.292h3.826v6.464l.708.305a6.19 6.19 0 0 1 3.695 4.897l-4.185 2.052a3.925 3.925 0 0 0-2.13-.627c-.785 0-1.517.23-2.132.627L3.12 18.958a6.189 6.189 0 0 1 3.694-4.897zM6.447 2.344h5.976v2.604H6.447zm7.245 9.908v-4.96h1.075V0H4.103v7.292H5.18v4.96A8.53 8.53 0 0 0 .724 19.75v16.902L4.072 40h10.726l3.348-3.348V19.75a8.53 8.53 0 0 0-4.454-7.498z"/></g><g><path fill="#3a3e47" d="M27.065 29.844a3.872 3.872 0 0 1-3.867-3.867v-2.618h7.734v2.618a3.872 3.872 0 0 1-3.867 3.867zm3.867-11.72v2.892h-7.734v-2.891zm-10.078-2.343v10.196c0 3.024 2.173 5.548 5.039 6.098v5.581h-2.54V40h7.423v-2.344h-2.54v-5.58c2.867-.55 5.04-3.075 5.04-6.1V15.782z"/></g></g></g></svg>