<svg xmlns="http://www.w3.org/2000/svg" width="36" height="40" viewBox="0 0 36 40"><g><g><g><path fill="#3a3e47" d="M8.499 23.237h2.336v2.337H8.5z"/></g><g><path fill="#3a3e47" d="M7.175 17.795H9.51v2.336H7.175z"/></g><g><path fill="#3a3e47" d="M12.753 19.353h2.336v2.336h-2.336z"/></g><g><path fill="#3a3e47" d="M25.451 32.26A40.355 40.355 0 0 1 18 37.396a40.356 40.356 0 0 1-7.453-5.135c-5.136-4.509-7.74-9.352-7.74-14.394 0-2.382.42-4.742 1.222-6.916a4.781 4.781 0 0 0 4.392 2.079 4.75 4.75 0 0 0 4 2.157c.701 0 1.393-.157 2.024-.45A5.138 5.138 0 0 0 18 16.16c1.34 0 2.608-.519 3.555-1.425.63.294 1.323.45 2.025.45a4.75 4.75 0 0 0 4-2.156 4.782 4.782 0 0 0 4.392-2.08 20.052 20.052 0 0 1 1.221 6.916c-.002 5.043-2.606 9.886-7.742 14.396zm4.83-23.074a2.45 2.45 0 0 1-2.99 1.417l-1.038-.32-.395 1.01a2.433 2.433 0 0 1-2.279 1.556 2.417 2.417 0 0 1-1.533-.54l-.995-.804-.71 1.064a2.81 2.81 0 0 1-4.682 0l-.71-1.064-.995.803c-.439.354-.969.541-1.533.541a2.433 2.433 0 0 1-2.279-1.555l-.395-1.011-1.037.32a2.448 2.448 0 0 1-2.975-1.38C8.266 8.287 13.399 6.63 18 6.63c4.992 0 9.878 1.62 12.28 2.555zm3.144-.802L33.2 7.9l-.38-.181c-.278-.132-6.532-3.063-13.55-3.395a2.73 2.73 0 0 1 2.623-1.989V0a5.07 5.07 0 0 0-5.008 4.322c-6.542.316-13.368 3.25-13.67 3.382l-.407.176-.234.504C1.2 11.276.471 14.555.471 17.866c0 3.188.916 6.337 2.722 9.357 1.42 2.375 3.39 4.673 5.857 6.832 4.164 3.644 8.274 5.623 8.447 5.705L18 40l.503-.24c.173-.082 4.282-2.06 8.445-5.705 2.467-2.159 4.438-4.457 5.857-6.832 1.807-3.02 2.723-6.168 2.724-9.357.001-3.308-.726-6.587-2.104-9.482z"/></g></g></g></svg>