<svg xmlns="http://www.w3.org/2000/svg" width="40" height="40" viewBox="0 0 40 40"><defs><clipPath id="jyj4a"><path d="M0 40V0h40v40z"/></clipPath></defs><g><g><g><g clip-path="url(#jyj4a)"><path fill="#3a3e47" d="M37.656 5.548a2.985 2.985 0 0 1-2.982 2.982H31.47V5.326a2.985 2.985 0 0 1 2.982-2.982h3.204v3.204zm-6.4 9.933l3.073 3.074-.615.615a3.595 3.595 0 0 1-5.079 0l-3.074-3.074.615-.615c1.4-1.4 3.679-1.4 5.08 0zm-8.29 8.289l3.075 3.074-.615.615a3.595 3.595 0 0 1-5.08 0l-3.074-3.074.615-.615c1.4-1.4 3.68-1.4 5.08 0zm-8.288 8.288l3.074 3.075-.615.615a3.596 3.596 0 0 1-5.08 0l-3.073-3.075.615-.615c1.4-1.4 3.678-1.4 5.079 0zm-7.351-1.042l-3.075-3.074a3.596 3.596 0 0 1 0-5.079l.615-.615 3.075 3.074c1.4 1.4 1.4 3.68 0 5.08zm8.288-8.288l-3.074-3.075a3.595 3.595 0 0 1 0-5.079l.615-.615 3.074 3.075c1.4 1.4 1.4 3.678 0 5.079zm8.289-8.29l-3.074-3.073a3.596 3.596 0 0 1 0-5.08l.615-.614 3.074 3.074c1.4 1.4 1.4 3.679 0 5.079zM34.452 0a5.332 5.332 0 0 0-5.325 5.326v3.89l-1.27 1.27a5.903 5.903 0 0 0-1.68-3.398l-4.732-4.732-2.272 2.272a5.942 5.942 0 0 0 0 8.394l3.074 3.074-2.679 2.678a5.903 5.903 0 0 0-1.68-3.398l-4.732-4.73-2.272 2.271a5.942 5.942 0 0 0 0 8.393l3.074 3.075-2.678 2.678a5.903 5.903 0 0 0-1.681-3.398l-4.732-4.731-2.272 2.272a5.942 5.942 0 0 0 0 8.393l3.074 3.074L0 38.343 1.657 40l5.67-5.67 3.074 3.075a5.917 5.917 0 0 0 4.196 1.735c1.52 0 3.04-.578 4.197-1.735l2.272-2.272-4.731-4.732a5.904 5.904 0 0 0-3.398-1.68l2.678-2.68 3.075 3.075a5.916 5.916 0 0 0 4.196 1.736c1.52 0 3.04-.579 4.197-1.736l2.272-2.272-4.731-4.731a5.903 5.903 0 0 0-3.398-1.681l2.678-2.679 3.074 3.074a5.916 5.916 0 0 0 4.197 1.736c1.52 0 3.04-.579 4.197-1.736l2.272-2.272-4.732-4.731a5.903 5.903 0 0 0-3.398-1.681l1.27-1.27h3.89A5.332 5.332 0 0 0 40 5.548V0z"/></g></g></g></g></svg>