<svg xmlns="http://www.w3.org/2000/svg" width="35" height="40" viewBox="0 0 35 40"><defs><style>.a{fill:#3a3e47;}</style></defs><g transform="translate(-32)"><g transform="translate(32)"><path class="a" d="M290.728,5.375V0h-2.5V4.625L286.309,7.5h-3.575a7.155,7.155,0,0,1-5.966-3.194l-2.08,1.387A9.65,9.65,0,0,0,282.734,10h2.923l-1.179,21.18-.02.333,3.77,7.532V40h2.5V38.455L287,30.988,288.207,9.16Z" transform="translate(-255.728)"/><path class="a" d="M40,10a9.65,9.65,0,0,0,8.046-4.306l-2.08-1.388A7.155,7.155,0,0,1,40,7.5H36.419L34.5,4.625V0H32V5.375L34.521,9.16l1.217,21.921L33.25,38.548V40h2.5V38.952l2.511-7.534L37.071,10Z" transform="translate(-32)"/><path class="a" d="M137.978,162.5V160h-4.419l-2.871,4.306,2.08,1.388L134.9,162.5Z" transform="translate(-122.978 -147.5)"/><path class="a" d="M288,160v2.5h3.081l2.129,3.194,2.08-1.388L292.419,160Z" transform="translate(-268 -147.5)"/><path class="a" d="M168.75,224h-2.5a2.5,2.5,0,0,1-2.5,2.5H160V229h3.75a4.967,4.967,0,0,0,3.75-1.727A4.967,4.967,0,0,0,171.25,229H175v-2.5h-3.75A2.5,2.5,0,0,1,168.75,224Z" transform="translate(-150 -206.5)"/><path class="a" d="M168.75,320h-2.5a2.5,2.5,0,0,1-2.5,2.5H160V325h3.75a4.967,4.967,0,0,0,3.75-1.728A4.967,4.967,0,0,0,171.25,325H175v-2.5h-3.75A2.5,2.5,0,0,1,168.75,320Z" transform="translate(-150 -295)"/><path class="a" d="M168.75,416h-2.5a2.5,2.5,0,0,1-2.5,2.5H160V421h3.75a4.967,4.967,0,0,0,3.75-1.728A4.967,4.967,0,0,0,171.25,421H175v-2.5h-3.75A2.5,2.5,0,0,1,168.75,416Z" transform="translate(-150 -383.5)"/></g></g></svg>