<svg xmlns="http://www.w3.org/2000/svg" width="27.5" height="40" viewBox="0 0 27.5 40"><defs><style>.a{fill:#3a3e47;}</style></defs><g transform="translate(-80)"><g transform="translate(80)"><path class="a" d="M103.75,72.341V64h-2.5v7.5h-15V64h-2.5v8.341A20.125,20.125,0,0,0,80,84V99h2.5V84a17.379,17.379,0,0,1,.39-3.587l3.684,1.052a11.006,11.006,0,0,1,5.676,3.85,3.75,3.75,0,0,1-3.5,2.435h-2.5v2.5h2.5c.14,0,.272-.033.41-.041A10.611,10.611,0,0,1,90,94.295V99h2.5v-4.7a13.157,13.157,0,0,0-.912-4.759,6.267,6.267,0,0,0,2.162-1.825,6.267,6.267,0,0,0,2.162,1.825A13.157,13.157,0,0,0,95,94.295V99h2.5v-4.7a10.611,10.611,0,0,1,.84-4.086c.138.009.27.041.41.041h2.5v-2.5h-2.5a3.75,3.75,0,0,1-3.5-2.435,11,11,0,0,1,5.677-3.85l3.683-1.052A17.379,17.379,0,0,1,105,84V99h2.5V84A20.125,20.125,0,0,0,103.75,72.341Zm-3.51,6.719a13.509,13.509,0,0,0-6.49,4.153,13.5,13.5,0,0,0-6.49-4.153l-3.683-1.052A17.557,17.557,0,0,1,85.656,74h16.187a17.557,17.557,0,0,1,2.079,4.007Z" transform="translate(-80 -59)"/><rect class="a" width="2.5" height="2.5" transform="translate(3.75)"/><rect class="a" width="2.5" height="2.5" transform="translate(21.25)"/></g></g></svg>