<svg xmlns="http://www.w3.org/2000/svg" width="34" height="34" viewBox="0 0 34 34"><g><g opacity="-1"><path fill="#3a3e47" d="M.75 17C.75 8.025 8.025.75 17 .75S33.25 8.025 33.25 17 25.975 33.25 17 33.25.75 25.975.75 17zm25.759-9.932A13.704 13.704 0 0 0 17 3.25c-2.18 0-4.24.507-6.072 1.41a22.455 22.455 0 0 0 1.591 4.397 21.088 21.088 0 0 1 13.99-1.989zm4.137 8.233zm0 0a13.66 13.66 0 0 0-1.569-4.88 18.588 18.588 0 0 0-15.343.822c1 1.585 2.2 3.047 3.577 4.347a24.967 24.967 0 0 1 13.335-.289zM3.25 17c0 4.763 2.421 8.96 6.1 11.427a22.457 22.457 0 0 0 3.011-3.575 21.088 21.088 0 0 1-8.719-11.126A13.783 13.783 0 0 0 3.25 17zm2.014-7.169a18.588 18.588 0 0 0 8.383 12.876 22.462 22.462 0 0 0 1.977-5.271A24.967 24.967 0 0 1 8.706 6.032a13.822 13.822 0 0 0-3.442 3.8zm18.355 7.22a22.459 22.459 0 0 0-5.554.923 24.967 24.967 0 0 1-6.419 11.695 13.693 13.693 0 0 0 5.016 1.077 18.588 18.588 0 0 0 6.957-13.696zm-2.776 13.155c5.443-1.581 9.494-6.438 9.877-12.295a22.458 22.458 0 0 0-4.6-.82 21.09 21.09 0 0 1-5.277 13.115z"/></g></g></svg>