<svg xmlns="http://www.w3.org/2000/svg" width="40" height="28" viewBox="0 0 40 28"><g><g opacity="-1"><path fill="#3a3e47" d="M18.75 20.875a1.25 1.25 0 1 0 0-2.5 1.25 1.25 0 0 0 0 2.5zm5.68-11.25h-7.16l1.738 6.259c.276.018.543.067.8.142zm-9.279 1.714l-4.69 7.036h4.752a3.76 3.76 0 0 1 1.386-1.822zM25.163 2.75h5.31a3.902 3.902 0 0 1 2.76 6.66l-.474.474-1.768-1.768.474-.473a1.402 1.402 0 0 0-.992-2.393h-1.885l2.03 6.347a8.125 8.125 0 1 1-4.43 2.225l.878 2.883a5.625 5.625 0 1 0 4.328-2.685l1.672 5.224-2.381.762L27.409 9.77l-5.575 7.72a3.75 3.75 0 1 1-6.62 3.385H8.124l-1.04-1.943 3.043-4.565a5.625 5.625 0 1 0 2.19 9.008h3.017A8.125 8.125 0 1 1 11.54 12.25l2.727-4.092-.807-2.908h2.594l.521 1.875h9.988l-.878-2.744zM10 .25h7.5v2.5H10z"/></g></g></svg>