<svg xmlns="http://www.w3.org/2000/svg" xmlns:xlink="http://www.w3.org/1999/xlink" width="238.121" height="276.943" viewBox="0 0 238.121 276.943">
  <defs>
    <radialGradient id="radial-gradient" cx="1.783" cy="0.502" r="0.505" gradientTransform="matrix(23.622, -0.581, 16.864, 0.814, -43.173, 0.979)" gradientUnits="objectBoundingBox">
      <stop offset="0" stop-color="#00b1f9"/>
      <stop offset="0.552" stop-color="#00f2e6"/>
      <stop offset="0.635" stop-color="#2af5e2"/>
      <stop offset="0.76" stop-color="#63f9de"/>
      <stop offset="0.866" stop-color="#8dfcdb"/>
      <stop offset="0.95" stop-color="#a6fed9"/>
      <stop offset="1" stop-color="#b0ffd9"/>
    </radialGradient>
    <radialGradient id="radial-gradient-2" cx="0.714" cy="0.91" r="0.834" gradientTransform="matrix(23.623, -0.581, 16.862, 0.814, 127.085, -3.47)" xlink:href="#radial-gradient"/>
    <clipPath id="clip-path">
      <path id="Path_97" data-name="Path 97" d="M218.477,214.317c5.641-11.531,14.618-21.25,24.155-30.189,4.527-4.243,9.463-8.984,10.018-15.164.5-5.6-2.982-11.032-7.7-14.091s-10.483-4.091-16.1-4.338c-13.083-.579-26.021,2.7-38.525,6.594-9.469,2.947-18.9,6.294-27.43,11.347s-16.193,11.937-20.879,20.678c-8.121,15.146-6.325,33.883-.436,50.029,3.883,10.647,9.386,20.585,14.794,30.51,5.444,9.991,10.625,19.246,17.877,28.092,2.88,3.513,6.156,7.039,10.5,8.358,5.712,1.732,12.093-.916,16.117-5.324s6.054-10.281,7.305-16.118c3.864-18.017,1.962-36.672,5.168-54.791A58.54,58.54,0,0,1,218.477,214.317Z" transform="translate(-136.521 -150.468)" fill="none"/>
    </clipPath>
    <linearGradient id="linear-gradient" x1="1.523" y1="-0.255" x2="2.837" y2="-0.255" gradientUnits="objectBoundingBox">
      <stop offset="0" stop-color="#009dff"/>
      <stop offset="0.321" stop-color="#00ccf0"/>
      <stop offset="0.552" stop-color="#00f2e6"/>
      <stop offset="0.671" stop-color="#26f6d7"/>
      <stop offset="0.816" stop-color="#50fbc8"/>
      <stop offset="0.931" stop-color="#69fdbe"/>
      <stop offset="1" stop-color="#73ffbb"/>
    </linearGradient>
    <clipPath id="clip-path-2">
      <path id="Path_145" data-name="Path 145" d="M302.468,128.253a63.31,63.31,0,0,1,11.911,12.437c8.423,11.585,13.094,25.558,15.425,39.69,4.159,25.212,1.168,51.255-6.024,75.774-7.672,26.155-20.693,51.628-41.9,68.747s-51.658,24.387-76.57,13.326A61.373,61.373,0,0,1,178.1,314.406c-5.8-9.456-8.962-20.978-6.5-31.8,3.177-13.969,14.734-24.18,25.246-33.913,15.544-14.392,30.174-29.942,41.878-47.6,13.776-20.786,23.236-44.535,24.475-69.61.519-10.5,5.14-15.821,16.194-13.885A51.936,51.936,0,0,1,302.468,128.253Z" transform="translate(-170.755 -117.208)" fill="none"/>
    </clipPath>
    <radialGradient id="radial-gradient-3" cx="1.073" cy="1.198" r="2.245" gradientTransform="matrix(-0.845, -0.049, 0.042, -0.999, 13.657, 2.895)" xlink:href="#radial-gradient"/>
    <radialGradient id="radial-gradient-4" cx="0.5" cy="0.5" r="0.663" gradientTransform="matrix(-0.754, 0, 0, -0.754, 11.932, 14.805)" gradientUnits="objectBoundingBox">
      <stop offset="0" stop-color="#009eff"/>
      <stop offset="0.018" stop-color="#09a1ff"/>
      <stop offset="0.134" stop-color="#42b7ff"/>
      <stop offset="0.253" stop-color="#74caff"/>
      <stop offset="0.373" stop-color="#9fdaff"/>
      <stop offset="0.493" stop-color="#c1e7ff"/>
      <stop offset="0.615" stop-color="#dcf1ff"/>
      <stop offset="0.739" stop-color="#eff9ff"/>
      <stop offset="0.866" stop-color="#fbfdff"/>
      <stop offset="1" stop-color="#fff"/>
    </radialGradient>
    <radialGradient id="radial-gradient-5" cx="0.5" cy="0.5" r="0.5" gradientTransform="matrix(0, -1, 1, 0, 3.69, 23.994)" xlink:href="#radial-gradient-4"/>
    <radialGradient id="radial-gradient-6" cx="1.322" cy="0.483" r="1.448" gradientTransform="matrix(0.8, -0.606, 0.61, 0.795, -0.331, 0.836)" xlink:href="#radial-gradient"/>
    <radialGradient id="radial-gradient-7" cx="0.5" cy="0.5" r="0.663" gradientTransform="matrix(0.754, 0, 0, 0.754, 0.748, -0.332)" xlink:href="#radial-gradient-4"/>
    <radialGradient id="radial-gradient-8" cx="0.84" cy="0.907" r="4.707" gradientTransform="matrix(0.715, 0.47, -0.381, 0.883, 0.594, -0.446)" gradientUnits="objectBoundingBox">
      <stop offset="0" stop-color="#00f9e8"/>
      <stop offset="0.313" stop-color="#00b1f9"/>
      <stop offset="0.552" stop-color="#00f2e6"/>
      <stop offset="0.635" stop-color="#2af5e2"/>
      <stop offset="0.76" stop-color="#63f9de"/>
      <stop offset="0.866" stop-color="#8dfcdb"/>
      <stop offset="0.95" stop-color="#a6fed9"/>
      <stop offset="1" stop-color="#b0ffd9"/>
    </radialGradient>
    <radialGradient id="radial-gradient-9" cx="-1.3" cy="-0.078" r="0.928" gradientTransform="matrix(-7.517, 0.581, -5.366, -0.814, -3.885, 2.628)" xlink:href="#radial-gradient"/>
    <radialGradient id="radial-gradient-10" cx="0.922" cy="1.247" r="1.175" gradientTransform="matrix(-5.29, 0.642, -5.192, -0.899, -373.645, 23.332)" xlink:href="#radial-gradient"/>
    <radialGradient id="radial-gradient-11" cx="2.4" cy="0.756" r="4.038" gradientTransform="translate(0)" xlink:href="#radial-gradient"/>
    <radialGradient id="radial-gradient-12" cx="0.5" cy="0.5" r="0.663" gradientTransform="translate(1.836 -1.145) scale(0.754 0.754)" xlink:href="#radial-gradient-4"/>
    <radialGradient id="radial-gradient-13" cx="0.796" cy="-0.439" r="1.434" gradientTransform="matrix(0.682, 0.784, -0.861, 0.621, -0.076, -1.198)" xlink:href="#radial-gradient"/>
    <radialGradient id="radial-gradient-14" cx="2.4" cy="0.756" r="4.038" gradientUnits="objectBoundingBox">
      <stop offset="0" stop-color="#53cdff"/>
      <stop offset="0.552" stop-color="#4efff6"/>
      <stop offset="0.69" stop-color="#7effef"/>
      <stop offset="0.827" stop-color="#a8ffea"/>
      <stop offset="0.935" stop-color="#c1ffe7"/>
      <stop offset="1" stop-color="#cbffe6"/>
    </radialGradient>
    <radialGradient id="radial-gradient-15" cx="2.4" cy="0.756" r="4.038" gradientTransform="matrix(1, 0, 0, 1, 0, 0)" xlink:href="#radial-gradient"/>
    <radialGradient id="radial-gradient-16" cx="2.4" cy="0.756" r="4.038" gradientTransform="translate(0)" xlink:href="#radial-gradient"/>
    <radialGradient id="radial-gradient-17" cx="2.4" cy="0.756" r="4.038" gradientTransform="translate(0)" xlink:href="#radial-gradient"/>
    <radialGradient id="radial-gradient-18" cx="0.5" cy="0.5" r="2.243" gradientTransform="translate(0.389 0.15) scale(0.223 0.223)" gradientUnits="objectBoundingBox">
      <stop offset="0" stop-color="#00b9bf"/>
      <stop offset="0.072" stop-color="#2bc4c9"/>
      <stop offset="0.165" stop-color="#5cd2d6"/>
      <stop offset="0.262" stop-color="#88dee1"/>
      <stop offset="0.363" stop-color="#ace8ea"/>
      <stop offset="0.468" stop-color="#caf0f1"/>
      <stop offset="0.578" stop-color="#e1f7f7"/>
      <stop offset="0.696" stop-color="#f2fbfb"/>
      <stop offset="0.828" stop-color="#fbfefe"/>
      <stop offset="1" stop-color="#fff"/>
    </radialGradient>
    <radialGradient id="radial-gradient-19" cx="0.5" cy="0.5" r="2.243" gradientTransform="translate(0.389 -0.094) scale(0.223 0.223)" gradientUnits="objectBoundingBox">
      <stop offset="0" stop-color="#009eff"/>
      <stop offset="0.072" stop-color="#2baeff"/>
      <stop offset="0.165" stop-color="#5cc1ff"/>
      <stop offset="0.262" stop-color="#88d1ff"/>
      <stop offset="0.363" stop-color="#acdfff"/>
      <stop offset="0.468" stop-color="#caebff"/>
      <stop offset="0.578" stop-color="#e1f3ff"/>
      <stop offset="0.696" stop-color="#f2faff"/>
      <stop offset="0.828" stop-color="#fbfdff"/>
      <stop offset="1" stop-color="#fff"/>
    </radialGradient>
    <filter id="ios-trophy" x="57.981" y="86.98" width="107.973" height="101.052" filterUnits="userSpaceOnUse">
      <feOffset dy="3" input="SourceAlpha"/>
      <feGaussianBlur stdDeviation="3" result="blur"/>
      <feFlood flood-color="#009aea"/>
      <feComposite operator="in" in2="blur"/>
      <feComposite in="SourceGraphic"/>
    </filter>
  </defs>
  <g id="Group_74" data-name="Group 74" transform="translate(-68.019 -188.967)">
    <g id="Group_23" data-name="Group 23" transform="translate(-68.502 71.76)">
      <g id="Group_22" data-name="Group 22" transform="translate(136.521 117.208)">
        <rect id="Rectangle_182" data-name="Rectangle 182" width="2.329" height="67.586" rx="1.164" transform="matrix(0.814, 0.581, -0.581, 0.814, 43.046, 50.568)" opacity="0.6" fill="url(#radial-gradient)"/>
        <rect id="Rectangle_183" data-name="Rectangle 183" width="2.329" height="67.586" rx="1.164" transform="matrix(0.814, 0.581, -0.581, 0.814, 207.967, 173.948)" opacity="0.8" fill="url(#radial-gradient-2)"/>
        <g id="Group_17" data-name="Group 17" transform="translate(0 21.99)" opacity="0.3">
          <g id="Group_16" data-name="Group 16" clip-path="url(#clip-path)">
            <path id="Path_96" data-name="Path 96" d="M178.095,306.291a1.66,1.66,0,1,1-.351-2.322A1.66,1.66,0,0,1,178.095,306.291Zm7.957-2.255a1.649,1.649,0,1,0,.349,2.305A1.649,1.649,0,0,0,186.052,304.037Zm4.151.038a1.637,1.637,0,1,0,.346,2.29A1.637,1.637,0,0,0,190.2,304.075Zm4.172.011a1.66,1.66,0,1,0,.351,2.321A1.661,1.661,0,0,0,194.374,304.086Zm-16.622-4.246a1.626,1.626,0,1,0,.344,2.273A1.625,1.625,0,0,0,177.752,299.84Zm4.165.02a1.637,1.637,0,1,0,.346,2.289A1.638,1.638,0,0,0,181.917,299.86Zm4.151.038a1.626,1.626,0,1,0,.344,2.273A1.626,1.626,0,0,0,186.067,299.9Zm4.164.02a1.637,1.637,0,1,0,.346,2.289A1.637,1.637,0,0,0,190.231,299.918Zm4.144.048a1.614,1.614,0,1,0,.341,2.257A1.614,1.614,0,0,0,194.376,299.966Zm4.151.038a1.6,1.6,0,1,0,.339,2.241A1.6,1.6,0,0,0,198.526,300Zm-24.91-4.341a1.614,1.614,0,1,0,.341,2.257A1.615,1.615,0,0,0,173.617,295.663Zm4.151.038a1.6,1.6,0,1,0,.339,2.241A1.6,1.6,0,0,0,177.767,295.7Zm4.157.029a1.6,1.6,0,1,0,.339,2.241A1.6,1.6,0,0,0,181.925,295.73Zm4.144.048a1.579,1.579,0,1,0,.334,2.208A1.579,1.579,0,0,0,186.069,295.778Zm4.171.011a1.6,1.6,0,1,0,.339,2.241A1.6,1.6,0,0,0,190.24,295.788Zm4.151.038a1.591,1.591,0,1,0,.337,2.225A1.592,1.592,0,0,0,194.391,295.826Zm4.165.02a1.6,1.6,0,1,0,.339,2.241A1.6,1.6,0,0,0,198.555,295.846Zm4.144.048a1.58,1.58,0,1,0,.334,2.209A1.58,1.58,0,0,0,202.7,295.893Zm-37.383-4.428a1.591,1.591,0,1,0,.337,2.225A1.591,1.591,0,0,0,165.316,291.466Zm4.158.028a1.591,1.591,0,1,0,.337,2.225A1.592,1.592,0,0,0,169.474,291.494Zm4.143.048a1.568,1.568,0,1,0,.332,2.193A1.568,1.568,0,0,0,173.618,291.542Zm4.172.011a1.591,1.591,0,1,0,.336,2.225A1.591,1.591,0,0,0,177.79,291.552Zm4.143.048a1.568,1.568,0,1,0,.332,2.193A1.568,1.568,0,0,0,181.933,291.6Zm4.151.038a1.557,1.557,0,1,0,.329,2.177A1.556,1.556,0,0,0,186.084,291.638Zm4.158.029a1.557,1.557,0,1,0,.329,2.177A1.557,1.557,0,0,0,190.242,291.667Zm4.151.038a1.545,1.545,0,1,0,.327,2.161A1.546,1.546,0,0,0,194.393,291.706Zm4.171.011a1.568,1.568,0,1,0,.332,2.192A1.568,1.568,0,0,0,198.564,291.716Zm4.151.038a1.557,1.557,0,1,0,.329,2.177A1.556,1.556,0,0,0,202.715,291.755Zm-37.376-4.438a1.579,1.579,0,1,0,.334,2.209A1.58,1.58,0,0,0,165.339,287.317Zm4.151.038a1.568,1.568,0,1,0,.331,2.192A1.568,1.568,0,0,0,169.49,287.355Zm4.144.048a1.545,1.545,0,1,0,.327,2.16A1.546,1.546,0,0,0,173.634,287.4Zm4.157.029a1.545,1.545,0,1,0,.327,2.16A1.544,1.544,0,0,0,177.791,287.432Zm4.151.038a1.533,1.533,0,1,0,.325,2.144A1.533,1.533,0,0,0,181.942,287.47Zm4.165.02a1.545,1.545,0,1,0,.327,2.16A1.544,1.544,0,0,0,186.106,287.49Zm4.151.038a1.533,1.533,0,1,0,.324,2.144A1.533,1.533,0,0,0,190.257,287.529Zm4.165.02a1.545,1.545,0,1,0,.327,2.16A1.545,1.545,0,0,0,194.422,287.548Zm4.144.048a1.522,1.522,0,1,0,.321,2.128A1.521,1.521,0,0,0,198.566,287.6Zm4.151.038a1.51,1.51,0,1,0,.319,2.112A1.51,1.51,0,0,0,202.717,287.634Zm4.164.02a1.522,1.522,0,1,0,.322,2.128A1.521,1.521,0,0,0,206.881,287.654Zm-45.691-4.5a1.545,1.545,0,1,0,.327,2.16A1.544,1.544,0,0,0,161.19,283.158Zm4.158.029a1.545,1.545,0,1,0,.327,2.16A1.545,1.545,0,0,0,165.348,283.187Zm4.144.048a1.522,1.522,0,1,0,.321,2.128A1.521,1.521,0,0,0,169.492,283.235Zm4.164.02a1.533,1.533,0,1,0,.325,2.144A1.533,1.533,0,0,0,173.656,283.255Zm4.151.038a1.522,1.522,0,1,0,.322,2.128A1.521,1.521,0,0,0,177.806,283.293Zm4.151.038a1.51,1.51,0,1,0,.32,2.112A1.51,1.51,0,0,0,181.957,283.332Zm4.158.029a1.51,1.51,0,1,0,.319,2.112A1.51,1.51,0,0,0,186.115,283.361Zm4.144.048a1.487,1.487,0,1,0,.314,2.079A1.487,1.487,0,0,0,190.259,283.408Zm4.171.01a1.511,1.511,0,1,0,.319,2.112A1.511,1.511,0,0,0,194.43,283.418Zm4.151.038a1.5,1.5,0,1,0,.317,2.1A1.5,1.5,0,0,0,198.581,283.457Zm4.165.02a1.511,1.511,0,1,0,.319,2.112A1.512,1.512,0,0,0,202.746,283.476Zm4.143.048a1.488,1.488,0,1,0,.315,2.08A1.487,1.487,0,0,0,206.889,283.524Zm-49.842-4.534a1.522,1.522,0,1,0,.322,2.128A1.521,1.521,0,0,0,157.047,278.99Zm4.165.02a1.533,1.533,0,1,0,.324,2.144A1.533,1.533,0,0,0,161.212,279.01Zm4.151.038a1.522,1.522,0,1,0,.322,2.128A1.523,1.523,0,0,0,165.363,279.048Zm4.144.048a1.5,1.5,0,1,0,.317,2.1A1.5,1.5,0,0,0,169.507,279.1Zm4.157.029a1.5,1.5,0,1,0,.317,2.1A1.5,1.5,0,0,0,173.664,279.125Zm4.151.038a1.488,1.488,0,1,0,.315,2.08A1.487,1.487,0,0,0,177.815,279.163Zm4.158.029a1.487,1.487,0,1,0,.314,2.08A1.488,1.488,0,0,0,181.973,279.192Zm4.151.038a1.476,1.476,0,1,0,.312,2.063A1.476,1.476,0,0,0,186.124,279.23Zm4.151.038a1.464,1.464,0,1,0,.309,2.048A1.464,1.464,0,0,0,190.274,279.269Zm4.157.029a1.464,1.464,0,1,0,.31,2.048A1.464,1.464,0,0,0,194.432,279.3Zm4.151.038a1.453,1.453,0,1,0,.307,2.031A1.452,1.452,0,0,0,198.582,279.336Zm4.171.011a1.476,1.476,0,1,0,.312,2.063A1.476,1.476,0,0,0,202.754,279.347Zm4.151.038a1.464,1.464,0,1,0,.31,2.048A1.464,1.464,0,0,0,206.9,279.385Zm-49.842-4.534a1.5,1.5,0,1,0,.317,2.1A1.5,1.5,0,0,0,157.063,274.851Zm4.158.029a1.5,1.5,0,1,0,.317,2.1A1.5,1.5,0,0,0,161.221,274.88Zm4.144.048a1.476,1.476,0,1,0,.312,2.063A1.477,1.477,0,0,0,165.365,274.928Zm4.164.02a1.487,1.487,0,1,0,.315,2.08A1.487,1.487,0,0,0,169.529,274.947Zm4.151.038a1.476,1.476,0,1,0,.312,2.063A1.476,1.476,0,0,0,173.679,274.986Zm4.144.048a1.453,1.453,0,1,0,.307,2.031A1.452,1.452,0,0,0,177.824,275.033Zm4.158.029a1.453,1.453,0,1,0,.307,2.031A1.453,1.453,0,0,0,181.982,275.063Zm4.151.038a1.441,1.441,0,1,0,.3,2.015A1.441,1.441,0,0,0,186.132,275.1Zm4.164.02a1.453,1.453,0,1,0,.307,2.031A1.452,1.452,0,0,0,190.3,275.121Zm4.151.038a1.441,1.441,0,1,0,.3,2.015A1.441,1.441,0,0,0,194.447,275.159Zm4.151.038a1.43,1.43,0,1,0,.3,2A1.43,1.43,0,0,0,198.6,275.2Zm4.157.029a1.43,1.43,0,1,0,.3,2A1.43,1.43,0,0,0,202.756,275.226Zm4.151.038a1.418,1.418,0,1,0,.3,1.983A1.418,1.418,0,0,0,206.906,275.265Zm-53.979-4.591a1.487,1.487,0,1,0,.314,2.079A1.488,1.488,0,0,0,152.928,270.674Zm4.157.029a1.487,1.487,0,1,0,.315,2.079A1.488,1.488,0,0,0,157.085,270.7Zm4.151.038a1.476,1.476,0,1,0,.312,2.063A1.475,1.475,0,0,0,161.236,270.741Zm4.144.048a1.453,1.453,0,1,0,.307,2.031A1.454,1.454,0,0,0,165.38,270.789Zm4.157.029a1.453,1.453,0,1,0,.307,2.031A1.453,1.453,0,0,0,169.537,270.818Zm4.144.048a1.43,1.43,0,1,0,.3,2A1.43,1.43,0,0,0,173.681,270.865Zm4.165.02a1.441,1.441,0,1,0,.3,2.015A1.441,1.441,0,0,0,177.846,270.885Zm4.151.038a1.43,1.43,0,1,0,.3,2A1.43,1.43,0,0,0,182,270.924Zm4.144.048a1.406,1.406,0,1,0,.3,1.966A1.406,1.406,0,0,0,186.141,270.971ZM190.3,271a1.406,1.406,0,1,0,.3,1.966A1.407,1.407,0,0,0,190.3,271Zm4.151.038a1.4,1.4,0,1,0,.295,1.951A1.395,1.395,0,0,0,194.449,271.038Zm4.171.011a1.418,1.418,0,1,0,.3,1.983A1.418,1.418,0,0,0,198.62,271.049Zm4.151.038a1.407,1.407,0,1,0,.3,1.967A1.407,1.407,0,0,0,202.771,271.087Zm4.165.02a1.418,1.418,0,1,0,.3,1.983A1.418,1.418,0,0,0,206.935,271.107Zm-54-4.563a1.453,1.453,0,1,0,.307,2.031A1.452,1.452,0,0,0,152.936,266.544Zm4.158.029a1.453,1.453,0,1,0,.307,2.031A1.452,1.452,0,0,0,157.094,266.573Zm4.151.038a1.441,1.441,0,1,0,.3,2.016A1.441,1.441,0,0,0,161.244,266.611Zm4.157.029a1.441,1.441,0,1,0,.3,2.015A1.441,1.441,0,0,0,165.4,266.64Zm4.144.048a1.418,1.418,0,1,0,.3,1.983A1.418,1.418,0,0,0,169.546,266.688Zm4.151.038a1.407,1.407,0,1,0,.3,1.967A1.407,1.407,0,0,0,173.7,266.726Zm4.158.029a1.407,1.407,0,1,0,.3,1.967A1.407,1.407,0,0,0,177.855,266.755Zm4.151.038a1.4,1.4,0,1,0,.295,1.951A1.4,1.4,0,0,0,182.005,266.793Zm4.157.029a1.4,1.4,0,1,0,.295,1.951A1.395,1.395,0,0,0,186.163,266.823Zm4.151.038a1.384,1.384,0,1,0,.293,1.935A1.384,1.384,0,0,0,190.313,266.861Zm4.151.038a1.372,1.372,0,1,0,.29,1.919A1.372,1.372,0,0,0,194.464,266.9Zm4.158.029a1.372,1.372,0,1,0,.29,1.919A1.373,1.373,0,0,0,198.622,266.928Zm4.151.038a1.361,1.361,0,1,0,.288,1.9A1.362,1.362,0,0,0,202.773,266.967Zm4.171.011a1.384,1.384,0,1,0,.292,1.935A1.383,1.383,0,0,0,206.944,266.977ZM148.8,262.366a1.441,1.441,0,1,0,.3,2.015A1.441,1.441,0,0,0,148.8,262.366Zm4.164.02a1.453,1.453,0,1,0,.307,2.032A1.452,1.452,0,0,0,152.965,262.386Zm4.144.048a1.43,1.43,0,1,0,.3,2A1.429,1.429,0,0,0,157.109,262.434Zm4.144.048a1.407,1.407,0,1,0,.3,1.967A1.407,1.407,0,0,0,161.253,262.481Zm4.157.029a1.407,1.407,0,1,0,.3,1.967A1.407,1.407,0,0,0,165.41,262.51Zm4.144.048a1.384,1.384,0,1,0,.293,1.935A1.383,1.383,0,0,0,169.554,262.558Zm4.165.02a1.4,1.4,0,1,0,.295,1.951A1.4,1.4,0,0,0,173.719,262.578Zm4.143.048a1.372,1.372,0,1,0,.29,1.919A1.371,1.371,0,0,0,177.863,262.626Zm4.151.038a1.361,1.361,0,1,0,.288,1.9A1.361,1.361,0,0,0,182.014,262.664Zm4.157.029a1.36,1.36,0,1,0,.288,1.9A1.36,1.36,0,0,0,186.171,262.693Zm4.151.038a1.349,1.349,0,1,0,.286,1.886A1.349,1.349,0,0,0,190.322,262.731Zm4.165.02a1.36,1.36,0,1,0,.288,1.9A1.36,1.36,0,0,0,194.487,262.751Zm4.151.038a1.349,1.349,0,1,0,.285,1.886A1.349,1.349,0,0,0,198.637,262.789Zm4.151.038a1.337,1.337,0,1,0,.283,1.87A1.338,1.338,0,0,0,202.788,262.828Zm4.165.02a1.349,1.349,0,1,0,.285,1.886A1.349,1.349,0,0,0,206.953,262.848Zm4.143.048a1.326,1.326,0,1,0,.281,1.854A1.325,1.325,0,0,0,211.1,262.9Zm-62.28-4.668a1.418,1.418,0,1,0,.3,1.983A1.418,1.418,0,0,0,148.816,258.228Zm4.157.029a1.418,1.418,0,1,0,.3,1.983A1.418,1.418,0,0,0,152.973,258.257Zm4.144.048a1.4,1.4,0,1,0,.295,1.95A1.394,1.394,0,0,0,157.117,258.3Zm4.157.029a1.395,1.395,0,1,0,.3,1.95A1.394,1.394,0,0,0,161.275,258.333Zm4.144.048a1.372,1.372,0,1,0,.29,1.918A1.372,1.372,0,0,0,165.419,258.381Zm4.144.048a1.349,1.349,0,1,0,.285,1.886A1.349,1.349,0,0,0,169.563,258.428Zm4.157.029a1.349,1.349,0,1,0,.286,1.886A1.349,1.349,0,0,0,173.72,258.458Zm4.151.038a1.337,1.337,0,1,0,.283,1.87A1.337,1.337,0,0,0,177.871,258.5Zm4.165.02a1.349,1.349,0,1,0,.286,1.886A1.349,1.349,0,0,0,182.036,258.516Zm4.151.038a1.337,1.337,0,1,0,.283,1.87A1.337,1.337,0,0,0,186.186,258.554Zm4.144.048a1.314,1.314,0,1,0,.278,1.837A1.314,1.314,0,0,0,190.331,258.6Zm4.171.01a1.338,1.338,0,1,0,.283,1.87A1.337,1.337,0,0,0,194.5,258.612Zm4.137.058a1.3,1.3,0,1,0,.276,1.821A1.3,1.3,0,0,0,198.639,258.669Zm4.172.01a1.326,1.326,0,1,0,.28,1.855A1.327,1.327,0,0,0,202.811,258.679Zm4.151.038a1.314,1.314,0,1,0,.278,1.838A1.315,1.315,0,0,0,206.961,258.717Zm-62.281-4.667a1.406,1.406,0,1,0,.3,1.966A1.406,1.406,0,0,0,144.681,254.05Zm4.157.028a1.406,1.406,0,1,0,.3,1.967A1.407,1.407,0,0,0,148.838,254.079Zm4.144.048a1.384,1.384,0,1,0,.293,1.935A1.384,1.384,0,0,0,152.982,254.126Zm4.144.048a1.36,1.36,0,1,0,.288,1.9A1.36,1.36,0,0,0,157.126,254.175Zm4.157.028a1.361,1.361,0,1,0,.288,1.9A1.36,1.36,0,0,0,161.283,254.2Zm4.144.048a1.337,1.337,0,1,0,.283,1.87A1.336,1.336,0,0,0,165.428,254.251Zm4.165.019a1.349,1.349,0,1,0,.285,1.886A1.349,1.349,0,0,0,169.592,254.271Zm4.144.048a1.326,1.326,0,1,0,.28,1.855A1.327,1.327,0,0,0,173.736,254.318Zm4.143.048a1.3,1.3,0,1,0,.276,1.822A1.3,1.3,0,0,0,177.88,254.366Zm4.158.029a1.3,1.3,0,1,0,.275,1.822A1.3,1.3,0,0,0,182.038,254.395Zm4.151.038a1.291,1.291,0,1,0,.273,1.806A1.291,1.291,0,0,0,186.188,254.433Zm4.165.02a1.3,1.3,0,1,0,.275,1.822A1.3,1.3,0,0,0,190.353,254.453Zm4.151.038a1.291,1.291,0,1,0,.273,1.806A1.291,1.291,0,0,0,194.5,254.491Zm4.151.038a1.28,1.28,0,1,0,.27,1.79A1.28,1.28,0,0,0,198.655,254.53Zm4.171.011a1.3,1.3,0,1,0,.275,1.821A1.3,1.3,0,0,0,202.826,254.54Zm4.137.057a1.268,1.268,0,1,0,.268,1.773A1.268,1.268,0,0,0,206.963,254.6Zm4.171.011a1.291,1.291,0,1,0,.273,1.806A1.291,1.291,0,0,0,211.134,254.608Zm-66.445-4.688a1.372,1.372,0,1,0,.29,1.919A1.373,1.373,0,0,0,144.689,249.92Zm4.157.029a1.372,1.372,0,1,0,.29,1.919A1.372,1.372,0,0,0,148.846,249.949Zm4.144.048a1.349,1.349,0,1,0,.286,1.886A1.349,1.349,0,0,0,152.991,250Zm4.157.029a1.349,1.349,0,1,0,.286,1.886A1.349,1.349,0,0,0,157.148,250.026Zm4.151.038a1.337,1.337,0,1,0,.282,1.87A1.338,1.338,0,0,0,161.3,250.064Zm4.143.048a1.314,1.314,0,1,0,.278,1.838A1.314,1.314,0,0,0,165.443,250.112Zm4.158.029a1.314,1.314,0,1,0,.278,1.838A1.315,1.315,0,0,0,169.6,250.141Zm4.143.048a1.291,1.291,0,1,0,.273,1.806A1.292,1.292,0,0,0,173.744,250.189Zm4.165.02a1.3,1.3,0,1,0,.276,1.821A1.3,1.3,0,0,0,177.909,250.208Zm4.144.048a1.28,1.28,0,1,0,.27,1.79A1.28,1.28,0,0,0,182.053,250.256Zm4.151.038a1.268,1.268,0,1,0,.268,1.773A1.268,1.268,0,0,0,186.2,250.294Zm4.165.02a1.28,1.28,0,1,0,.27,1.789A1.281,1.281,0,0,0,190.368,250.314Zm4.143.048a1.257,1.257,0,1,0,.266,1.757A1.256,1.256,0,0,0,194.512,250.362Zm4.165.02a1.268,1.268,0,1,0,.268,1.773A1.268,1.268,0,0,0,198.676,250.382Zm4.151.038a1.256,1.256,0,1,0,.266,1.757A1.257,1.257,0,0,0,202.827,250.42Zm4.151.038a1.245,1.245,0,1,0,.264,1.741A1.244,1.244,0,0,0,206.978,250.458Zm-66.417-4.725a1.372,1.372,0,1,0,.29,1.919A1.372,1.372,0,0,0,140.561,245.734Zm4.143.048a1.349,1.349,0,1,0,.286,1.886A1.349,1.349,0,0,0,144.7,245.781Zm4.158.029a1.349,1.349,0,1,0,.285,1.886A1.349,1.349,0,0,0,148.862,245.81Zm4.143.048a1.326,1.326,0,1,0,.28,1.854A1.326,1.326,0,0,0,153.006,245.858Zm4.158.029a1.326,1.326,0,1,0,.28,1.854A1.326,1.326,0,0,0,157.164,245.887Zm4.143.048a1.3,1.3,0,1,0,.276,1.821A1.3,1.3,0,0,0,161.307,245.935Zm4.158.029a1.3,1.3,0,1,0,.276,1.821A1.3,1.3,0,0,0,165.465,245.964Zm4.144.048a1.28,1.28,0,1,0,.27,1.789A1.28,1.28,0,0,0,169.609,246.011Zm4.143.048a1.256,1.256,0,1,0,.266,1.757A1.257,1.257,0,0,0,173.753,246.059Zm4.165.02a1.268,1.268,0,1,0,.268,1.773A1.268,1.268,0,0,0,177.917,246.079Zm4.144.048a1.245,1.245,0,1,0,.263,1.741A1.245,1.245,0,0,0,182.062,246.126Zm4.165.02a1.257,1.257,0,1,0,.266,1.757A1.257,1.257,0,0,0,186.226,246.146Zm4.151.038a1.245,1.245,0,1,0,.263,1.741A1.245,1.245,0,0,0,190.377,246.185Zm4.143.048a1.222,1.222,0,1,0,.259,1.708A1.222,1.222,0,0,0,194.52,246.232Zm4.171.01a1.245,1.245,0,1,0,.264,1.741A1.245,1.245,0,0,0,198.692,246.242Zm4.138.057a1.211,1.211,0,1,0,.256,1.693A1.21,1.21,0,0,0,202.829,246.3Zm4.171.011a1.234,1.234,0,1,0,.261,1.725A1.234,1.234,0,0,0,207,246.31Zm4.151.038a1.222,1.222,0,1,0,.259,1.709A1.223,1.223,0,0,0,211.151,246.348ZM140.569,241.6a1.337,1.337,0,1,0,.283,1.87A1.337,1.337,0,0,0,140.569,241.6Zm4.158.029a1.337,1.337,0,1,0,.283,1.87A1.338,1.338,0,0,0,144.727,241.633Zm4.143.048a1.314,1.314,0,1,0,.278,1.837A1.313,1.313,0,0,0,148.87,241.681Zm4.144.048a1.291,1.291,0,1,0,.273,1.806A1.29,1.29,0,0,0,153.014,241.728Zm4.158.029a1.291,1.291,0,1,0,.273,1.8A1.291,1.291,0,0,0,157.172,241.757Zm4.143.048a1.268,1.268,0,1,0,.268,1.773A1.268,1.268,0,0,0,161.316,241.805Zm4.158.028a1.268,1.268,0,1,0,.268,1.774A1.268,1.268,0,0,0,165.474,241.834Zm4.143.048a1.245,1.245,0,1,0,.264,1.741A1.245,1.245,0,0,0,169.617,241.881Zm4.165.02a1.257,1.257,0,1,0,.266,1.757A1.257,1.257,0,0,0,173.782,241.9Zm4.144.048a1.234,1.234,0,1,0,.261,1.725A1.234,1.234,0,0,0,177.926,241.949Zm4.144.048a1.211,1.211,0,1,0,.256,1.693A1.212,1.212,0,0,0,182.07,242Zm4.164.02a1.222,1.222,0,1,0,.259,1.709A1.221,1.221,0,0,0,186.234,242.016Zm4.144.048a1.2,1.2,0,1,0,.254,1.677A1.2,1.2,0,0,0,190.378,242.064Zm4.165.02a1.211,1.211,0,1,0,.256,1.693A1.21,1.21,0,0,0,194.543,242.083Zm4.151.038a1.2,1.2,0,1,0,.254,1.677A1.2,1.2,0,0,0,198.694,242.122Zm4.151.038a1.187,1.187,0,1,0,.251,1.661A1.187,1.187,0,0,0,202.844,242.16Zm4.171.011a1.21,1.21,0,1,0,.256,1.693A1.21,1.21,0,0,0,207.015,242.171Zm4.138.057a1.176,1.176,0,1,0,.249,1.644A1.176,1.176,0,0,0,211.153,242.228Zm-70.576-4.754a1.3,1.3,0,1,0,.276,1.822A1.3,1.3,0,0,0,140.577,237.474Zm4.165.02a1.314,1.314,0,1,0,.278,1.838A1.315,1.315,0,0,0,144.742,237.494Zm4.137.057a1.28,1.28,0,1,0,.271,1.79A1.279,1.279,0,0,0,148.879,237.551Zm4.158.029a1.28,1.28,0,1,0,.27,1.79A1.28,1.28,0,0,0,153.037,237.58Zm4.143.048a1.257,1.257,0,1,0,.266,1.757A1.256,1.256,0,0,0,157.18,237.627Zm4.158.029a1.257,1.257,0,1,0,.266,1.757A1.257,1.257,0,0,0,161.338,237.656Zm4.151.038a1.245,1.245,0,1,0,.263,1.741A1.245,1.245,0,0,0,165.489,237.695Zm4.137.057a1.211,1.211,0,1,0,.257,1.693A1.21,1.21,0,0,0,169.626,237.752Zm4.165.02a1.222,1.222,0,1,0,.259,1.709A1.222,1.222,0,0,0,173.79,237.771Zm4.144.048a1.2,1.2,0,1,0,.253,1.677A1.2,1.2,0,0,0,177.935,237.819Zm4.165.02a1.21,1.21,0,1,0,.256,1.693A1.211,1.211,0,0,0,182.1,237.839Zm4.143.048a1.187,1.187,0,1,0,.251,1.661A1.187,1.187,0,0,0,186.243,237.886Zm4.151.038a1.176,1.176,0,1,0,.249,1.644A1.176,1.176,0,0,0,190.393,237.925Zm4.165.02a1.187,1.187,0,1,0,.251,1.66A1.187,1.187,0,0,0,194.558,237.945Zm4.144.048a1.164,1.164,0,1,0,.246,1.628A1.165,1.165,0,0,0,198.7,237.992Zm4.165.02a1.176,1.176,0,1,0,.249,1.644A1.175,1.175,0,0,0,202.867,238.012Zm4.151.038a1.165,1.165,0,1,0,.246,1.628A1.164,1.164,0,0,0,207.017,238.05Zm-70.568-4.763a1.3,1.3,0,1,0,.275,1.821A1.3,1.3,0,0,0,136.449,233.287Zm4.157.029a1.3,1.3,0,1,0,.276,1.821A1.3,1.3,0,0,0,140.606,233.317Zm4.144.048a1.28,1.28,0,1,0,.27,1.789A1.28,1.28,0,0,0,144.751,233.364Zm4.144.048a1.257,1.257,0,1,0,.266,1.757A1.257,1.257,0,0,0,148.895,233.412Zm4.157.029a1.257,1.257,0,1,0,.266,1.757A1.257,1.257,0,0,0,153.052,233.441Zm4.137.057a1.222,1.222,0,1,0,.259,1.709A1.221,1.221,0,0,0,157.189,233.5Zm4.165.02a1.233,1.233,0,1,0,.261,1.725A1.234,1.234,0,0,0,161.354,233.518Zm4.144.048a1.21,1.21,0,1,0,.256,1.693A1.21,1.21,0,0,0,165.5,233.565Zm4.157.029a1.21,1.21,0,1,0,.256,1.693A1.21,1.21,0,0,0,169.655,233.594Zm4.144.048a1.187,1.187,0,1,0,.251,1.66A1.188,1.188,0,0,0,173.8,233.642Zm4.144.048a1.165,1.165,0,1,0,.246,1.628A1.165,1.165,0,0,0,177.943,233.689Zm4.165.02a1.176,1.176,0,1,0,.249,1.644A1.176,1.176,0,0,0,182.108,233.709Zm4.143.048a1.153,1.153,0,1,0,.244,1.612A1.152,1.152,0,0,0,186.251,233.757Zm4.165.02a1.164,1.164,0,1,0,.246,1.628A1.164,1.164,0,0,0,190.416,233.777Zm4.144.048a1.141,1.141,0,1,0,.241,1.6A1.141,1.141,0,0,0,194.56,233.824Zm4.151.038a1.13,1.13,0,1,0,.239,1.579A1.129,1.129,0,0,0,198.711,233.863Zm4.171.01a1.153,1.153,0,1,0,.244,1.613A1.153,1.153,0,0,0,202.882,233.873Zm4.137.057a1.118,1.118,0,1,0,.237,1.564A1.118,1.118,0,0,0,207.019,233.929Zm4.171.011a1.141,1.141,0,1,0,.241,1.6A1.142,1.142,0,0,0,211.19,233.94Zm-74.726-4.791a1.28,1.28,0,1,0,.27,1.789A1.28,1.28,0,0,0,136.464,229.149Zm4.157.029a1.28,1.28,0,1,0,.271,1.789A1.279,1.279,0,0,0,140.622,229.178Zm4.144.048a1.256,1.256,0,1,0,.266,1.757A1.257,1.257,0,0,0,144.766,229.225Zm4.158.029a1.256,1.256,0,1,0,.265,1.757A1.257,1.257,0,0,0,148.924,229.254Zm4.137.057a1.222,1.222,0,1,0,.259,1.708A1.223,1.223,0,0,0,153.061,229.311Zm4.144.048a1.2,1.2,0,1,0,.253,1.676A1.2,1.2,0,0,0,157.2,229.359Zm4.157.029a1.2,1.2,0,1,0,.254,1.676A1.2,1.2,0,0,0,161.362,229.388Zm4.144.048a1.176,1.176,0,1,0,.249,1.644A1.175,1.175,0,0,0,165.506,229.436Zm4.157.028a1.176,1.176,0,1,0,.249,1.645A1.176,1.176,0,0,0,169.664,229.464Zm4.144.048a1.153,1.153,0,1,0,.244,1.613A1.153,1.153,0,0,0,173.808,229.512Zm4.165.02a1.165,1.165,0,1,0,.246,1.628A1.165,1.165,0,0,0,177.972,229.531Zm4.143.048a1.141,1.141,0,1,0,.241,1.6A1.142,1.142,0,0,0,182.116,229.579Zm4.144.048a1.118,1.118,0,1,0,.237,1.564A1.118,1.118,0,0,0,186.26,229.627Zm4.165.02a1.13,1.13,0,1,0,.239,1.58A1.13,1.13,0,0,0,190.424,229.646Zm4.144.048a1.107,1.107,0,1,0,.234,1.548A1.107,1.107,0,0,0,194.569,229.694Zm4.164.02a1.118,1.118,0,1,0,.237,1.564A1.118,1.118,0,0,0,198.733,229.714Zm4.151.038a1.107,1.107,0,1,0,.234,1.548A1.106,1.106,0,0,0,202.883,229.752Zm4.151.038a1.1,1.1,0,1,0,.231,1.531A1.1,1.1,0,0,0,207.035,229.791Zm4.171.011a1.118,1.118,0,1,0,.236,1.564A1.119,1.119,0,0,0,211.206,229.8Zm-78.87-4.84a1.28,1.28,0,1,0,.271,1.79A1.279,1.279,0,0,0,132.335,224.962Zm4.158.029a1.28,1.28,0,1,0,.27,1.79A1.28,1.28,0,0,0,136.493,224.991Zm4.144.048a1.257,1.257,0,1,0,.266,1.757A1.257,1.257,0,0,0,140.638,225.038Zm4.137.057a1.222,1.222,0,1,0,.259,1.709A1.222,1.222,0,0,0,144.774,225.1Zm4.157.029a1.222,1.222,0,1,0,.259,1.709A1.221,1.221,0,0,0,148.932,225.124Zm4.138.057a1.188,1.188,0,1,0,.251,1.661A1.189,1.189,0,0,0,153.069,225.181Zm4.165.02a1.2,1.2,0,1,0,.253,1.677A1.2,1.2,0,0,0,157.234,225.2Zm4.137.057a1.164,1.164,0,1,0,.246,1.628A1.165,1.165,0,0,0,161.371,225.258Zm4.144.048a1.141,1.141,0,1,0,.241,1.6A1.141,1.141,0,0,0,165.515,225.305Zm4.157.029a1.141,1.141,0,1,0,.241,1.6A1.142,1.142,0,0,0,169.672,225.334Zm4.144.048a1.118,1.118,0,1,0,.236,1.564A1.118,1.118,0,0,0,173.816,225.382Zm4.165.02a1.13,1.13,0,1,0,.239,1.58A1.131,1.131,0,0,0,177.981,225.4Zm4.143.048a1.107,1.107,0,1,0,.234,1.548A1.107,1.107,0,0,0,182.124,225.449Zm4.165.02a1.118,1.118,0,1,0,.237,1.564A1.118,1.118,0,0,0,186.289,225.469Zm4.144.048a1.1,1.1,0,1,0,.231,1.531A1.1,1.1,0,0,0,190.433,225.517Zm4.144.048a1.072,1.072,0,1,0,.226,1.5A1.072,1.072,0,0,0,194.577,225.565Zm4.171.011a1.1,1.1,0,1,0,.231,1.531A1.1,1.1,0,0,0,198.748,225.575Zm4.143.048a1.072,1.072,0,1,0,.227,1.5A1.071,1.071,0,0,0,202.892,225.623Zm4.165.02a1.083,1.083,0,1,0,.229,1.515A1.084,1.084,0,0,0,207.056,225.643Zm4.151.038a1.072,1.072,0,1,0,.227,1.5A1.072,1.072,0,0,0,211.207,225.681Zm-78.856-4.858a1.257,1.257,0,1,0,.266,1.757A1.257,1.257,0,0,0,132.351,220.823Zm4.157.029a1.257,1.257,0,1,0,.266,1.757A1.257,1.257,0,0,0,136.509,220.852Zm4.138.057a1.222,1.222,0,1,0,.258,1.709A1.222,1.222,0,0,0,140.646,220.909Zm4.157.029a1.222,1.222,0,1,0,.259,1.709A1.222,1.222,0,0,0,144.8,220.938Zm4.137.057a1.187,1.187,0,1,0,.251,1.66A1.187,1.187,0,0,0,148.94,220.995Zm4.144.048a1.164,1.164,0,1,0,.246,1.628A1.165,1.165,0,0,0,153.084,221.042Zm4.157.029a1.164,1.164,0,1,0,.247,1.628A1.164,1.164,0,0,0,157.242,221.071Zm4.137.057a1.13,1.13,0,1,0,.239,1.58A1.13,1.13,0,0,0,161.379,221.128Zm4.165.02a1.141,1.141,0,1,0,.241,1.6A1.141,1.141,0,0,0,165.544,221.148Zm4.137.057a1.107,1.107,0,1,0,.234,1.548A1.107,1.107,0,0,0,169.681,221.2Zm4.165.02a1.118,1.118,0,1,0,.236,1.564A1.118,1.118,0,0,0,173.845,221.225Zm4.143.048a1.1,1.1,0,1,0,.232,1.531A1.1,1.1,0,0,0,177.989,221.272Zm4.144.048a1.072,1.072,0,1,0,.227,1.5A1.072,1.072,0,0,0,182.133,221.32Zm4.165.02a1.084,1.084,0,1,0,.229,1.515A1.083,1.083,0,0,0,186.3,221.34Zm4.144.048a1.061,1.061,0,1,0,.224,1.483A1.061,1.061,0,0,0,190.442,221.387Zm4.164.02a1.072,1.072,0,1,0,.227,1.5A1.071,1.071,0,0,0,194.606,221.407Zm4.144.048a1.049,1.049,0,1,0,.222,1.466A1.049,1.049,0,0,0,198.75,221.455Zm4.151.038a1.038,1.038,0,1,0,.22,1.451A1.038,1.038,0,0,0,202.9,221.492Zm4.171.011a1.061,1.061,0,1,0,.225,1.484A1.061,1.061,0,0,0,207.072,221.5Zm4.138.057a1.026,1.026,0,1,0,.217,1.435A1.027,1.027,0,0,0,211.209,221.56Zm4.171.011a1.049,1.049,0,1,0,.221,1.467A1.049,1.049,0,0,0,215.38,221.57Zm-78.863-4.848a1.222,1.222,0,1,0,.258,1.708A1.223,1.223,0,0,0,136.517,216.722Zm4.137.057a1.187,1.187,0,1,0,.251,1.66A1.187,1.187,0,0,0,140.654,216.779Zm4.158.029a1.187,1.187,0,1,0,.251,1.66A1.188,1.188,0,0,0,144.812,216.808Zm4.144.048a1.165,1.165,0,1,0,.246,1.628A1.164,1.164,0,0,0,148.956,216.856Zm4.157.028a1.165,1.165,0,1,0,.246,1.628A1.165,1.165,0,0,0,153.114,216.884Zm4.137.058a1.13,1.13,0,1,0,.239,1.579A1.129,1.129,0,0,0,157.25,216.942Zm4.144.047a1.107,1.107,0,1,0,.234,1.548A1.107,1.107,0,0,0,161.395,216.989Zm4.157.029a1.107,1.107,0,1,0,.234,1.548A1.107,1.107,0,0,0,165.552,217.018Zm4.144.048a1.084,1.084,0,1,0,.229,1.516A1.084,1.084,0,0,0,169.7,217.065Zm4.158.029a1.084,1.084,0,1,0,.229,1.515A1.084,1.084,0,0,0,173.854,217.094Zm4.143.048a1.061,1.061,0,1,0,.225,1.484A1.061,1.061,0,0,0,178,217.142Zm4.165.02a1.072,1.072,0,1,0,.227,1.5A1.073,1.073,0,0,0,182.162,217.162Zm4.144.048a1.049,1.049,0,1,0,.221,1.467A1.049,1.049,0,0,0,186.306,217.209Zm4.144.048a1.026,1.026,0,1,0,.217,1.435A1.028,1.028,0,0,0,190.45,217.257Zm4.164.02a1.038,1.038,0,1,0,.22,1.451A1.037,1.037,0,0,0,194.614,217.277Zm4.144.048a1.014,1.014,0,1,0,.215,1.419A1.015,1.015,0,0,0,198.758,217.325Zm4.165.02a1.026,1.026,0,1,0,.217,1.435A1.026,1.026,0,0,0,202.923,217.344Zm4.151.038a1.014,1.014,0,1,0,.214,1.419A1.015,1.015,0,0,0,207.074,217.383Zm4.151.038a1,1,0,1,0,.212,1.4A1,1,0,0,0,211.224,217.421Zm-78.829-4.9a1.234,1.234,0,1,0,.261,1.725A1.234,1.234,0,0,0,132.4,212.526Zm4.137.057a1.2,1.2,0,1,0,.254,1.677A1.2,1.2,0,0,0,136.532,212.583Zm4.151.038a1.188,1.188,0,1,0,.251,1.661A1.187,1.187,0,0,0,140.683,212.621Zm4.144.048a1.164,1.164,0,1,0,.246,1.628A1.165,1.165,0,0,0,144.827,212.669Zm4.137.057a1.13,1.13,0,1,0,.239,1.58A1.129,1.129,0,0,0,148.964,212.726Zm4.158.029a1.13,1.13,0,1,0,.239,1.58A1.131,1.131,0,0,0,153.122,212.755Zm4.144.048a1.107,1.107,0,1,0,.234,1.548A1.107,1.107,0,0,0,157.266,212.8Zm4.157.029a1.107,1.107,0,1,0,.234,1.548A1.107,1.107,0,0,0,161.424,212.831Zm4.137.057a1.072,1.072,0,1,0,.227,1.5A1.072,1.072,0,0,0,165.56,212.888Zm4.144.048a1.049,1.049,0,1,0,.222,1.467A1.049,1.049,0,0,0,169.7,212.936Zm4.158.029a1.049,1.049,0,1,0,.221,1.467A1.049,1.049,0,0,0,173.863,212.965Zm4.143.048a1.026,1.026,0,1,0,.217,1.435A1.026,1.026,0,0,0,178.006,213.012Zm4.165.02a1.038,1.038,0,1,0,.219,1.451A1.038,1.038,0,0,0,182.171,213.032Zm4.137.057a1,1,0,1,0,.212,1.4A1,1,0,0,0,186.307,213.089Zm4.165.02a1.014,1.014,0,1,0,.215,1.419A1.015,1.015,0,0,0,190.472,213.109Zm4.151.038a1,1,0,1,0,.212,1.4A1,1,0,0,0,194.623,213.147Zm4.144.048a.98.98,0,1,0,.207,1.371A.98.98,0,0,0,198.767,213.195Zm4.171.011a1,1,0,1,0,.212,1.4A1,1,0,0,0,202.938,213.206Zm4.144.048a.98.98,0,1,0,.207,1.37A.98.98,0,0,0,207.082,213.253Zm4.165.02a.992.992,0,1,0,.21,1.386A.991.991,0,0,0,211.247,213.273Zm4.151.038a.98.98,0,1,0,.207,1.37A.98.98,0,0,0,215.4,213.311Zm-82.987-4.924a1.21,1.21,0,1,0,.256,1.693A1.21,1.21,0,0,0,132.411,208.387Zm4.13.066a1.164,1.164,0,1,0,.247,1.628A1.165,1.165,0,0,0,136.541,208.453Zm4.158.029a1.165,1.165,0,1,0,.246,1.628A1.165,1.165,0,0,0,140.7,208.482Zm4.137.057a1.13,1.13,0,1,0,.239,1.58A1.131,1.131,0,0,0,144.836,208.539Zm4.157.029a1.13,1.13,0,1,0,.239,1.58A1.13,1.13,0,0,0,148.993,208.568Zm4.144.048a1.107,1.107,0,1,0,.234,1.548A1.107,1.107,0,0,0,153.137,208.616Zm4.137.057a1.072,1.072,0,1,0,.227,1.5A1.071,1.071,0,0,0,157.274,208.673Zm4.158.029a1.072,1.072,0,1,0,.227,1.5A1.072,1.072,0,0,0,161.432,208.7Zm4.137.057a1.037,1.037,0,1,0,.219,1.451A1.037,1.037,0,0,0,165.569,208.759Zm4.165.02a1.049,1.049,0,1,0,.222,1.467A1.049,1.049,0,0,0,169.734,208.778Zm4.137.057a1.014,1.014,0,1,0,.215,1.418A1.014,1.014,0,0,0,173.87,208.835Zm4.144.048a.991.991,0,1,0,.21,1.386A.991.991,0,0,0,178.015,208.883Zm4.165.02a1,1,0,1,0,.212,1.4A1,1,0,0,0,182.179,208.9Zm4.144.048a.98.98,0,1,0,.207,1.37A.98.98,0,0,0,186.323,208.95Zm4.164.019a.992.992,0,1,0,.21,1.387A.992.992,0,0,0,190.487,208.97Zm4.138.058a.957.957,0,1,0,.2,1.338A.956.956,0,0,0,194.625,209.027Zm4.171.01a.98.98,0,1,0,.207,1.371A.981.981,0,0,0,198.8,209.037Zm4.144.048a.957.957,0,1,0,.2,1.338A.957.957,0,0,0,202.94,209.085Zm4.151.038a.945.945,0,1,0,.2,1.322A.946.946,0,0,0,207.091,209.123Zm4.171.011a.969.969,0,1,0,.2,1.355A.968.968,0,0,0,211.262,209.133Zm4.151.038a.957.957,0,1,0,.2,1.338A.957.957,0,0,0,215.413,209.172Zm4.157.029a.957.957,0,1,0,.2,1.338A.958.958,0,0,0,219.57,209.2Zm-87.151-4.943a1.176,1.176,0,1,0,.249,1.644A1.176,1.176,0,0,0,132.419,204.257Zm4.151.038a1.164,1.164,0,1,0,.247,1.628A1.164,1.164,0,0,0,136.57,204.3Zm4.144.048a1.141,1.141,0,1,0,.241,1.6A1.141,1.141,0,0,0,140.714,204.343Zm4.137.057a1.107,1.107,0,1,0,.234,1.547A1.107,1.107,0,0,0,144.851,204.4Zm4.158.028a1.107,1.107,0,1,0,.234,1.548A1.107,1.107,0,0,0,149.009,204.429Zm4.137.057a1.072,1.072,0,1,0,.227,1.5A1.073,1.073,0,0,0,153.146,204.486Zm4.157.029a1.072,1.072,0,1,0,.227,1.5A1.072,1.072,0,0,0,157.3,204.515Zm4.137.057a1.038,1.038,0,1,0,.22,1.451A1.039,1.039,0,0,0,161.441,204.572Zm4.143.048a1.015,1.015,0,1,0,.215,1.419A1.015,1.015,0,0,0,165.584,204.619Zm4.158.029a1.015,1.015,0,1,0,.214,1.419A1.015,1.015,0,0,0,169.742,204.648Zm4.144.048a.991.991,0,1,0,.21,1.386A.992.992,0,0,0,173.886,204.7Zm4.157.029a.992.992,0,1,0,.21,1.386A.992.992,0,0,0,178.044,204.725Zm4.144.048a.969.969,0,1,0,.2,1.354A.968.968,0,0,0,182.188,204.773Zm4.157.029a.968.968,0,1,0,.2,1.355A.968.968,0,0,0,186.345,204.8Zm4.144.048a.945.945,0,1,0,.2,1.322A.946.946,0,0,0,190.489,204.849Zm4.151.038a.934.934,0,1,0,.2,1.306A.934.934,0,0,0,194.64,204.888Zm4.165.02a.945.945,0,1,0,.2,1.322A.946.946,0,0,0,198.8,204.907Zm4.143.048a.922.922,0,1,0,.2,1.29A.922.922,0,0,0,202.948,204.955Zm4.165.02a.934.934,0,1,0,.2,1.306A.934.934,0,0,0,207.113,204.975Zm4.151.038a.922.922,0,1,0,.2,1.29A.922.922,0,0,0,211.263,205.013Zm4.158.029a.922.922,0,1,0,.2,1.29A.923.923,0,0,0,215.421,205.042Zm4.165.02a.934.934,0,1,0,.2,1.306A.935.935,0,0,0,219.586,205.062Zm-87.151-4.944a1.153,1.153,0,1,0,.244,1.612A1.153,1.153,0,0,0,132.435,200.118Zm4.151.038a1.141,1.141,0,1,0,.241,1.6A1.142,1.142,0,0,0,136.585,200.156Zm4.144.048a1.118,1.118,0,1,0,.237,1.564A1.118,1.118,0,0,0,140.729,200.2Zm4.151.038a1.107,1.107,0,1,0,.234,1.548A1.107,1.107,0,0,0,144.88,200.242Zm4.137.057a1.072,1.072,0,1,0,.227,1.5A1.072,1.072,0,0,0,149.017,200.3Zm4.144.048a1.049,1.049,0,1,0,.222,1.467A1.049,1.049,0,0,0,153.161,200.347Zm4.151.038a1.038,1.038,0,1,0,.22,1.451A1.037,1.037,0,0,0,157.312,200.385Zm4.144.048a1.014,1.014,0,1,0,.214,1.419A1.014,1.014,0,0,0,161.456,200.433Zm4.157.029a1.014,1.014,0,1,0,.215,1.419A1.014,1.014,0,0,0,165.613,200.462Zm4.137.057a.98.98,0,1,0,.207,1.371A.981.981,0,0,0,169.751,200.519Zm4.144.048a.957.957,0,1,0,.2,1.338A.957.957,0,0,0,173.895,200.566Zm4.157.029a.957.957,0,1,0,.2,1.338A.957.957,0,0,0,178.052,200.6Zm4.144.048a.934.934,0,1,0,.2,1.306A.934.934,0,0,0,182.2,200.643Zm4.164.02a.945.945,0,1,0,.2,1.322A.945.945,0,0,0,186.36,200.663Zm4.138.057a.911.911,0,1,0,.192,1.273A.911.911,0,0,0,190.5,200.72Zm4.165.02a.922.922,0,1,0,.2,1.29A.923.923,0,0,0,194.662,200.739Zm4.151.038a.911.911,0,1,0,.192,1.273A.911.911,0,0,0,198.813,200.778Zm4.143.048a.887.887,0,1,0,.188,1.241A.887.887,0,0,0,202.957,200.825Zm4.171.011a.911.911,0,1,0,.193,1.273A.911.911,0,0,0,207.128,200.836Zm4.151.038a.9.9,0,1,0,.19,1.258A.9.9,0,0,0,211.279,200.874Zm4.157.029a.9.9,0,1,0,.19,1.257A.9.9,0,0,0,215.437,200.9Zm4.157.028a.9.9,0,1,0,.19,1.258A.9.9,0,0,0,219.594,200.932Zm4.151.038a.888.888,0,1,0,.188,1.242A.888.888,0,0,0,223.745,200.97Zm-95.438-5.039a1.153,1.153,0,1,0,.244,1.612A1.153,1.153,0,0,0,128.306,195.932Zm4.157.029a1.153,1.153,0,1,0,.244,1.612A1.152,1.152,0,0,0,132.464,195.961Zm4.138.057a1.118,1.118,0,1,0,.236,1.564A1.119,1.119,0,0,0,136.6,196.018Zm4.137.057a1.084,1.084,0,1,0,.229,1.515A1.084,1.084,0,0,0,140.738,196.074Zm4.157.029a1.083,1.083,0,1,0,.229,1.515A1.084,1.084,0,0,0,144.9,196.1Zm4.138.057a1.049,1.049,0,1,0,.221,1.467A1.049,1.049,0,0,0,149.033,196.16Zm4.157.029a1.049,1.049,0,1,0,.222,1.467A1.049,1.049,0,0,0,153.19,196.189Zm4.137.057a1.014,1.014,0,1,0,.215,1.419A1.014,1.014,0,0,0,157.327,196.246Zm4.137.057a.98.98,0,1,0,.207,1.37A.98.98,0,0,0,161.465,196.3Zm4.157.029a.98.98,0,1,0,.208,1.37A.979.979,0,0,0,165.622,196.332Zm4.144.048a.957.957,0,1,0,.2,1.338A.956.956,0,0,0,169.766,196.38Zm4.157.029a.957.957,0,1,0,.2,1.338A.956.956,0,0,0,173.923,196.409Zm4.138.057a.922.922,0,1,0,.2,1.289A.922.922,0,0,0,178.061,196.466Zm4.144.048a.9.9,0,1,0,.19,1.258A.9.9,0,0,0,182.2,196.513Zm4.164.02a.911.911,0,1,0,.193,1.273A.91.91,0,0,0,186.369,196.533Zm4.144.048a.888.888,0,1,0,.188,1.241A.888.888,0,0,0,190.513,196.581Zm4.157.029a.887.887,0,1,0,.188,1.241A.887.887,0,0,0,194.67,196.61Zm4.151.038a.876.876,0,1,0,.185,1.225A.877.877,0,0,0,198.822,196.648Zm4.157.028a.876.876,0,1,0,.185,1.226A.876.876,0,0,0,202.979,196.677Zm4.151.038a.865.865,0,1,0,.183,1.209A.866.866,0,0,0,207.13,196.715Zm4.151.038a.853.853,0,1,0,.181,1.193A.853.853,0,0,0,211.281,196.753Zm4.171.011a.876.876,0,1,0,.185,1.225A.876.876,0,0,0,215.452,196.764Zm4.151.038a.865.865,0,1,0,.183,1.209A.865.865,0,0,0,219.6,196.8Zm4.158.029a.865.865,0,1,0,.182,1.209A.865.865,0,0,0,223.761,196.831Zm4.157.029a.865.865,0,1,0,.183,1.209A.864.864,0,0,0,227.918,196.86Zm-95.446-5.03a1.118,1.118,0,1,0,.237,1.564A1.118,1.118,0,0,0,132.472,191.83Zm4.144.048a1.1,1.1,0,1,0,.231,1.532A1.1,1.1,0,0,0,136.616,191.878Zm4.151.038a1.084,1.084,0,1,0,.229,1.516A1.084,1.084,0,0,0,140.767,191.916Zm4.144.048a1.061,1.061,0,1,0,.224,1.484A1.062,1.062,0,0,0,144.911,191.964Zm4.137.057a1.026,1.026,0,1,0,.217,1.435A1.026,1.026,0,0,0,149.048,192.021Zm4.151.038a1.015,1.015,0,1,0,.215,1.419A1.015,1.015,0,0,0,153.2,192.059Zm4.137.057a.98.98,0,1,0,.208,1.371A.98.98,0,0,0,157.336,192.116Zm4.158.029a.98.98,0,1,0,.207,1.371A.981.981,0,0,0,161.494,192.145Zm4.144.048a.957.957,0,1,0,.2,1.338A.957.957,0,0,0,165.638,192.193Zm4.137.057a.922.922,0,1,0,.2,1.29A.923.923,0,0,0,169.775,192.25Zm4.157.029a.922.922,0,1,0,.2,1.29A.922.922,0,0,0,173.932,192.279Zm4.144.048a.9.9,0,1,0,.19,1.258A.9.9,0,0,0,178.076,192.326Zm4.157.029a.9.9,0,1,0,.19,1.258A.9.9,0,0,0,182.233,192.355Zm4.138.057a.865.865,0,1,0,.182,1.209A.865.865,0,0,0,186.371,192.412Zm4.144.048a.842.842,0,1,0,.178,1.177A.842.842,0,0,0,190.515,192.46Zm4.164.02a.853.853,0,1,0,.181,1.193A.853.853,0,0,0,194.679,192.48Zm4.151.038a.841.841,0,1,0,.179,1.177A.842.842,0,0,0,198.83,192.518Zm4.165.02a.853.853,0,1,0,.18,1.193A.853.853,0,0,0,202.994,192.538Zm4.151.038a.842.842,0,1,0,.178,1.177A.842.842,0,0,0,207.145,192.576Zm4.158.029a.842.842,0,1,0,.178,1.177A.842.842,0,0,0,211.3,192.605Zm4.151.038a.83.83,0,1,0,.175,1.161A.83.83,0,0,0,215.454,192.644Zm4.157.029a.83.83,0,1,0,.176,1.161A.829.829,0,0,0,219.611,192.673Zm4.171.011a.853.853,0,1,0,.18,1.193A.853.853,0,0,0,223.782,192.683Zm4.158.029a.853.853,0,1,0,.18,1.193A.854.854,0,0,0,227.94,192.712Zm4.157.029a.853.853,0,1,0,.18,1.193A.853.853,0,0,0,232.1,192.741Zm-95.466-5a1.072,1.072,0,1,0,.227,1.5A1.073,1.073,0,0,0,136.632,187.739Zm4.157.029a1.072,1.072,0,1,0,.227,1.5A1.072,1.072,0,0,0,140.789,187.768Zm4.13.066a1.026,1.026,0,1,0,.218,1.435A1.026,1.026,0,0,0,144.919,187.834Zm4.158.029a1.026,1.026,0,1,0,.217,1.435A1.026,1.026,0,0,0,149.077,187.863Zm4.137.057a.992.992,0,1,0,.21,1.386A.992.992,0,0,0,153.214,187.92Zm4.137.057a.957.957,0,1,0,.2,1.338A.957.957,0,0,0,157.352,187.977Zm4.157.029a.957.957,0,1,0,.2,1.338A.958.958,0,0,0,161.509,188.006Zm4.137.057a.922.922,0,1,0,.2,1.29A.922.922,0,0,0,165.646,188.063Zm4.158.029a.922.922,0,1,0,.2,1.29A.923.923,0,0,0,169.8,188.092Zm4.137.057a.887.887,0,1,0,.188,1.242A.887.887,0,0,0,173.941,188.149Zm4.144.048a.865.865,0,1,0,.183,1.209A.864.864,0,0,0,178.085,188.2Zm4.157.029a.865.865,0,1,0,.183,1.209A.864.864,0,0,0,182.242,188.226Zm4.144.048a.842.842,0,1,0,.178,1.177A.842.842,0,0,0,186.386,188.273Zm4.158.029a.842.842,0,1,0,.178,1.177A.842.842,0,0,0,190.544,188.3Zm4.151.038a.83.83,0,1,0,.175,1.16A.83.83,0,0,0,194.695,188.341Zm4.157.029a.83.83,0,1,0,.176,1.16A.83.83,0,0,0,198.852,188.37Zm4.144.048a.807.807,0,1,0,.171,1.129A.807.807,0,0,0,203,188.418Zm4.151.038a.8.8,0,1,0,.168,1.112A.8.8,0,0,0,207.147,188.456Zm4.171.011a.819.819,0,1,0,.173,1.144A.818.818,0,0,0,211.318,188.466Zm4.151.038a.807.807,0,1,0,.171,1.128A.807.807,0,0,0,215.469,188.5Zm4.157.028a.807.807,0,1,0,.171,1.129A.806.806,0,0,0,219.626,188.533Zm4.158.029a.807.807,0,1,0,.171,1.129A.807.807,0,0,0,223.784,188.562Zm4.157.029a.807.807,0,1,0,.171,1.129A.807.807,0,0,0,227.942,188.591Zm4.171.011a.83.83,0,1,0,.176,1.161A.83.83,0,0,0,232.113,188.6Zm-95.452-5.02a1.072,1.072,0,1,0,.227,1.5A1.072,1.072,0,0,0,136.661,183.582Zm4.137.057a1.037,1.037,0,1,0,.22,1.451A1.037,1.037,0,0,0,140.8,183.639Zm4.144.048a1.014,1.014,0,1,0,.215,1.419A1.015,1.015,0,0,0,144.942,183.686Zm4.151.038a1,1,0,1,0,.212,1.4A1,1,0,0,0,149.092,183.725Zm4.137.057a.968.968,0,1,0,.2,1.354A.968.968,0,0,0,153.229,183.782Zm4.151.038a.957.957,0,1,0,.2,1.338A.956.956,0,0,0,157.381,183.82Zm4.137.057a.922.922,0,1,0,.2,1.289A.922.922,0,0,0,161.517,183.877Zm4.144.048a.9.9,0,1,0,.19,1.258A.9.9,0,0,0,165.662,183.924Zm4.151.038A.888.888,0,1,0,170,185.2.888.888,0,0,0,169.812,183.963Zm4.143.048a.865.865,0,1,0,.183,1.209A.864.864,0,0,0,173.956,184.01Zm4.158.029a.865.865,0,1,0,.182,1.209A.865.865,0,0,0,178.114,184.039Zm4.137.057a.83.83,0,1,0,.176,1.16A.829.829,0,0,0,182.251,184.1Zm4.144.048a.807.807,0,1,0,.171,1.128A.807.807,0,0,0,186.395,184.144Zm4.157.029a.807.807,0,1,0,.171,1.128A.806.806,0,0,0,190.552,184.173Zm4.144.048a.784.784,0,1,0,.166,1.1A.784.784,0,0,0,194.7,184.221Zm4.165.02a.8.8,0,1,0,.168,1.112A.8.8,0,0,0,198.861,184.24Zm4.151.038a.784.784,0,1,0,.166,1.1A.784.784,0,0,0,203.012,184.278Zm4.157.029a.784.784,0,1,0,.166,1.1A.784.784,0,0,0,207.169,184.307Zm4.151.038a.772.772,0,1,0,.164,1.08A.772.772,0,0,0,211.32,184.345Zm4.151.038a.761.761,0,1,0,.161,1.064A.761.761,0,0,0,215.471,184.384Zm4.171.011a.784.784,0,1,0,.165,1.1A.784.784,0,0,0,219.642,184.394Zm4.157.029a.784.784,0,1,0,.166,1.1A.784.784,0,0,0,223.8,184.423Zm4.157.029a.784.784,0,1,0,.166,1.1A.784.784,0,0,0,227.957,184.453Zm4.165.02a.8.8,0,1,0,.169,1.112A.8.8,0,0,0,232.122,184.472Zm4.165.02a.807.807,0,1,0,.171,1.129A.807.807,0,0,0,236.286,184.492ZM140.813,179.5a1.015,1.015,0,1,0,.214,1.419A1.015,1.015,0,0,0,140.813,179.5Zm4.157.029a1.015,1.015,0,1,0,.214,1.419A1.015,1.015,0,0,0,144.971,179.528Zm4.137.057a.98.98,0,1,0,.208,1.371A.98.98,0,0,0,149.108,179.585Zm4.137.057a.945.945,0,1,0,.2,1.322A.946.946,0,0,0,153.245,179.642Zm4.151.038a.934.934,0,1,0,.2,1.306A.934.934,0,0,0,157.4,179.68Zm4.137.057a.9.9,0,1,0,.19,1.258A.9.9,0,0,0,161.533,179.737Zm4.158.029a.9.9,0,1,0,.19,1.258A.9.9,0,0,0,165.691,179.766Zm4.137.057a.865.865,0,1,0,.183,1.209A.865.865,0,0,0,169.828,179.823Zm4.137.057a.83.83,0,1,0,.176,1.161A.83.83,0,0,0,173.964,179.88Zm4.158.029a.83.83,0,1,0,.175,1.161A.831.831,0,0,0,178.122,179.909Zm4.143.048a.807.807,0,1,0,.171,1.129A.807.807,0,0,0,182.266,179.957Zm4.158.029a.807.807,0,1,0,.171,1.129A.807.807,0,0,0,186.424,179.986Zm4.144.048a.784.784,0,1,0,.165,1.1A.784.784,0,0,0,190.568,180.033Zm4.137.057a.749.749,0,1,0,.159,1.048A.75.75,0,0,0,194.7,180.09Zm4.165.02a.761.761,0,1,0,.161,1.064A.762.762,0,0,0,198.869,180.11Zm4.143.048a.738.738,0,1,0,.157,1.032A.737.737,0,0,0,203.013,180.158Zm4.172.011a.761.761,0,1,0,.161,1.064A.762.762,0,0,0,207.185,180.168Zm4.151.038a.75.75,0,1,0,.158,1.048A.75.75,0,0,0,211.335,180.207Zm4.157.029a.749.749,0,1,0,.159,1.048A.749.749,0,0,0,215.493,180.236Zm4.158.029a.75.75,0,1,0,.158,1.048A.749.749,0,0,0,219.651,180.265Zm4.157.029a.749.749,0,1,0,.159,1.048A.75.75,0,0,0,223.808,180.294Zm4.165.02a.761.761,0,1,0,.161,1.064A.761.761,0,0,0,227.973,180.314Zm4.164.02a.772.772,0,1,0,.164,1.08A.772.772,0,0,0,232.137,180.334Zm4.158.029a.772.772,0,1,0,.163,1.08A.772.772,0,0,0,236.295,180.363Zm4.165.019a.784.784,0,1,0,.165,1.1A.784.784,0,0,0,240.459,180.382Zm4.171.011a.807.807,0,1,0,.171,1.129A.808.808,0,0,0,244.631,180.392ZM144.979,175.4a.98.98,0,1,0,.207,1.371A.981.981,0,0,0,144.979,175.4Zm4.144.048a.957.957,0,1,0,.2,1.338A.957.957,0,0,0,149.123,175.446Zm4.151.038a.945.945,0,1,0,.2,1.322A.946.946,0,0,0,153.274,175.485Zm4.137.057a.911.911,0,1,0,.192,1.273A.911.911,0,0,0,157.411,175.542Zm4.137.057a.876.876,0,1,0,.186,1.225A.876.876,0,0,0,161.548,175.6Zm4.151.038a.865.865,0,1,0,.183,1.209A.864.864,0,0,0,165.7,175.637Zm4.138.057a.83.83,0,1,0,.175,1.161A.83.83,0,0,0,169.836,175.694Zm4.157.029a.83.83,0,1,0,.176,1.161A.829.829,0,0,0,173.993,175.723Zm4.137.057a.8.8,0,1,0,.168,1.112A.8.8,0,0,0,178.131,175.78Zm4.143.048a.772.772,0,1,0,.163,1.08A.772.772,0,0,0,182.274,175.827Zm4.158.029a.773.773,0,1,0,.163,1.08A.773.773,0,0,0,186.432,175.856Zm4.144.048a.749.749,0,1,0,.158,1.048A.749.749,0,0,0,190.577,175.9Zm4.157.029a.749.749,0,1,0,.159,1.048A.749.749,0,0,0,194.734,175.933Zm4.144.048a.726.726,0,1,0,.153,1.016A.727.727,0,0,0,198.878,175.981Zm4.143.048a.7.7,0,1,0,.149.983A.7.7,0,0,0,203.021,176.028Zm4.165.02a.715.715,0,1,0,.151,1A.715.715,0,0,0,207.186,176.048Zm4.151.038a.7.7,0,1,0,.149.983A.7.7,0,0,0,211.337,176.086Zm4.171.011a.726.726,0,1,0,.154,1.016A.725.725,0,0,0,215.508,176.1Zm4.151.038a.715.715,0,1,0,.151,1A.714.714,0,0,0,219.659,176.135Zm4.158.029a.715.715,0,1,0,.151,1A.714.714,0,0,0,223.817,176.164Zm4.165.019a.727.727,0,1,0,.153,1.016A.727.727,0,0,0,227.981,176.184Zm4.164.02a.738.738,0,1,0,.156,1.032A.737.737,0,0,0,232.145,176.2Zm4.171.011a.761.761,0,1,0,.161,1.064A.761.761,0,0,0,236.317,176.214Zm4.165.02a.772.772,0,1,0,.163,1.08A.772.772,0,0,0,240.481,176.234Zm4.158.029a.773.773,0,1,0,.163,1.08A.773.773,0,0,0,244.639,176.263Zm4.171.011a.8.8,0,1,0,.168,1.112A.8.8,0,0,0,248.81,176.273Zm-99.679-4.957a.922.922,0,1,0,.2,1.289A.921.921,0,0,0,149.131,171.317Zm4.158.029a.922.922,0,1,0,.2,1.289A.922.922,0,0,0,153.289,171.346Zm4.137.057a.887.887,0,1,0,.188,1.241A.887.887,0,0,0,157.426,171.4Zm4.151.038a.876.876,0,1,0,.186,1.225A.876.876,0,0,0,161.577,171.441Zm4.137.057a.842.842,0,1,0,.178,1.177A.841.841,0,0,0,165.714,171.5Zm4.137.057a.807.807,0,1,0,.171,1.128A.807.807,0,0,0,169.851,171.555Zm4.158.029a.807.807,0,1,0,.171,1.128A.806.806,0,0,0,174.009,171.584Zm4.137.057a.772.772,0,1,0,.163,1.08A.772.772,0,0,0,178.146,171.641Zm4.157.029a.772.772,0,1,0,.163,1.08A.771.771,0,0,0,182.3,171.67Zm4.138.057a.738.738,0,1,0,.156,1.031A.738.738,0,0,0,186.441,171.727Zm4.143.048a.715.715,0,1,0,.151,1A.714.714,0,0,0,190.584,171.774Zm4.158.029a.715.715,0,1,0,.151,1A.715.715,0,0,0,194.742,171.8Zm4.144.047a.692.692,0,1,0,.146.968A.692.692,0,0,0,198.887,171.85Zm4.164.02a.7.7,0,1,0,.149.984A.7.7,0,0,0,203.051,171.87Zm4.151.038a.692.692,0,1,0,.147.967A.691.691,0,0,0,207.2,171.908Zm4.158.029a.692.692,0,1,0,.146.967A.691.691,0,0,0,211.359,171.938Zm4.151.038a.68.68,0,1,0,.143.951A.681.681,0,0,0,215.51,171.976Zm4.157.029a.68.68,0,1,0,.144.951A.68.68,0,0,0,219.667,172.005Zm4.171.011a.7.7,0,1,0,.149.983A.7.7,0,0,0,223.839,172.016Zm4.165.02a.715.715,0,1,0,.151,1A.715.715,0,0,0,228,172.035Zm4.158.029a.715.715,0,1,0,.151,1A.715.715,0,0,0,232.161,172.065Zm4.157.029a.715.715,0,1,0,.151,1A.714.714,0,0,0,236.319,172.094Zm4.171.011a.738.738,0,1,0,.156,1.031A.737.737,0,0,0,240.49,172.1Zm4.171.011a.761.761,0,1,0,.161,1.064A.76.76,0,0,0,244.661,172.115Zm4.178,0a.8.8,0,1,0,.168,1.113A.8.8,0,0,0,248.839,172.115Zm4.157.029a.8.8,0,1,0,.169,1.113A.8.8,0,0,0,253,172.145ZM149.16,167.159a.922.922,0,1,0,.2,1.29A.922.922,0,0,0,149.16,167.159Zm4.144.048a.9.9,0,1,0,.19,1.258A.9.9,0,0,0,153.3,167.206Zm4.137.057a.865.865,0,1,0,.183,1.209A.864.864,0,0,0,157.441,167.263Zm4.151.038a.853.853,0,1,0,.18,1.193A.854.854,0,0,0,161.593,167.3Zm4.137.057a.818.818,0,1,0,.173,1.144A.818.818,0,0,0,165.73,167.358Zm4.151.038a.807.807,0,1,0,.171,1.129A.807.807,0,0,0,169.88,167.4Zm4.137.057a.772.772,0,1,0,.163,1.08A.772.772,0,0,0,174.017,167.454Zm4.144.048a.749.749,0,1,0,.159,1.048A.75.75,0,0,0,178.161,167.5Zm4.151.038a.738.738,0,1,0,.156,1.032A.738.738,0,0,0,182.312,167.54Zm4.144.048a.715.715,0,1,0,.151,1A.715.715,0,0,0,186.456,167.587Zm4.157.029a.715.715,0,1,0,.151,1A.714.714,0,0,0,190.614,167.616Zm4.138.057a.68.68,0,1,0,.143.951A.68.68,0,0,0,194.751,167.673Zm4.143.048a.657.657,0,1,0,.139.919A.657.657,0,0,0,198.895,167.721Zm4.158.029a.657.657,0,1,0,.139.919A.658.658,0,0,0,203.053,167.75Zm4.151.038a.646.646,0,1,0,.136.9A.646.646,0,0,0,207.2,167.788Zm4.165.02a.657.657,0,1,0,.139.919A.657.657,0,0,0,211.368,167.808Zm4.157.029a.657.657,0,1,0,.139.919A.657.657,0,0,0,215.525,167.837Zm4.158.029a.657.657,0,1,0,.139.919A.657.657,0,0,0,219.683,167.866Zm4.157.029a.657.657,0,1,0,.139.919A.657.657,0,0,0,223.841,167.9Zm4.165.02a.669.669,0,1,0,.141.935A.669.669,0,0,0,228.005,167.915Zm4.171.011a.692.692,0,1,0,.146.967A.692.692,0,0,0,232.176,167.926Zm4.171.01a.715.715,0,1,0,.151,1A.715.715,0,0,0,236.348,167.936Zm4.157.029a.715.715,0,1,0,.151,1A.714.714,0,0,0,240.5,167.965Zm4.165.02a.727.727,0,1,0,.153,1.016A.726.726,0,0,0,244.67,167.985Zm4.178,0a.761.761,0,1,0,.161,1.064A.762.762,0,0,0,248.848,167.986Zm-95.535-4.909a.865.865,0,1,0,.183,1.209A.864.864,0,0,0,153.313,163.077Zm4.157.029a.865.865,0,1,0,.183,1.209A.864.864,0,0,0,157.471,163.106Zm4.138.057a.83.83,0,1,0,.175,1.161A.83.83,0,0,0,161.608,163.163Zm4.137.057a.8.8,0,1,0,.169,1.112A.8.8,0,0,0,165.745,163.22Zm4.151.038a.784.784,0,1,0,.166,1.1A.783.783,0,0,0,169.9,163.258Zm4.138.057a.75.75,0,1,0,.158,1.048A.749.749,0,0,0,174.033,163.315Zm4.157.029a.749.749,0,1,0,.159,1.048A.749.749,0,0,0,178.19,163.344Zm4.137.057a.715.715,0,1,0,.151,1A.714.714,0,0,0,182.327,163.4Zm4.138.057a.68.68,0,1,0,.143.951A.681.681,0,0,0,186.465,163.458Zm4.157.029a.68.68,0,1,0,.144.951A.68.68,0,0,0,190.622,163.487Zm4.144.048a.657.657,0,1,0,.139.919A.657.657,0,0,0,194.766,163.534Zm4.157.029a.657.657,0,1,0,.139.919A.657.657,0,0,0,198.924,163.563Zm4.144.048a.634.634,0,1,0,.134.887A.633.633,0,0,0,203.068,163.611Zm4.137.057a.6.6,0,1,0,.127.838A.6.6,0,0,0,207.2,163.668Zm4.172.011a.623.623,0,1,0,.132.87A.622.622,0,0,0,211.376,163.678Zm4.151.038a.611.611,0,1,0,.129.854A.611.611,0,0,0,215.527,163.717Zm4.171.011a.634.634,0,1,0,.134.887A.634.634,0,0,0,219.7,163.727Zm4.165.019a.646.646,0,1,0,.136.9A.646.646,0,0,0,223.863,163.747Zm4.157.029a.646.646,0,1,0,.136.9A.646.646,0,0,0,228.02,163.776Zm4.165.02a.657.657,0,1,0,.139.919A.658.658,0,0,0,232.185,163.8Zm4.164.02a.669.669,0,1,0,.142.935A.669.669,0,0,0,236.349,163.815Zm4.179,0a.7.7,0,1,0,.149.983A.7.7,0,0,0,240.527,163.817Zm4.171.011a.726.726,0,1,0,.153,1.016A.726.726,0,0,0,244.7,163.827Zm4.178,0a.761.761,0,1,0,.161,1.064A.761.761,0,0,0,248.877,163.829Zm4.151.038a.749.749,0,1,0,.158,1.048A.749.749,0,0,0,253.028,163.867Zm-87.254-4.805a.8.8,0,1,0,.169,1.113A.8.8,0,0,0,165.774,159.062Zm4.137.058a.761.761,0,1,0,.161,1.064A.76.76,0,0,0,169.911,159.119Zm4.138.057a.726.726,0,1,0,.153,1.016A.726.726,0,0,0,174.048,159.176Zm4.157.029a.726.726,0,1,0,.154,1.016A.725.725,0,0,0,178.206,159.205Zm4.13.066a.68.68,0,1,0,.144.951A.679.679,0,0,0,182.336,159.271Zm4.158.029a.68.68,0,1,0,.143.951A.68.68,0,0,0,186.494,159.3Zm4.137.056a.646.646,0,1,0,.137.9A.646.646,0,0,0,190.631,159.356Zm4.144.048a.623.623,0,1,0,.132.871A.623.623,0,0,0,194.775,159.4Zm4.157.029a.623.623,0,1,0,.132.871A.622.622,0,0,0,198.932,159.433Zm4.144.048a.6.6,0,1,0,.127.838A.6.6,0,0,0,203.076,159.481Zm4.157.029a.6.6,0,1,0,.127.838A.6.6,0,0,0,207.234,159.51Zm4.158.029a.6.6,0,1,0,.127.838A.6.6,0,0,0,211.392,159.539Zm4.144.048a.577.577,0,1,0,.122.806A.577.577,0,0,0,215.536,159.587Zm4.171.011a.6.6,0,1,0,.126.838A.6.6,0,0,0,219.707,159.6Zm4.157.029a.6.6,0,1,0,.127.838A.6.6,0,0,0,223.864,159.626Zm4.171.011a.622.622,0,1,0,.132.871A.623.623,0,0,0,228.036,159.637Zm4.171.011a.646.646,0,1,0,.137.9A.645.645,0,0,0,232.207,159.647Zm4.158.029a.646.646,0,1,0,.136.9A.646.646,0,0,0,236.365,159.676Zm4.171.011a.669.669,0,1,0,.141.935A.668.668,0,0,0,240.536,159.687Zm4.171.011a.692.692,0,1,0,.146.967A.692.692,0,0,0,244.707,159.7Zm4.178,0a.726.726,0,1,0,.154,1.016A.726.726,0,0,0,248.885,159.7Zm4.172.011a.75.75,0,1,0,.158,1.048A.75.75,0,0,0,253.057,159.709Zm-78.98-4.691a.727.727,0,1,0,.153,1.016A.726.726,0,0,0,174.077,155.018Zm4.137.057a.692.692,0,1,0,.146.967A.692.692,0,0,0,178.214,155.075Zm8.295.086a.657.657,0,1,0,.139.919A.658.658,0,0,0,186.509,155.161Zm4.137.057a.623.623,0,1,0,.132.871A.623.623,0,0,0,190.646,155.218Zm4.158.029a.623.623,0,1,0,.132.871A.623.623,0,0,0,194.8,155.247Zm4.137.057a.588.588,0,1,0,.124.822A.588.588,0,0,0,198.941,155.3Zm4.138.057a.554.554,0,1,0,.117.774A.554.554,0,0,0,203.078,155.36Zm4.164.02a.565.565,0,1,0,.12.79A.565.565,0,0,0,207.242,155.38Zm4.151.038a.553.553,0,1,0,.117.774A.553.553,0,0,0,211.393,155.419Zm4.171.011a.576.576,0,1,0,.122.806A.577.577,0,0,0,215.564,155.429Zm4.158.029a.576.576,0,1,0,.122.806A.576.576,0,0,0,219.722,155.458Zm4.157.029a.576.576,0,1,0,.122.806A.577.577,0,0,0,223.88,155.487Zm4.165.02a.588.588,0,1,0,.124.822A.587.587,0,0,0,228.044,155.507Zm4.165.02a.6.6,0,1,0,.127.838A.6.6,0,0,0,232.209,155.527Zm4.178,0a.634.634,0,1,0,.134.887A.635.635,0,0,0,236.387,155.528Zm4.171.011a.657.657,0,1,0,.139.919A.657.657,0,0,0,240.558,155.538Zm4.178,0a.692.692,0,1,0,.146.967A.692.692,0,0,0,244.736,155.54Zm4.157.029a.692.692,0,1,0,.147.967A.692.692,0,0,0,248.894,155.569Zm-54.081-4.452a.588.588,0,1,0,.124.822A.588.588,0,0,0,194.813,151.117Zm4.137.057a.553.553,0,1,0,.117.774A.553.553,0,0,0,198.949,151.174Zm4.157.029a.553.553,0,1,0,.117.774A.553.553,0,0,0,203.107,151.2Zm4.151.038a.542.542,0,1,0,.114.758A.543.543,0,0,0,207.258,151.241Zm4.137.057a.507.507,0,1,0,.107.709A.507.507,0,0,0,211.395,151.3Zm4.171.011a.53.53,0,1,0,.112.741A.531.531,0,0,0,215.566,151.309Zm4.157.029a.53.53,0,1,0,.112.741A.53.53,0,0,0,219.724,151.338Zm4.172.01a.554.554,0,1,0,.117.774A.554.554,0,0,0,223.9,151.348Zm4.171.011a.577.577,0,1,0,.122.807A.577.577,0,0,0,228.067,151.358Zm4.171.011a.6.6,0,1,0,.127.838A.6.6,0,0,0,232.238,151.369Zm4.157.029a.6.6,0,1,0,.127.838A.6.6,0,0,0,236.4,151.4Zm4.178,0a.634.634,0,1,0,.134.887A.634.634,0,0,0,240.574,151.4Zm4.171.011a.657.657,0,1,0,.139.919A.657.657,0,0,0,244.745,151.41Zm-33.321-4.27a.507.507,0,1,0,.107.709A.507.507,0,0,0,211.424,147.14Zm4.157.029a.507.507,0,1,0,.108.709A.507.507,0,0,0,215.581,147.169Zm8.322.049a.519.519,0,1,0,.11.725A.519.519,0,0,0,223.9,147.218Zm8.35.012a.576.576,0,1,0,.122.806A.576.576,0,0,0,232.253,147.23Zm4.171.011a.6.6,0,1,0,.127.838A.6.6,0,0,0,236.424,147.241Zm4.178,0a.634.634,0,1,0,.134.887A.635.635,0,0,0,240.6,147.242Z" transform="translate(-133.115 -149.307)" fill="url(#linear-gradient)"/>
          </g>
        </g>
        <g id="Group_20" data-name="Group 20" transform="translate(22.634)" opacity="0.5">
          <g id="Group_19" data-name="Group 19" clip-path="url(#clip-path-2)">
            <g id="Group_18" data-name="Group 18" transform="translate(-98.3 -86.931)">
              <path id="Path_98" data-name="Path 98" d="M22.076,301.1l1.254-2.073c.465.282,47,28.527,91.112,64.638,59.513,48.719,86.509,87.812,80.234,116.2l-2.366-.524C206.818,413.681,23.925,302.221,22.076,301.1Z" transform="translate(-22.076 -91.886)" fill="#009dff"/>
              <path id="Path_99" data-name="Path 99" d="M26,294.251l1.233-2.032c.465.282,46.98,28.6,91.083,64.745,59.495,48.76,86.494,87.809,80.25,116.065l-2.321-.514C210.7,407.11,27.852,295.372,26,294.251Z" transform="translate(-23.406 -89.578)" fill="#039ffe"/>
              <path id="Path_100" data-name="Path 100" d="M29.928,287.4l1.212-1.991c.464.283,46.962,28.67,91.056,64.851,59.476,48.8,86.482,87.805,80.265,115.933l-2.276-.5C214.579,400.563,31.777,288.523,29.928,287.4Z" transform="translate(-24.737 -87.271)" fill="#05a1fc"/>
              <path id="Path_101" data-name="Path 101" d="M33.855,280.549l1.189-1.951c.465.284,46.945,28.742,91.029,64.957,59.458,48.845,86.468,87.806,80.281,115.8l-2.231-.493C218.455,394,35.7,281.676,33.855,280.549Z" transform="translate(-26.067 -84.963)" fill="#08a3fb"/>
              <path id="Path_102" data-name="Path 102" d="M37.782,273.7l1.168-1.91c.464.284,46.927,28.814,91,65.063,59.44,48.888,86.455,87.808,80.3,115.67l-2.186-.483C222.334,387.44,39.629,274.829,37.782,273.7Z" transform="translate(-27.398 -82.655)" fill="#0aa6f9"/>
              <path id="Path_103" data-name="Path 103" d="M41.707,266.847l1.146-1.869c.465.285,46.91,28.885,90.975,65.169,59.423,48.929,86.443,87.8,80.312,115.539L212,445.213C226.216,380.888,43.555,267.98,41.707,266.847Z" transform="translate(-28.728 -80.348)" fill="#0da8f8"/>
              <path id="Path_104" data-name="Path 104" d="M45.634,260l1.125-1.828c.463.285,46.891,28.957,90.946,65.274,59.4,48.97,86.431,87.8,80.33,115.408l-2.1-.464C230.1,374.33,47.48,261.133,45.634,260Z" transform="translate(-30.059 -78.041)" fill="#0faaf6"/>
              <path id="Path_105" data-name="Path 105" d="M49.56,253.146l1.1-1.788c.463.286,46.874,29.028,90.919,65.382,59.386,49.011,86.42,87.8,80.346,115.276l-2.052-.453C233.979,367.762,51.406,254.284,49.56,253.146Z" transform="translate(-31.389 -75.733)" fill="#12acf5"/>
              <path id="Path_106" data-name="Path 106" d="M53.487,246.295l1.081-1.747c.464.286,46.856,29.1,90.893,65.487,59.368,49.054,86.4,87.8,80.36,115.144l-2.006-.443C237.854,361.221,55.333,247.437,53.487,246.295Z" transform="translate(-32.719 -73.425)" fill="#14aef3"/>
              <path id="Path_107" data-name="Path 107" d="M57.414,239.444l1.059-1.706c.464.287,46.839,29.171,90.866,65.594,59.349,49.1,86.39,87.793,80.377,115.012l-1.962-.434C241.732,354.666,59.259,240.589,57.414,239.444Z" transform="translate(-34.05 -71.118)" fill="#17b0f2"/>
              <path id="Path_108" data-name="Path 108" d="M61.341,232.593l1.037-1.665c.463.288,46.821,29.244,90.839,65.7,59.331,49.138,86.376,87.79,80.392,114.882l-1.917-.424C245.613,348.1,63.185,233.742,61.341,232.593Z" transform="translate(-35.381 -68.81)" fill="#19b2f0"/>
              <path id="Path_109" data-name="Path 109" d="M65.267,225.742l1.015-1.626c.463.29,46.8,29.316,90.812,65.807,59.312,49.18,86.365,87.787,80.408,114.751l-1.872-.414C249.49,341.544,67.111,226.892,65.267,225.742Z" transform="translate(-36.711 -66.502)" fill="#1cb4ef"/>
              <path id="Path_110" data-name="Path 110" d="M69.195,218.891l.992-1.585c.463.29,46.785,29.388,90.784,65.912,59.294,49.222,86.353,87.784,80.423,114.619l-1.826-.4C253.366,334.99,71.038,220.045,69.195,218.891Z" transform="translate(-38.042 -64.195)" fill="#1eb7ed"/>
              <path id="Path_111" data-name="Path 111" d="M73.121,212.04l.97-1.544c.463.29,46.767,29.459,90.757,66.018C224.127,325.78,251.188,364.3,245.287,391l-1.781-.393C257.246,328.44,74.964,213.2,73.121,212.04Z" transform="translate(-39.372 -61.887)" fill="#21b9ec"/>
              <path id="Path_112" data-name="Path 112" d="M77.048,205.19,78,203.685c.463.292,46.75,29.531,90.73,66.126,59.258,49.306,86.326,87.783,80.455,114.355l-1.736-.384C261.122,321.879,78.891,206.349,77.048,205.19Z" transform="translate(-40.703 -59.579)" fill="#23bbea"/>
              <path id="Path_113" data-name="Path 113" d="M80.976,198.339l.924-1.464c.462.292,46.732,29.6,90.7,66.232,59.24,49.349,86.314,87.78,80.47,114.224l-1.691-.374C265.008,315.322,82.818,199.5,80.976,198.339Z" transform="translate(-42.034 -57.272)" fill="#26bde9"/>
              <path id="Path_114" data-name="Path 114" d="M84.9,191.488l.9-1.424c.463.293,46.715,29.674,90.677,66.338,59.224,49.391,86.3,87.779,80.486,114.093l-1.646-.364C268.886,308.762,86.744,192.654,84.9,191.488Z" transform="translate(-43.365 -54.964)" fill="#28bfe7"/>
              <path id="Path_115" data-name="Path 115" d="M88.83,184.638l.879-1.385c.462.294,46.7,29.747,90.65,66.444,59.2,49.433,86.29,87.776,80.5,113.963l-1.6-.354C272.764,302.211,90.671,185.806,88.83,184.638Z" transform="translate(-44.695 -52.656)" fill="#2bc1e6"/>
              <path id="Path_116" data-name="Path 116" d="M92.758,177.787l.856-1.344c.461.294,46.679,29.818,90.622,66.551,59.186,49.472,86.277,87.77,80.518,113.83l-1.556-.344C276.636,295.658,94.6,178.959,92.758,177.787Z" transform="translate(-46.026 -50.348)" fill="#2dc3e4"/>
              <path id="Path_117" data-name="Path 117" d="M96.685,170.937l.832-1.3c.462.294,46.662,29.889,90.6,66.656,59.169,49.516,86.263,87.767,80.534,113.7l-1.511-.335C280.516,289.1,98.525,172.111,96.685,170.937Z" transform="translate(-47.357 -48.041)" fill="#30c5e3"/>
              <path id="Path_118" data-name="Path 118" d="M100.613,164.086l.809-1.264c.461.3,46.644,29.961,90.57,66.763,59.151,49.559,86.251,87.768,80.549,113.568l-1.466-.324C284.4,282.54,102.452,165.264,100.613,164.086Z" transform="translate(-48.688 -45.733)" fill="#32c8e1"/>
              <path id="Path_119" data-name="Path 119" d="M104.54,157.235l.786-1.224c.461.3,46.627,30.032,90.542,66.869,59.132,49.6,86.238,87.764,80.566,113.437L275.013,336C288.275,275.985,106.38,158.416,104.54,157.235Z" transform="translate(-50.019 -43.425)" fill="#35cae0"/>
              <path id="Path_120" data-name="Path 120" d="M108.468,150.385l.763-1.185c.461.3,46.609,30.1,90.515,66.976,59.114,49.643,86.226,87.764,80.582,113.305l-1.376-.3C292.155,269.426,110.307,151.568,108.468,150.385Z" transform="translate(-51.35 -41.117)" fill="#37ccde"/>
              <path id="Path_121" data-name="Path 121" d="M112.4,143.534l.739-1.145c.461.3,46.592,30.176,90.489,67.082,59.1,49.686,86.214,87.762,80.6,113.174l-1.331-.295C296.034,262.871,114.234,144.721,112.4,143.534Z" transform="translate(-52.681 -38.809)" fill="#3acedd"/>
              <path id="Path_122" data-name="Path 122" d="M116.324,136.684l.715-1.106c.461.3,46.574,30.248,90.462,67.189,59.079,49.726,86.2,87.756,80.613,113.044l-1.286-.285C299.908,256.321,118.161,137.873,116.324,136.684Z" transform="translate(-54.012 -36.501)" fill="#3cd0dc"/>
              <path id="Path_123" data-name="Path 123" d="M120.252,129.832l.692-1.066c.461.3,46.557,30.321,90.436,67.3,59.061,49.768,86.189,87.754,80.629,112.912l-1.24-.274C303.794,249.757,122.089,131.025,120.252,129.832Z" transform="translate(-55.342 -34.193)" fill="#3ed2da"/>
              <path id="Path_124" data-name="Path 124" d="M124.18,122.982l.668-1.026c.461.3,46.539,30.391,90.409,67.4,59.042,49.811,86.176,87.756,80.646,112.78l-1.2-.264C307.677,243.2,126.016,124.177,124.18,122.982Z" transform="translate(-56.673 -31.886)" fill="#41d4d9"/>
              <path id="Path_125" data-name="Path 125" d="M128.108,116.132l.645-.988c.46.3,46.521,30.463,90.382,67.509C278.16,232.5,305.3,270.4,299.8,295.3l-1.151-.254C311.551,236.642,129.944,117.33,128.108,116.132Z" transform="translate(-58.004 -29.577)" fill="#43d7d7"/>
              <path id="Path_126" data-name="Path 126" d="M132.036,109.281l.62-.947c.46.3,46.5,30.535,90.356,67.614,59.007,49.893,86.151,87.746,80.677,112.518l-1.106-.245C315.429,230.093,133.871,110.483,132.036,109.281Z" transform="translate(-59.335 -27.27)" fill="#46d9d6"/>
              <path id="Path_127" data-name="Path 127" d="M135.964,102.431l.6-.909c.46.3,46.486,30.607,90.33,67.721,58.99,49.938,86.138,87.752,80.693,112.388l-1.061-.235C319.309,223.527,137.8,103.635,135.964,102.431Z" transform="translate(-60.666 -24.962)" fill="#48dbd4"/>
              <path id="Path_128" data-name="Path 128" d="M139.893,95.579l.571-.869c.46.3,46.469,30.68,90.3,67.828,58.971,49.978,86.125,87.75,80.71,112.257l-1.016-.225C323.186,216.977,141.727,96.787,139.893,95.579Z" transform="translate(-61.998 -22.653)" fill="#4bddd3"/>
              <path id="Path_129" data-name="Path 129" d="M143.821,88.729l.548-.829c.459.3,46.451,30.75,90.275,67.934,58.954,50.02,86.115,87.746,80.726,112.125l-.971-.214C327.07,210.419,145.656,89.94,143.821,88.729Z" transform="translate(-63.329 -20.346)" fill="#4ddfd1"/>
              <path id="Path_130" data-name="Path 130" d="M147.75,81.879l.523-.79c.46.3,46.434,30.822,90.25,68.04,58.935,50.061,86.1,87.741,80.742,111.994l-.926-.2C330.949,203.869,149.583,83.093,147.75,81.879Z" transform="translate(-64.66 -18.038)" fill="#50e1d0"/>
              <path id="Path_131" data-name="Path 131" d="M151.678,75.029l.5-.752c.459.3,46.416,30.894,90.222,68.147,58.917,50.1,86.09,87.739,80.759,111.863l-.881-.2C334.828,197.311,153.511,76.245,151.678,75.029Z" transform="translate(-65.991 -15.73)" fill="#52e3ce"/>
              <path id="Path_132" data-name="Path 132" d="M155.607,68.179l.474-.713c.459.305,46.4,30.966,90.2,68.253,58.9,50.146,86.078,87.738,80.775,111.732l-.836-.185C338.711,190.748,157.44,69.4,155.607,68.179Z" transform="translate(-67.322 -13.422)" fill="#55e5cd"/>
              <path id="Path_133" data-name="Path 133" d="M159.535,61.327l.45-.673c.459.306,46.382,31.038,90.17,68.36,58.882,50.188,86.066,87.736,80.791,111.6l-.791-.175c5.131-23.219-22.714-61.536-80.525-110.81C205.877,92.339,159.994,61.633,159.535,61.327Z" transform="translate(-68.653 -11.114)" fill="#57e8cb"/>
              <path id="Path_134" data-name="Path 134" d="M163.464,54.477l.424-.634c.459.307,46.365,31.109,90.144,68.467,58.865,50.23,86.052,87.733,80.807,111.469l-.746-.165c5.105-23.107-22.747-61.393-80.552-110.72C209.8,85.566,163.922,54.784,163.464,54.477Z" transform="translate(-69.985 -8.806)" fill="#5aeaca"/>
              <path id="Path_135" data-name="Path 135" d="M167.393,47.627l.4-.6c.459.307,46.348,31.181,90.118,68.574,25.716,21.968,45.682,41.856,59.344,59.113,17.131,21.637,24.356,39.207,21.48,52.225l-.7-.155c5.083-23-22.784-61.256-80.584-110.634C213.71,78.788,167.851,47.935,167.393,47.627Z" transform="translate(-71.316 -6.498)" fill="#5cecc8"/>
              <path id="Path_136" data-name="Path 136" d="M171.321,40.777l.376-.558c.458.308,46.33,31.253,90.092,68.681,25.71,21.988,45.674,41.88,59.337,59.123,17.128,21.614,24.363,39.138,21.5,52.084l-.656-.145c5.058-22.887-22.818-61.116-80.616-110.548C217.623,72.011,171.78,41.084,171.321,40.777Z" transform="translate(-72.647 -4.189)" fill="#5feec7"/>
              <path id="Path_137" data-name="Path 137" d="M175.252,33.925l.349-.518c.458.309,46.313,31.325,90.065,68.787,25.7,22.009,45.665,41.9,59.331,59.134,17.127,21.6,24.369,39.073,21.525,51.944l-.611-.135c5.035-22.78-22.854-60.98-80.652-110.467C221.535,65.231,175.71,34.234,175.252,33.925Z" transform="translate(-73.979 -1.881)" fill="#61f0c5"/>
              <path id="Path_138" data-name="Path 138" d="M179.181,27.075l.324-.48c.458.309,46.3,31.4,90.039,68.894,25.7,22.028,45.658,41.927,59.324,59.144,17.127,21.575,24.376,39,21.548,51.8l-.566-.125c2.787-12.621-4.422-29.885-21.435-51.317-13.644-17.188-33.579-37.06-59.249-59.065C225.449,58.453,179.638,27.385,179.181,27.075Z" transform="translate(-75.31 0.427)" fill="#64f2c4"/>
              <path id="Path_139" data-name="Path 139" d="M183.11,20.225l.3-.441c.458.31,46.279,31.469,90.013,69,25.692,22.049,45.65,41.951,59.318,59.154,17.125,21.553,24.383,38.934,21.569,51.661l-.52-.115c2.776-12.561-4.446-29.791-21.465-51.213-13.648-17.177-33.581-37.054-59.247-59.079C229.366,51.679,183.568,20.536,183.11,20.225Z" transform="translate(-76.642 2.735)" fill="#66f4c2"/>
              <path id="Path_140" data-name="Path 140" d="M187.039,13.375l.274-.4c.458.311,46.262,31.541,89.986,69.107,25.687,22.068,45.642,41.974,59.312,59.165,17.124,21.533,24.388,38.867,21.592,51.52l-.475-.106c2.762-12.5-4.47-29.7-21.5-51.11-13.651-17.166-33.583-37.048-59.246-59.1C233.28,44.9,187.5,13.686,187.039,13.375Z" transform="translate(-77.973 5.043)" fill="#69f6c1"/>
              <path id="Path_141" data-name="Path 141" d="M190.968,6.525l.249-.365c.458.312,46.244,31.613,89.96,69.214,25.681,22.089,45.635,42,59.307,59.175,17.121,21.511,24.394,38.8,21.614,51.379l-.43-.1c2.749-12.444-4.493-29.6-21.529-51.009-13.655-17.155-33.589-37.044-59.249-59.114C237.192,38.124,191.426,6.836,190.968,6.525Z" transform="translate(-79.304 7.351)" fill="#6bf9bf"/>
              <path id="Path_142" data-name="Path 142" d="M194.9-.326l.223-.327c.457.313,46.227,31.686,89.934,69.321,25.675,22.108,45.626,42.02,59.3,59.185,17.121,21.491,24.4,38.729,21.637,51.237l-.385-.085c2.737-12.384-4.518-29.511-21.561-50.906-13.658-17.144-33.593-37.04-59.249-59.131C241.106,31.346,195.355-.014,194.9-.326Z" transform="translate(-80.636 9.66)" fill="#6efbbe"/>
              <path id="Path_143" data-name="Path 143" d="M198.827-7.176l.2-.288c.458.313,46.21,31.757,89.908,69.427,25.669,22.128,45.618,42.044,59.294,59.2,17.119,21.471,24.408,38.663,21.659,51.1l-.34-.075c2.724-12.327-4.541-29.419-21.591-50.8-13.662-17.134-33.6-37.033-59.248-59.147C245.023,24.571,199.284-6.863,198.827-7.176Z" transform="translate(-81.967 11.968)" fill="#70fdbc"/>
              <path id="Path_144" data-name="Path 144" d="M202.756-14.027l.172-.249c.457.314,46.192,31.829,89.883,69.534,25.663,22.147,45.61,42.067,59.287,59.205,17.119,21.45,24.413,38.594,21.683,50.955l-.3-.065c2.712-12.268-4.563-29.326-21.622-50.7-13.665-17.123-33.6-37.029-59.247-59.164C248.937,17.794,203.213-13.713,202.756-14.027Z" transform="translate(-83.299 14.276)" fill="#73ffbb"/>
            </g>
          </g>
        </g>
        <path id="Path_146" data-name="Path 146" d="M274.911,340.241a17.576,17.576,0,0,0-7.441,8.077c-2.883,6.846.12,15.06,5.41,20.275,7.763,7.654,18.807,9.7,28.47,13.913,10.9,4.749,16.618,18.085,28.8,20.08,7.5,1.229,14.859-2.9,20.662-7.814,9.581-8.114,16.811-18.627,23.355-29.342,10.013-16.4,18.71-34.373,14.231-54.031-.977-4.286-2.725-8.745-6.41-11.144-4.2-2.735-9.929-2-14.283.482s-7.646,6.43-10.873,10.265c-6.6,7.841-13.663,15.8-23.044,19.928-15.866,6.983-34.628,1.53-51.337,6.149A30.564,30.564,0,0,0,274.911,340.241Z" transform="translate(-180.514 -178.643)" fill="url(#radial-gradient-3)"/>
        <ellipse id="Ellipse_60" data-name="Ellipse 60" cx="77.861" cy="58.682" rx="77.861" ry="58.682" transform="translate(44.414 157.074) rotate(-30.415)" fill="url(#radial-gradient-4)" style="mix-blend-mode: multiply;isolation: isolate"/>
        <ellipse id="Ellipse_61" data-name="Ellipse 61" cx="37.993" cy="50.41" rx="37.993" ry="50.41" transform="translate(66.639 191.553) rotate(-72.699)" fill="url(#radial-gradient-5)" style="mix-blend-mode: multiply;isolation: isolate"/>
        <path id="Path_147" data-name="Path 147" d="M208.69,184.07c4.544-9.483,12.208-18.224,23.747-17.443,7.476.506,14.6,6.1,15.95,13.466,1,5.478-1.049,11.074-.764,16.636.368,7.177,4.6,13.626,9.626,18.76s10.953,9.326,15.977,14.465c2.206,2.256,4.285,4.785,5.167,7.815a17.512,17.512,0,0,1-.177,8.9,16.994,16.994,0,0,1-3.734,7.782,13.788,13.788,0,0,1-6.822,3.8c-7.037,1.733-14.452-.938-20.643-4.707-6.134-3.734-11.562-9-18.124-11.971-6.92-3.135-14.808-4.217-22.34-4.383-4.015-.088-8.128-.3-11.822-1.877s-6.937-4.785-7.459-8.767a12.14,12.14,0,0,1,1.141-6.4c1.973-4.471,5.558-7.991,8.413-11.956C202.107,200.85,204.815,192.156,208.69,184.07Z" transform="translate(-153.692 -133.937)" fill="url(#radial-gradient-6)"/>
        <ellipse id="Ellipse_62" data-name="Ellipse 62" cx="57.653" cy="43.452" rx="57.653" ry="43.452" transform="translate(26.466 100.095) rotate(-26.591)" fill="url(#radial-gradient-7)" style="mix-blend-mode: multiply;isolation: isolate"/>
        <path id="Path_148" data-name="Path 148" d="M261.659,231.281c12.482-8.4,22.326-20.375,31.175-32.879,4.2-5.935,8.914-12.425,16-14.059,6.425-1.482,13.285,1.695,17.593,6.686s6.428,11.515,7.617,18c2.768,15.1,1.033,30.641-1.482,45.78-1.9,11.466-4.278,22.945-8.776,33.662s-11.263,20.711-20.659,27.552c-16.282,11.854-38.321,12.772-58.008,8.522-12.982-2.8-25.4-7.6-37.79-12.285-12.471-4.719-24.045-9.25-35.476-16.251-4.54-2.781-9.159-6.019-11.386-10.855-2.927-6.354-.875-14.185,3.6-19.563s10.965-8.676,17.54-11.064c20.3-7.373,42.258-8.154,62.778-14.78A68.569,68.569,0,0,0,261.659,231.281Z" transform="translate(-144.172 -139.832)" fill="url(#radial-gradient-8)"/>
        <rect id="Rectangle_184" data-name="Rectangle 184" width="4.389" height="40.532" rx="2.194" transform="matrix(-0.814, -0.581, 0.581, -0.814, 19.501, 179.789)" fill="url(#radial-gradient-9)"/>
        <rect id="Rectangle_185" data-name="Rectangle 185" width="4.389" height="30.274" rx="2.194" transform="translate(173.685 97.398) rotate(-144.48)" opacity="0.8" fill="url(#radial-gradient-10)"/>
        <circle id="Ellipse_63" data-name="Ellipse 63" cx="4.955" cy="4.955" r="4.955" transform="translate(136.313 39.19)" opacity="0.8" fill="url(#radial-gradient-11)"/>
        <ellipse id="Ellipse_64" data-name="Ellipse 64" cx="21.375" cy="16.11" rx="21.375" ry="16.11" transform="translate(107.419 93.169) rotate(-45)" opacity="0.5" fill="url(#radial-gradient-12)" style="mix-blend-mode: multiply;isolation: isolate"/>
        <g id="Group_21" data-name="Group 21" transform="translate(103.105 52.968)">
          <path id="Path_149" data-name="Path 149" d="M292.665,206.831c-1.057-2.576,2.15-7.694,9.453-9.077,6.969-1.507,18.036.72,24.978,9.974,7.414,8.881,7.041,20.163,3.975,26.6-3.023,6.791-8.74,8.737-11,7.117-4.493-4.255-5.5-14.423-10.907-19.518C305.442,215.492,295.775,212.181,292.665,206.831Z" transform="translate(-292.468 -197.322)" fill="url(#radial-gradient-13)"/>
        </g>
        <circle id="Ellipse_65" data-name="Ellipse 65" cx="2.33" cy="2.33" r="2.33" transform="translate(156.241 152.367)" fill="url(#radial-gradient-14)"/>
        <circle id="Ellipse_66" data-name="Ellipse 66" cx="2.33" cy="2.33" r="2.33" transform="translate(213.837 110.813)" fill="url(#radial-gradient-15)"/>
        <path id="Path_150" data-name="Path 150" d="M278.928,441.872a3.318,3.318,0,1,1,3.318,3.318A3.318,3.318,0,0,1,278.928,441.872Z" transform="translate(-184.775 -226.095)" fill="url(#radial-gradient-16)"/>
        <path id="Path_151" data-name="Path 151" d="M182.176,308.954a3.318,3.318,0,1,1,3.318,3.318A3.318,3.318,0,0,1,182.176,308.954Z" transform="translate(-151.991 -181.056)" opacity="0.6" fill="url(#radial-gradient-17)"/>
      </g>
      <ellipse id="Ellipse_67" data-name="Ellipse 67" cx="94.638" cy="21.1" rx="94.638" ry="21.1" transform="translate(142.672 351.952)" opacity="0.2" fill="url(#radial-gradient-18)" style="mix-blend-mode: multiply;isolation: isolate"/>
      <ellipse id="Ellipse_68" data-name="Ellipse 68" cx="46.676" cy="10.406" rx="46.676" ry="10.406" transform="translate(190.634 362.645)" opacity="0.2" fill="url(#radial-gradient-19)" style="mix-blend-mode: multiply;isolation: isolate"/>
    </g>
    <g transform="matrix(1, 0, 0, 1, 68.02, 188.97)" filter="url(#ios-trophy)">
      <path id="ios-trophy-2" data-name="ios-trophy" d="M134.945,71.786H120.671V67.46A3.471,3.471,0,0,0,117.21,64H68.763A3.471,3.471,0,0,0,65.3,67.46v4.326H51.028A3.037,3.037,0,0,0,48,74.814c0,8.932,1.687,14.275,4.888,19.552a17.611,17.611,0,0,0,12.177,8.716,1.776,1.776,0,0,1,1.341,1.06c1.341,3.331,4.369,7.527,11.052,11.29A41.7,41.7,0,0,0,88.639,120.1a1.736,1.736,0,0,1,1.341,1.687v17.476A1.735,1.735,0,0,1,88.25,141H74.062a3.1,3.1,0,0,0-3.114,2.877,3.032,3.032,0,0,0,3.028,3.179h37.979a3.1,3.1,0,0,0,3.114-2.877A3.032,3.032,0,0,0,112.041,141H97.766a1.735,1.735,0,0,1-1.73-1.73V121.812a1.736,1.736,0,0,1,1.341-1.687,42.723,42.723,0,0,0,11.182-4.672c6.683-3.763,9.711-7.959,11.052-11.29a1.732,1.732,0,0,1,1.341-1.06,17.611,17.611,0,0,0,12.177-8.716c3.158-5.3,4.845-10.641,4.845-19.574A3.037,3.037,0,0,0,134.945,71.786ZM65.3,95.707a.869.869,0,0,1-1.168.822,12.6,12.6,0,0,1-6.618-6.251,22.776,22.776,0,0,1-3.266-10.555,1.733,1.733,0,0,1,1.73-1.882h7.591a1.735,1.735,0,0,1,1.73,1.73Zm63.154-5.429a12.6,12.6,0,0,1-6.618,6.251.869.869,0,0,1-1.168-.822V79.572a1.735,1.735,0,0,1,1.73-1.73h7.591a1.733,1.733,0,0,1,1.73,1.882A23.038,23.038,0,0,1,128.457,90.278Z" transform="translate(18.98 28.98)" fill="#fff"/>
    </g>
  </g>
</svg>
