<svg xmlns="http://www.w3.org/2000/svg" xmlns:xlink="http://www.w3.org/1999/xlink" width="136.742" height="136.747" viewBox="0 0 136.742 136.747"><defs><style>.a{fill:#fff;}.b{filter:url(#a);}</style><filter id="a" x="0" y="0" width="136.742" height="136.747" filterUnits="userSpaceOnUse"><feOffset dy="3" input="SourceAlpha"/><feGaussianBlur stdDeviation="3" result="b"/><feFlood flood-color="#009aea"/><feComposite operator="in" in2="b"/><feComposite in="SourceGraphic"/></filter></defs><g class="b" transform="matrix(1, 0, 0, 1, 0, 0)"><path class="a" d="M182.692,179.748c-2.226-9.834-14.936-14.627-19.327-16.173-4.824-1.7-11.689-2.1-16.111-3.092-2.536-.557-6.216-1.948-7.453-3.433s-.495-15.245-.495-15.245a45.867,45.867,0,0,0,3.525-6.71c1.237-3.123,2.6-11.72,2.6-11.72s2.536,0,3.433-4.453c.959-4.855,2.474-6.741,2.288-10.359-.186-3.556-2.134-3.463-2.134-3.463s1.886-5.164,2.1-15.864C151.4,76.524,141.44,64,123.411,64c-18.276,0-28.017,12.524-27.739,25.234.247,10.7,2.072,15.864,2.072,15.864S95.8,105,95.611,108.561c-.186,3.618,1.33,5.5,2.288,10.359.866,4.453,3.433,4.453,3.433,4.453s1.361,8.6,2.6,11.72a45.869,45.869,0,0,0,3.525,6.71s.742,13.761-.495,15.245-4.917,2.876-7.453,3.433c-4.422.99-11.287,1.392-16.111,3.092-4.391,1.546-17.1,6.339-19.327,16.173a2.472,2.472,0,0,0,2.443,3H180.28A2.467,2.467,0,0,0,182.692,179.748Z" transform="translate(-55.01 -58)"/></g></svg>