<svg xmlns="http://www.w3.org/2000/svg" width="13.996" height="14" viewBox="0 0 13.996 14"><defs><style>.a{fill:#00a8ff;}</style></defs><path class="a" d="M76.841,71A1.8,1.8,0,0,1,78,69.318a7.139,7.139,0,0,0-.864-2.081,1.825,1.825,0,0,1-.733.157,1.8,1.8,0,0,1-1.644-2.53A7.117,7.117,0,0,0,72.678,64a1.8,1.8,0,0,1-3.361,0,7.139,7.139,0,0,0-2.081.864,1.8,1.8,0,0,1-1.644,2.53,1.766,1.766,0,0,1-.733-.157A7.3,7.3,0,0,0,64,69.322a1.8,1.8,0,0,1,0,3.361,7.139,7.139,0,0,0,.864,2.081,1.8,1.8,0,0,1,2.373,2.373A7.181,7.181,0,0,0,69.322,78a1.8,1.8,0,0,1,3.353,0,7.139,7.139,0,0,0,2.081-.864,1.8,1.8,0,0,1,2.373-2.373,7.18,7.18,0,0,0,.864-2.081A1.81,1.81,0,0,1,76.841,71Zm-5.81,2.912a2.916,2.916,0,1,1,2.916-2.916A2.915,2.915,0,0,1,71.031,73.91Z" transform="translate(-64 -64)"/></svg>