<svg xmlns="http://www.w3.org/2000/svg" xmlns:xlink="http://www.w3.org/1999/xlink" width="93.547" height="100.415" viewBox="0 0 93.547 100.415"><defs><style>.a{fill:#fff;}.b{filter:url(#a);}</style><filter id="a" x="0" y="0" width="93.547" height="100.415" filterUnits="userSpaceOnUse"><feOffset dy="3" input="SourceAlpha"/><feGaussianBlur stdDeviation="3" result="b"/><feFlood flood-color="#009aea"/><feComposite operator="in" in2="b"/><feComposite in="SourceGraphic"/></filter></defs><g class="b" transform="matrix(1, 0, 0, 1, 0, 0)"><path class="a" d="M102.321,146.415h10.3a1.722,1.722,0,0,0,1.717-1.717V65.717A1.722,1.722,0,0,0,112.623,64h-10.3a1.722,1.722,0,0,0-1.717,1.717V144.7A1.722,1.722,0,0,0,102.321,146.415Zm-20.6,0h10.3a1.722,1.722,0,0,0,1.717-1.717V113.793a1.722,1.722,0,0,0-1.717-1.717h-10.3A1.722,1.722,0,0,0,80,113.793V144.7A1.722,1.722,0,0,0,81.717,146.415Zm41.229,0h10.259a1.731,1.731,0,0,0,1.738-1.738v-44.6a1.731,1.731,0,0,0-1.738-1.738H122.946a1.731,1.731,0,0,0-1.738,1.738v44.6a1.731,1.731,0,0,0,1.738,1.738Zm18.865-66.941v65.2a1.731,1.731,0,0,0,1.738,1.738h10.259a1.731,1.731,0,0,0,1.738-1.738v-65.2a1.731,1.731,0,0,0-1.738-1.738H143.55A1.731,1.731,0,0,0,141.811,79.474Z" transform="translate(-71 -58)"/></g></svg>