<svg xmlns="http://www.w3.org/2000/svg" xmlns:xlink="http://www.w3.org/1999/xlink" width="98.801" height="98.801" viewBox="0 0 98.801 98.801"><defs><style>.a{fill:#fff;}.b{filter:url(#a);}</style><filter id="a" x="0" y="0" width="98.801" height="98.801" filterUnits="userSpaceOnUse"><feOffset dy="3" input="SourceAlpha"/><feGaussianBlur stdDeviation="3" result="b"/><feFlood flood-color="#009aea"/><feComposite operator="in" in2="b"/><feComposite in="SourceGraphic"/></filter></defs><g class="b" transform="matrix(1, 0, 0, 1, 0, 0)"><path class="a" d="M48,54.738v67.324a6.742,6.742,0,0,0,6.738,6.738h67.324a6.742,6.742,0,0,0,6.738-6.738V54.738A6.742,6.742,0,0,0,122.063,48H54.738A6.729,6.729,0,0,0,48,54.738Zm17.341,57.693a3.878,3.878,0,1,1,3.34-3.34A3.866,3.866,0,0,1,65.341,112.431Zm0-20.2a3.878,3.878,0,1,1,3.34-3.34A3.866,3.866,0,0,1,65.341,92.236Zm0-20.2a3.878,3.878,0,1,1,3.34-3.34A3.866,3.866,0,0,1,65.341,72.04ZM113.382,111.3H78.429a2.719,2.719,0,1,1,0-5.437h34.953a2.719,2.719,0,1,1,0,5.437Zm0-20.2H78.429a2.719,2.719,0,1,1,0-5.437h34.953a2.719,2.719,0,1,1,0,5.437Zm0-20.2H78.429a2.719,2.719,0,1,1,0-5.437h34.953a2.719,2.719,0,1,1,0,5.437Z" transform="translate(-39 -42)"/></g></svg>