<svg xmlns="http://www.w3.org/2000/svg" xmlns:xlink="http://www.w3.org/1999/xlink" width="145.658" height="136.54" viewBox="0 0 145.658 136.54"><defs><style>.a{fill:#fff;}.b{filter:url(#a);}</style><filter id="a" x="0" y="0" width="145.658" height="136.54" filterUnits="userSpaceOnUse"><feOffset dy="3" input="SourceAlpha"/><feGaussianBlur stdDeviation="3" result="b"/><feFlood flood-color="#009aea"/><feComposite operator="in" in2="b"/><feComposite in="SourceGraphic"/></filter></defs><g class="b" transform="matrix(1, 0, 0, 1, 0, 0)"><path class="a" d="M154.814,89.033H112.9L100.16,51.02a4.616,4.616,0,0,0-8.663,0L78.76,89.033h-42.2A4.573,4.573,0,0,0,32,93.592a3.351,3.351,0,0,0,.085.769,4.38,4.38,0,0,0,1.909,3.22l34.451,24.278L55.223,160.3a4.572,4.572,0,0,0,1.567,5.129,4.409,4.409,0,0,0,2.565,1.111,5.586,5.586,0,0,0,2.85-1.026l33.624-23.964,33.624,23.964a5.339,5.339,0,0,0,2.85,1.026,4.094,4.094,0,0,0,2.536-1.111,4.516,4.516,0,0,0,1.567-5.129l-13.222-38.44L157.35,97.353l.826-.712a4.357,4.357,0,0,0-3.362-7.608Z" transform="translate(-23 -42)"/></g></svg>