<svg xmlns="http://www.w3.org/2000/svg" width="20.117" height="20.118" viewBox="0 0 20.117 20.118"><defs><style>.a{fill:#F07532;}</style></defs><path class="a" d="M84.117,83.61c-.377-1.666-2.531-2.478-3.274-2.74a24.414,24.414,0,0,0-2.73-.524,2.773,2.773,0,0,1-1.263-.582,11.035,11.035,0,0,1-.084-2.583,7.771,7.771,0,0,0,.6-1.137,14.663,14.663,0,0,0,.44-1.986s.43,0,.582-.754a7.422,7.422,0,0,0,.388-1.755c-.031-.6-.361-.587-.361-.587a9.186,9.186,0,0,0,.356-2.688C78.815,66.122,77.128,64,74.073,64c-3.1,0-4.747,2.122-4.7,4.275a9.581,9.581,0,0,0,.351,2.688s-.33-.016-.362.587a7.423,7.423,0,0,0,.388,1.755c.147.754.582.754.582.754a14.665,14.665,0,0,0,.44,1.986,7.772,7.772,0,0,0,.6,1.137,11.035,11.035,0,0,1-.084,2.583,2.773,2.773,0,0,1-1.263.582,24.413,24.413,0,0,0-2.73.524c-.744.262-2.9,1.074-3.274,2.74a.419.419,0,0,0,.414.508H83.708A.418.418,0,0,0,84.117,83.61Z" transform="translate(-64.009 -64)"/></svg>