<svg xmlns="http://www.w3.org/2000/svg" xmlns:xlink="http://www.w3.org/1999/xlink" width="81.2" height="102.266" viewBox="0 0 81.2 102.266"><defs><style>.a{fill:#fff;}.b{filter:url(#a);}</style><filter id="a" x="0" y="0" width="81.2" height="102.266" filterUnits="userSpaceOnUse"><feOffset dy="3" input="SourceAlpha"/><feGaussianBlur stdDeviation="3" result="b"/><feFlood flood-color="#009aea"/><feComposite operator="in" in2="b"/><feComposite in="SourceGraphic"/></filter></defs><g class="b" transform="matrix(1, 0, 0, 1, 0, 0)"><path class="a" d="M171.689,64c-5.442,0-10.533,16.963-10.533,35.111,0,12.508,7.022,17.556,7.022,17.556v28.089a3.511,3.511,0,1,0,7.022,0V66.414C175.2,64,172.786,64,171.689,64Zm-21.067,0,2.194,22.822a1.756,1.756,0,1,1-3.511,0L147.989,64h-1.756l-1.317,22.822a1.756,1.756,0,1,1-3.511,0L143.6,64h-1.755s-5.267,23.524-5.267,28.089a10.555,10.555,0,0,0,7.022,9.919v42.748a3.511,3.511,0,0,0,7.022,0V102.008a10.512,10.512,0,0,0,7.022-9.919c0-4.608-5.267-28.089-5.267-28.089Zm-28.089,0C116.718,64,112,78.044,112,92.089a10.555,10.555,0,0,0,7.022,9.919v42.748a3.511,3.511,0,0,0,7.022,0V102.008a10.512,10.512,0,0,0,7.022-9.919C133.067,78.044,128.349,64,122.533,64Z" transform="translate(-103 -58)"/></g></svg>