<svg xmlns="http://www.w3.org/2000/svg" width="27.501" height="27.501" viewBox="0 0 27.501 27.501"><defs><style>.a{fill:#b9b9b9;}</style></defs><path class="a" d="M48,50.293V73.208A2.3,2.3,0,0,0,50.293,75.5H73.208A2.3,2.3,0,0,0,75.5,73.208V50.293A2.3,2.3,0,0,0,73.208,48H50.293A2.29,2.29,0,0,0,48,50.293ZM53.9,69.93a1.32,1.32,0,1,1,1.137-1.137A1.316,1.316,0,0,1,53.9,69.93Zm0-6.874a1.32,1.32,0,1,1,1.137-1.137A1.316,1.316,0,0,1,53.9,63.056Zm0-6.874a1.32,1.32,0,1,1,1.137-1.137A1.316,1.316,0,0,1,53.9,56.182ZM70.254,69.546h-11.9a.925.925,0,1,1,0-1.851h11.9a.925.925,0,1,1,0,1.851Zm0-6.874h-11.9a.925.925,0,1,1,0-1.851h11.9a.925.925,0,1,1,0,1.851Zm0-6.874h-11.9a.925.925,0,1,1,0-1.851h11.9a.925.925,0,1,1,0,1.851Z" transform="translate(-48 -48)"/></svg>