<svg xmlns="http://www.w3.org/2000/svg" width="9.81" height="19.03" viewBox="0 0 9.81 19.03"><defs><style>.a{fill:#009aea;}</style></defs><path class="a" d="M149.552,37.483a.663.663,0,0,0-.663.663V46.4a3.425,3.425,0,0,1-.934,2.34,3.361,3.361,0,0,1-2.357,1.007h-.578a3.3,3.3,0,0,1-2.327-1.045,3.41,3.41,0,0,1-1.015-2.344V35.707a2.308,2.308,0,0,1,.735-1.678,2.527,2.527,0,0,1,1.741-.692,2.364,2.364,0,0,1,2.387,2.37v9.946a1.342,1.342,0,0,1-1.232,1.367,1.305,1.305,0,0,1-1.2-1.367V39.98a.663.663,0,0,0-1.325,0v5.674a2.548,2.548,0,0,0,4.336,1.911,2.683,2.683,0,0,0,.743-1.911V35.707A3.712,3.712,0,0,0,144.141,32a3.727,3.727,0,0,0-2.642,1.083,3.664,3.664,0,0,0-1.1,2.629V46.363a4.746,4.746,0,0,0,1.384,3.313,4.59,4.59,0,0,0,3.232,1.355h.578a4.639,4.639,0,0,0,3.223-1.363,4.771,4.771,0,0,0,1.015-1.469,4.447,4.447,0,0,0,.378-1.788V38.145A.657.657,0,0,0,149.552,37.483Z" transform="translate(-140.4 -32)"/></svg>