<svg xmlns="http://www.w3.org/2000/svg" width="12" height="12" viewBox="0 0 12 12"><defs><style>.a{fill:#fff;}</style></defs><path class="a" d="M75,64H65a1,1,0,0,0-1,1V75a1,1,0,0,0,1,1H75a1,1,0,0,0,1-1V65A1,1,0,0,0,75,64Zm-1.641,4.2-4.178,4.2h0a.564.564,0,0,1-.362.172.547.547,0,0,1-.366-.178l-1.75-1.75a.125.125,0,0,1,0-.178l.556-.556a.121.121,0,0,1,.175,0L68.819,71.3l3.813-3.841a.123.123,0,0,1,.088-.038.113.113,0,0,1,.088.038l.547.566A.123.123,0,0,1,73.359,68.2Z" transform="translate(-64 -64)"/></svg>