<svg xmlns="http://www.w3.org/2000/svg" width="15.719" height="12" viewBox="0 0 15.719 12"><defs><style>.a{fill:#fff;}</style></defs><g transform="translate(-64.4 -104.442)"><circle class="a" cx="1" cy="1" r="1" transform="translate(64.4 109.442)"/><circle class="a" cx="1" cy="1" r="1" transform="translate(64.4 104.442)"/><circle class="a" cx="1" cy="1" r="1" transform="translate(64.4 114.442)"/><path class="a" d="M186.228,121.186H176.169a.669.669,0,1,0,0,1.338h10.059a.669.669,0,1,0,0-1.338Zm0,5.186H176.169a.669.669,0,1,0,0,1.338h10.059a.669.669,0,1,0,0-1.338Zm-10.059-9.034h10.059a.669.669,0,1,0,0-1.338H176.169a.669.669,0,1,0,0,1.338Z" transform="translate(-106.778 -11.434)"/></g></svg>