<svg xmlns="http://www.w3.org/2000/svg" width="15" height="15" viewBox="0 0 15 15"><defs><style>.a{fill:#fff;}</style></defs><path class="a" d="M48,49.251v12.5A1.252,1.252,0,0,0,49.251,63h12.5A1.252,1.252,0,0,0,63,61.749v-12.5A1.252,1.252,0,0,0,61.749,48h-12.5A1.249,1.249,0,0,0,48,49.251Zm3.219,10.71a.72.72,0,1,1,.62-.62A.718.718,0,0,1,51.219,59.961Zm0-3.749a.72.72,0,1,1,.62-.62A.718.718,0,0,1,51.219,56.212Zm0-3.749a.72.72,0,1,1,.62-.62A.718.718,0,0,1,51.219,52.463Zm8.918,7.289H53.649a.5.5,0,1,1,0-1.009h6.489a.5.5,0,0,1,0,1.009Zm0-3.749H53.649a.5.5,0,1,1,0-1.009h6.489a.5.5,0,0,1,0,1.009Zm0-3.749H53.649a.5.5,0,1,1,0-1.009h6.489a.5.5,0,1,1,0,1.009Z" transform="translate(-48 -48)"/></svg>