<svg xmlns="http://www.w3.org/2000/svg" width="18.166" height="21.51" viewBox="0 0 18.166 21.51"><defs><style>.a{fill:#F07532;}</style></defs><g transform="translate(-64 -31.517)"><circle class="a" cx="2.5" cy="2.5" r="2.5" transform="translate(70.166 31.517)"/><path class="a" d="M81.03,144H65.135a1.135,1.135,0,0,0,0,2.271h4.66a1,1,0,0,1,.814.672,5.614,5.614,0,0,1-.024,2.446l-.18,1.012a.017.017,0,0,1,0,.014l-1.438,8.146a1.136,1.136,0,0,0,.922,1.315,1.124,1.124,0,0,0,1.306-.922l.993-5.672v.009s.293-1.537.875-1.537h.052c.591,0,.875,1.537.875,1.537v0l.993,5.672a1.132,1.132,0,1,0,2.228-.4l-1.438-8.146a.017.017,0,0,0,0-.014l-.18-1.012a5.614,5.614,0,0,1-.024-2.446,1,1,0,0,1,.814-.672H81.03a1.135,1.135,0,1,0,0-2.271Z" transform="translate(0 -106.866)"/></g></svg>