<svg xmlns="http://www.w3.org/2000/svg" xmlns:xlink="http://www.w3.org/1999/xlink" width="107.637" height="100.742" viewBox="0 0 107.637 100.742"><defs><style>.a{fill:#fff;}.b{filter:url(#a);}</style><filter id="a" x="0" y="0" width="107.637" height="100.742" filterUnits="userSpaceOnUse"><feOffset dy="3" input="SourceAlpha"/><feGaussianBlur stdDeviation="3" result="b"/><feFlood flood-color="#009aea"/><feComposite operator="in" in2="b"/><feComposite in="SourceGraphic"/></filter></defs><g class="b" transform="matrix(1, 0, 0, 1, 0, 0)"><path class="a" d="M129.018,70.9H120.4v5.171a1.729,1.729,0,0,1-1.724,1.724h-3.448a1.729,1.729,0,0,1-1.724-1.724V70.9H72.133v5.171a1.729,1.729,0,0,1-1.724,1.724H66.962a1.729,1.729,0,0,1-1.724-1.724V70.9H56.619A8.644,8.644,0,0,0,48,79.514v58.609a8.644,8.644,0,0,0,8.619,8.619h72.4a8.644,8.644,0,0,0,8.619-8.619V79.514A8.644,8.644,0,0,0,129.018,70.9Zm1.724,64.642a4.322,4.322,0,0,1-4.309,4.309H59.2a4.322,4.322,0,0,1-4.309-4.309V96.752a1.729,1.729,0,0,1,1.724-1.724h72.4a1.729,1.729,0,0,1,1.724,1.724ZM72.133,65.724A1.729,1.729,0,0,0,70.409,64H66.962a1.729,1.729,0,0,0-1.724,1.724V70.9h6.9Zm48.266,0A1.729,1.729,0,0,0,118.675,64h-3.448a1.729,1.729,0,0,0-1.724,1.724V70.9h6.9Z" transform="translate(-39 -58)"/></g></svg>