<svg xmlns="http://www.w3.org/2000/svg" width="26.327" height="24.302" viewBox="0 0 26.327 24.302"><defs><style>.a{fill:#F07532;}</style></defs><path class="a" d="M71.8,66.025H69.264v1.519a.508.508,0,0,1-.506.506H67.745a.508.508,0,0,1-.506-.506V66.025H55.088v1.519a.508.508,0,0,1-.506.506H53.569a.508.508,0,0,1-.506-.506V66.025H50.531A2.539,2.539,0,0,0,48,68.557V85.77A2.539,2.539,0,0,0,50.531,88.3H71.8a2.539,2.539,0,0,0,2.531-2.531V68.557A2.539,2.539,0,0,0,71.8,66.025ZM72.3,85.011a1.269,1.269,0,0,1-1.266,1.266H51.291a1.269,1.269,0,0,1-1.266-1.266V73.619a.508.508,0,0,1,.506-.506H71.8a.508.508,0,0,1,.506.506Zm-17.214-20.5A.508.508,0,0,0,54.582,64H53.569a.508.508,0,0,0-.506.506v1.519h2.025Zm14.176,0A.508.508,0,0,0,68.758,64H67.745a.508.508,0,0,0-.506.506v1.519h2.025Z" transform="translate(-48 -64)"/></svg>