<svg xmlns="http://www.w3.org/2000/svg" width="25.208" height="27.5" viewBox="0 0 25.208 27.5"><defs><style>.a{fill:#b9b9b9;}</style></defs><path class="a" d="M87.448,91.5h3.438a.575.575,0,0,0,.573-.573V64.573A.575.575,0,0,0,90.885,64H87.448a.575.575,0,0,0-.573.573V90.927A.575.575,0,0,0,87.448,91.5Zm-6.875,0H84.01a.575.575,0,0,0,.573-.573V80.615a.575.575,0,0,0-.573-.573H80.573a.575.575,0,0,0-.573.573V90.927A.575.575,0,0,0,80.573,91.5Zm13.757,0h3.423a.578.578,0,0,0,.58-.58V76.038a.578.578,0,0,0-.58-.58H94.33a.578.578,0,0,0-.58.58V90.92a.578.578,0,0,0,.58.58Zm6.295-22.337V90.92a.578.578,0,0,0,.58.58h3.423a.578.578,0,0,0,.58-.58V69.163a.578.578,0,0,0-.58-.58h-3.423A.578.578,0,0,0,100.625,69.163Z" transform="translate(-80 -64)"/></svg>