<svg xmlns="http://www.w3.org/2000/svg" width="17.517" height="12.127" viewBox="0 0 17.517 12.127"><defs><style>.a{fill:#fff;}</style></defs><path class="a" d="M65.374,146.711l-4.531,4.615a.081.081,0,0,0,0,.118l3.171,3.377a.546.546,0,0,1,0,.775.549.549,0,0,1-.775,0l-3.158-3.365a.086.086,0,0,0-.122,0l-.771.783a3.391,3.391,0,0,1-2.417,1.019,3.458,3.458,0,0,1-2.468-1.049l-.741-.754a.086.086,0,0,0-.122,0L50.282,155.6a.549.549,0,0,1-.775,0,.546.546,0,0,1,0-.775l3.171-3.377a.09.09,0,0,0,0-.118l-4.535-4.615a.083.083,0,0,0-.143.059V156a1.351,1.351,0,0,0,1.347,1.347H64.17A1.351,1.351,0,0,0,65.517,156V146.77A.084.084,0,0,0,65.374,146.711Z" transform="translate(-48 -145.224)"/><path class="a" d="M68.349,119.71A2.289,2.289,0,0,0,70,119.02l6.607-6.725a1.323,1.323,0,0,0-.834-.295H60.934a1.315,1.315,0,0,0-.834.295l6.607,6.725A2.29,2.29,0,0,0,68.349,119.71Z" transform="translate(-59.59 -112)"/></svg>