<svg xmlns="http://www.w3.org/2000/svg" width="41.362" height="41.364" viewBox="0 0 41.362 41.364"><defs><style>.a{fill:#009aea;}</style></defs><path class="a" d="M105.351,104.319c-.776-3.425-5.2-5.1-6.732-5.634a50.193,50.193,0,0,0-5.612-1.077,5.7,5.7,0,0,1-2.6-1.2c-.431-.517-.172-5.311-.172-5.311a15.976,15.976,0,0,0,1.228-2.338,30.148,30.148,0,0,0,.9-4.083s.883,0,1.2-1.551c.334-1.691.862-2.348.8-3.609-.065-1.239-.743-1.206-.743-1.206a18.886,18.886,0,0,0,.732-5.526C94.45,68.363,90.981,64,84.7,64c-6.366,0-9.759,4.363-9.662,8.79a19.7,19.7,0,0,0,.722,5.526s-.679-.032-.743,1.206c-.065,1.26.463,1.917.8,3.609.3,1.551,1.2,1.551,1.2,1.551a30.149,30.149,0,0,0,.9,4.083A15.978,15.978,0,0,0,79.143,91.1s.259,4.794-.172,5.311a5.7,5.7,0,0,1-2.6,1.2,50.194,50.194,0,0,0-5.612,1.077c-1.53.539-5.957,2.208-6.732,5.634a.861.861,0,0,0,.851,1.045h39.63A.859.859,0,0,0,105.351,104.319Z" transform="translate(-64.009 -64)"/></svg>