<svg xmlns="http://www.w3.org/2000/svg" width="14.303" height="19.07" viewBox="0 0 14.303 19.07"><defs><style>.a{fill:#fff;}</style></defs><path class="a" d="M125.508,64c-1.232,0-2.384,3.839-2.384,7.946a4.871,4.871,0,0,0,1.589,3.973v6.357a.795.795,0,0,0,1.589,0V64.546C126.3,64,125.756,64,125.508,64Zm-4.768,0,.5,5.165a.4.4,0,0,1-.795,0l-.3-5.165h-.4l-.3,5.165a.4.4,0,0,1-.795,0l.5-5.165h-.4s-1.192,5.324-1.192,6.357a2.389,2.389,0,0,0,1.589,2.245v9.674a.795.795,0,0,0,1.589,0V72.6a2.379,2.379,0,0,0,1.589-2.245c0-1.043-1.192-6.357-1.192-6.357Zm-6.357,0C113.068,64,112,67.178,112,70.357a2.389,2.389,0,0,0,1.589,2.245v9.674a.795.795,0,0,0,1.589,0V72.6a2.379,2.379,0,0,0,1.589-2.245C116.768,67.178,115.7,64,114.384,64Z" transform="translate(-112 -64)"/></svg>