<svg xmlns="http://www.w3.org/2000/svg" width="17.205" height="17.206" viewBox="0 0 17.205 17.206"><defs><style>.a{fill:#fff;}</style></defs><path class="a" d="M81.206,80.771c-.323-1.425-2.164-2.119-2.8-2.343a20.879,20.879,0,0,0-2.334-.448,2.372,2.372,0,0,1-1.08-.5,9.438,9.438,0,0,1-.072-2.209,6.645,6.645,0,0,0,.511-.972,12.54,12.54,0,0,0,.376-1.7s.367,0,.5-.645a6.348,6.348,0,0,0,.332-1.5c-.027-.515-.309-.5-.309-.5a7.856,7.856,0,0,0,.3-2.3A3.692,3.692,0,0,0,72.616,64c-2.648,0-4.06,1.815-4.019,3.656a8.194,8.194,0,0,0,.3,2.3s-.282-.013-.309.5a6.348,6.348,0,0,0,.332,1.5c.125.645.5.645.5.645a12.541,12.541,0,0,0,.376,1.7,6.646,6.646,0,0,0,.511.972,9.438,9.438,0,0,1-.072,2.209,2.372,2.372,0,0,1-1.08.5,20.879,20.879,0,0,0-2.334.448c-.636.224-2.478.919-2.8,2.343a.358.358,0,0,0,.354.435H80.857A.357.357,0,0,0,81.206,80.771Z" transform="translate(-64.009 -64)"/></svg>