<svg xmlns="http://www.w3.org/2000/svg" width="11" height="11.669" viewBox="0 0 11 11.669"><defs><style>.a{fill:#3A3E47;}</style></defs><g transform="translate(-63 -32)"><path class="a" d="M64.732,32a.732.732,0,0,0-.732.732V42.938a.732.732,0,0,0,.732.732h8.852a.417.417,0,1,0,0-.833h-8.32a.428.428,0,0,1-.427-.367A.42.42,0,0,1,65.25,42h5.417V32Z" transform="translate(-1 0)"/><path class="a" d="M369.667,42a.418.418,0,0,0,.417-.417V32.732a.732.732,0,0,0-.732-.732H368V42Z" transform="translate(-296.083)"/></g></svg>