<svg xmlns="http://www.w3.org/2000/svg" width="15.962" height="15.961" viewBox="0 0 15.962 15.961"><defs><style>.a{fill:#fff;}</style></defs><path class="a" d="M61.588,50.337a7.982,7.982,0,1,0,0,11.288A7.984,7.984,0,0,0,61.588,50.337ZM49.56,56.28a.307.307,0,1,1,.242-.242A.307.307,0,0,1,49.56,56.28Zm1.005,3.154a.306.306,0,1,1,.088-.326A.307.307,0,0,1,50.565,59.434Zm.088-6.58a.305.305,0,1,1-.088-.326A.307.307,0,0,1,50.653,52.853Zm2.36,8.805a.305.305,0,1,1-.088-.326A.307.307,0,0,1,53.013,61.659Zm-.088-11.031a.306.306,0,1,1,.088-.326A.307.307,0,0,1,52.925,50.628Zm1.358,2.927a.307.307,0,0,1,.526-.318l1.293,2.39a1.244,1.244,0,0,1,.15.583v4.681a.307.307,0,1,1-.614,0V56.211a.631.631,0,0,0-.073-.292Zm1.723,9.17a.307.307,0,1,1,.242-.242.307.307,0,0,1-.242.242Zm0-12.891a.307.307,0,1,1,.242-.242.307.307,0,0,1-.242.242Zm3.365,11.959a.306.306,0,1,1,.088-.326A.307.307,0,0,1,59.371,61.793Zm.088-11.3a.305.305,0,1,1-.088-.326A.307.307,0,0,1,59.459,50.494Zm2.36,8.805a.305.305,0,1,1-.088-.326A.307.307,0,0,1,61.818,59.3Zm-.088-6.311a.306.306,0,1,1,.088-.326A.307.307,0,0,1,61.73,52.988Zm.721,3.292a.307.307,0,1,1,.242-.242A.307.307,0,0,1,62.452,56.28Z" transform="translate(-47.962 -48)"/></svg>