<svg xmlns="http://www.w3.org/2000/svg" width="18.303" height="24.404" viewBox="0 0 18.303 24.404"><defs><style>.a{fill:#00a8ff;}</style></defs><path class="a" d="M129.286,64c-1.576,0-3.05,4.913-3.05,10.168,0,3.622,2.034,5.084,2.034,5.084v8.135a1.017,1.017,0,0,0,2.034,0V64.7C130.3,64,129.6,64,129.286,64Zm-6.1,0,.635,6.609a.508.508,0,1,1-1.017,0L122.422,64h-.508l-.381,6.609a.508.508,0,1,1-1.017,0L121.151,64h-.508s-1.525,6.813-1.525,8.135a3.057,3.057,0,0,0,2.034,2.873v12.38a1.017,1.017,0,0,0,2.034,0V75.007a3.044,3.044,0,0,0,2.034-2.873c0-1.335-1.525-8.135-1.525-8.135Zm-8.135,0c-1.684,0-3.05,4.067-3.05,8.135a3.057,3.057,0,0,0,2.034,2.873v12.38a1.017,1.017,0,0,0,2.034,0V75.007a3.044,3.044,0,0,0,2.034-2.873C118.1,68.067,116.735,64,115.05,64Z" transform="translate(-112 -64)"/></svg>