<svg xmlns="http://www.w3.org/2000/svg" width="12.9" height="15.475" viewBox="0 0 12.9 15.475"><defs><style>.a{fill:#fff;}</style></defs><path class="a" d="M108.521,64.677c-.125.02-.258.04-.4.056a23.758,23.758,0,0,1-2.442.21,14.829,14.829,0,0,1-3.151-.492A15.435,15.435,0,0,0,99.28,64a5.952,5.952,0,0,0-3.115.54L96,64.657V78.895a.575.575,0,0,0,.5.576.564.564,0,0,0,.633-.56V72.689a.328.328,0,0,1,.258-.318,9.778,9.778,0,0,1,1.894-.157,15.094,15.094,0,0,1,3.087.625,14.208,14.208,0,0,0,3.361.463,19.106,19.106,0,0,0,2.894-.266.325.325,0,0,0,.278-.318V65a.328.328,0,0,0-.379-.318Z" transform="translate(-96 -64)"/></svg>