<svg xmlns="http://www.w3.org/2000/svg" width="24.853" height="14.202" viewBox="0 0 24.853 14.202"><defs><style>.a{fill:#FFFFFF;}</style></defs><path class="a" d="M49.752,136.432H39.1a.445.445,0,0,1-.444-.444v-1.775a.445.445,0,0,1,.444-.444H49.752a.445.445,0,0,1,.444.444v1.775A.445.445,0,0,1,49.752,136.432Zm1.442,4.549V129.22a1.22,1.22,0,0,1,2.441,0v11.761a1.22,1.22,0,0,1-2.441,0Zm4.549-9.431h-.666a.445.445,0,0,0-.444.444v6.213a.445.445,0,0,0,.444.444h.666a1.113,1.113,0,0,0,1.11-1.11V132.66A1.113,1.113,0,0,0,55.744,131.55Zm-18.085,9.431V129.22a1.22,1.22,0,0,0-2.441,0v11.761a1.22,1.22,0,0,0,2.441,0Zm-3.883-9.431H33.11A1.113,1.113,0,0,0,32,132.66v4.882a1.113,1.113,0,0,0,1.11,1.11h.666a.445.445,0,0,0,.444-.444v-6.213A.445.445,0,0,0,33.775,131.55Z" transform="translate(-32 -128)"/></svg>