<svg xmlns="http://www.w3.org/2000/svg" width="21.848" height="16.806" viewBox="0 0 21.848 16.806"><defs><style>.a{fill:#363636;}</style></defs><g transform="translate(-48 -96)"><path class="a" d="M51.865,111.336H49.723a.211.211,0,0,1-.21-.21V97.681a.211.211,0,0,1,.21-.21H51.85a.774.774,0,0,0,.772-.735.69.69,0,0,0-.215-.525.938.938,0,0,0-.625-.21H48.945a.858.858,0,0,0-.945.84v15.126a.814.814,0,0,0,.893.84H51.85a.707.707,0,0,0,.557-1.213A.778.778,0,0,0,51.865,111.336ZM68.955,96H66a.736.736,0,0,0-.735.961.57.57,0,0,0,.042.1.743.743,0,0,0,.677.41h2.143a.211.211,0,0,1,.21.21v13.44a.211.211,0,0,1-.21.21H66a.765.765,0,0,0-.772.73.736.736,0,0,0,.215.546.723.723,0,0,0,.541.2h2.973a.819.819,0,0,0,.893-.861V96.84A.814.814,0,0,0,68.955,96Z"/><path class="a" d="M109.235,145.681a.736.736,0,0,0-.735.73v6.938a.735.735,0,0,0,1.471,0v-6.938A.736.736,0,0,0,109.235,145.681Zm14.023,8.4a.736.736,0,0,0,.735-.73v-6.943a.735.735,0,0,0-1.471,0v6.938A.737.737,0,0,0,123.258,154.084ZM119.949,144a.749.749,0,0,0-.735.756V155a.736.736,0,1,0,1.471,0V144.756A.749.749,0,0,0,119.949,144Zm-7.405,0a.749.749,0,0,0-.735.756V155a.736.736,0,1,0,1.471,0V144.756A.745.745,0,0,0,112.544,144Zm3.7.84a.743.743,0,0,0-.735.746v8.587a.735.735,0,1,0,1.471,0v-8.587A.743.743,0,0,0,116.247,144.84Z" transform="translate(-57.323 -45.479)"/></g></svg>