<svg xmlns="http://www.w3.org/2000/svg" width="27.302" height="48.374" viewBox="0 0 27.302 48.374"><defs><style>.a{fill:#363636;}</style></defs><g transform="translate(-127.995 -26.505)"><path class="a" d="M135.791,279.726l-7.23,5.215a2.151,2.151,0,0,0-.565,1.482,1.762,1.762,0,0,0,.5,1.333,2.042,2.042,0,0,0,1.45.661,3.326,3.326,0,0,0,1.706-.9l7.433-5.5a2.017,2.017,0,0,0,.608-1.44l.97-5.6L135.791,270Z" transform="translate(0 -217.528)"/><circle class="a" cx="3.978" cy="3.978" r="3.978" transform="matrix(0.16, -0.987, 0.987, 0.16, 139.071, 34.358)"/><path class="a" d="M151.75,163.321l-1.621-12.52a1.987,1.987,0,0,0-.448-1.013L143.6,142.45V129.7c0-1.205-.672-1.7-1.952-1.7H137.7a1.75,1.75,0,0,0-.821.245l-7.252,3.381A3.231,3.231,0,0,0,128,134.687v6.964a1.952,1.952,0,1,0,3.9,0v-6.207a.841.841,0,0,1,.469-.757l3.434-1.749v8.03a1.677,1.677,0,0,0,.491,1.194l9.854,10.067a.82.82,0,0,1,.235.48l1.514,11.166a1.932,1.932,0,0,0,1.93,1.674h.213A2.012,2.012,0,0,0,151.75,163.321Z" transform="translate(-0.005 -90.671)"/><path class="a" d="M293.531,146.459,283.4,136.2v5.61l7.38,7.476a1.925,1.925,0,0,0,2.762-.011,1.82,1.82,0,0,0,.587-1.3A2.281,2.281,0,0,0,293.531,146.459Z" transform="translate(-138.832 -97.997)"/></g></svg>