<svg xmlns="http://www.w3.org/2000/svg" width="9.691" height="20.411" viewBox="0 0 9.691 20.411"><defs><style>.a{fill:#FFFFFF;}</style></defs><path class="a" d="M146.835,19.853h-.008a1.926,1.926,0,1,1,1.935-1.926,1.931,1.931,0,0,1-1.926,1.926Zm-1.467,16.558a1.162,1.162,0,0,1-1.148-1.293l.043-11.8h-.425v4.465a1.031,1.031,0,0,1-.272.778.9.9,0,0,1-1.293,0,1.024,1.024,0,0,1-.272-.778V22.608a2.456,2.456,0,0,1,.587-1.633,2.172,2.172,0,0,1,1.658-.765h5.2a2.162,2.162,0,0,1,1.658.77,2.445,2.445,0,0,1,.587,1.629v5.171a1.008,1.008,0,0,1-.281.778.956.956,0,0,1-1.318,0,1.008,1.008,0,0,1-.281-.778V23.314h-.383v11.8a1.178,1.178,0,1,1-2.347.026v-6h-.51v5.991A1.21,1.21,0,0,1,145.368,36.411Z" transform="translate(-142 -16)"/></svg>