<svg xmlns="http://www.w3.org/2000/svg" width="71" height="53.25" viewBox="0 0 71 53.25"><defs><style>.a{fill:#363636;}</style></defs><g transform="translate(-64 -112)"><circle class="a" cx="10.632" cy="10.632" r="10.632" transform="translate(88.868 131.507)"/><path class="a" d="M129.361,120.875H119.284a3,3,0,0,1-2.219-1C111.814,114,109.836,112,107.691,112H91.882c-2.163,0-4.29,2-9.559,7.9a2.943,2.943,0,0,1-2.2.98h-.758V119.4a1.484,1.484,0,0,0-1.479-1.479H73.078A1.484,1.484,0,0,0,71.6,119.4v1.479H70.213c-3.273,0-6.213,2.441-6.213,5.676v32.542a6.4,6.4,0,0,0,6.194,6.157h59.167c3.254,0,5.639-2.921,5.639-6.157V126.551a5.511,5.511,0,0,0-5.639-5.676ZM100.24,157.928a15.807,15.807,0,1,1,15.051-15.051A15.823,15.823,0,0,1,100.24,157.928ZM117.25,131.6a2.4,2.4,0,1,1,2.4-2.4A2.4,2.4,0,0,1,117.25,131.6Z"/></g></svg>