<svg xmlns="http://www.w3.org/2000/svg" width="40" height="40" viewBox="0 0 40 40"><defs><style>.a{fill:#3a3e47;}</style></defs><path class="a" d="M33.6,19.4c-.227-.417-.52-.949-.875-1.527a2.544,2.544,0,0,1,2.142-1.624A2.5,2.5,0,0,1,37.5,18.611q0,.069,0,.139H40a5.028,5.028,0,0,0-1.56-3.625,4.886,4.886,0,0,0-7.3.564A8.106,8.106,0,0,0,25,12.5,9,9,0,0,0,16.875,17l1.65-8.25h4.184A3.545,3.545,0,0,0,26.25,5.209,5.214,5.214,0,0,0,21.041,0H14.366L1.016,18.2a5.257,5.257,0,0,0-.081,6.1A27.2,27.2,0,0,0,18.573,34.987c8.142,1.159,12.75-.917,15.177-2.2V40h2.5V30h-2.6l-.537.289c-2.012,1.092-6.2,3.375-14.181,2.224A24.8,24.8,0,0,1,2.989,22.875a2.75,2.75,0,0,1,.045-3.2L15.634,2.5h5.407A2.711,2.711,0,0,1,23.75,5.209,1.042,1.042,0,0,1,22.709,6.25H16.475l-2.6,13.034L17.6,20.691l.53-.925C19.408,17.531,20.858,15,25,15c2.946,0,4.89,2.831,6.4,5.6,1.375,2.506,5.2,5.3,5.365,5.415l1.465-2.027A19.423,19.423,0,0,1,33.6,19.4Z" transform="translate(0)"/><path class="a" d="M296,333.387v2.5a16.931,16.931,0,0,0,8.8-2.234l-1.194-2.2A14.433,14.433,0,0,1,296,333.387Z" transform="translate(-272.876 -305.561)"/><path class="a" d="M72.622,262.624l-1.949,1.568a23.068,23.068,0,0,0,8.339,6.39l1.012-2.285A20.44,20.44,0,0,1,72.622,262.624Z" transform="translate(-65.152 -242.107)"/><path class="a" d="M209.3,348.027a20.212,20.212,0,0,0,2.6.59l.394-2.468a18.3,18.3,0,0,1-2.276-.517Z" transform="translate(-192.946 -318.63)"/></svg>