<svg xmlns="http://www.w3.org/2000/svg" width="18" height="21" viewBox="0 0 18 21"><defs><clipPath id="l6m0a"><path fill="#fff" d="M2 12a7 7 0 1 1 14 0 7 7 0 0 1-14 0z"/></clipPath></defs><g><g><g opacity="-1"><path fill="#3a3e47" d="M12 2H6V0h6zm6 10c0 4.97-4 9-9 9A9 9 0 1 1 9 3c2.12 0 4.07.74 5.62 2l1.42-1.44c.51.44.96.9 1.41 1.41l-1.42 1.42A8.963 8.963 0 0 1 18 12zm-4.05 4.95a7 7 0 1 0-9.9-9.9 7 7 0 0 0 9.9 9.9z"/></g><g opacity="-1"><path fill="none" stroke="#f07532" stroke-dasharray="22 9999" stroke-miterlimit="20" stroke-width="12" d="M2 12a7 7 0 1 1 14 0 7 7 0 0 1-14 0z" clip-path="url(&quot;#l6m0a&quot;)"/></g><g opacity="-1"><g><path fill="#3a3e47" d="M10 11v6H8v-6z"/></g></g></g></g></svg>