<svg xmlns="http://www.w3.org/2000/svg" width="38" height="40" viewBox="0 0 38 40"><g><g opacity="-1"><path fill="#3a3e47" d="M17.154 35.783a.775.775 0 0 0 .162 1.539l16.39-.863a1.63 1.63 0 1 0-.34-3.236l-16.212 2.56zm-2.638-1l-9.883-1.56a1.63 1.63 0 1 0-.34 3.236l9.734.513a3.264 3.264 0 0 1 .49-2.188zM9.738 19.425l-1.96 11.764 2.817.444.238-.288a8.75 8.75 0 0 0 1.598-8.192l-.873-2.778 2.385-.75.873 2.778a11.25 11.25 0 0 1-1.412 9.674L19 32.96l5.596-.884a11.25 11.25 0 0 1-1.412-9.674l.873-2.778 2.385.75-.873 2.778a8.75 8.75 0 0 0 1.598 8.192l.238.288 2.817-.444-1.96-11.764a3.75 3.75 0 0 0-2.513-2.941l-4.644-1.548.79-2.372 4.644 1.548a6.25 6.25 0 0 1 4.189 4.902l1.964 11.785.285-.045a4.13 4.13 0 1 1 .86 8.202l-11.873.625a3.262 3.262 0 0 1-1.41.238L19 39.737l-1.553.082c-.5.026-.978-.061-1.41-.238l-11.875-.625a4.13 4.13 0 1 1 .861-8.202l.285.045 1.964-11.785a6.25 6.25 0 0 1 4.189-4.902l4.644-1.548.79 2.372-4.644 1.548a3.75 3.75 0 0 0-2.513 2.941zm4.814-14.456a4.475 4.475 0 1 1 8.896 0l-.284 2.554a4.19 4.19 0 0 1-8.328 0zm6.411-.276a1.975 1.975 0 1 0-3.926 0l.284 2.554a1.69 1.69 0 0 0 3.358 0l.284-2.554z"/></g></g></svg>